<svg xmlns="http://www.w3.org/2000/svg" width="43" height="34"><path d="M33.787.25c-3.175 0-6.142.952-8.58 2.753-2.16 1.594-3.76 3.8-4.4 6.05-.722 2.575-.135 4.9 1.567 6.436-.586 1.025-1.13 2.083-1.56 3.1-.396-.982-.923-1.862-1.52-2.646.846-1.34.963-2.976.298-4.653-.626-1.58-1.892-3.035-3.567-4.1-1.807-1.15-3.934-1.756-6.152-1.756-2.846 0-5.766 1.023-8.443 2.96L0 9.443l1.714.464c2.827.766 5.083 2.938 7.074 4.855 2.032 1.957 3.952 3.806 6.176 3.806 1.095 0 2.14-.436 3.188-1.328 1.005 1.412 1.72 3.143 1.72 5.248v10.76h1.7V22.288c0-1.353.796-3.346 2.213-5.836 1.053.566 2.037.843 2.995.843 3.124 0 5.156-2.98 7.307-6.135 1.92-2.816 4.096-6.008 7.334-7.66L43 2.69l-1.62-.72C38.817.83 36.263.25 33.787.25zM14.964 16.874c-1.538 0-3.14-1.543-4.995-3.33-1.756-1.69-3.705-3.568-6.145-4.672C5.807 7.72 7.84 7.14 9.88 7.14c4.1 0 7.197 2.406 8.14 4.783.244.616.496 1.635.084 2.655-1.525-1.543-3.203-2.598-4.248-3.254l-.745-.482-.985 1.38c.215.152.497.33.824.535 1.076.676 2.71 1.703 4.118 3.18-.734.63-1.424.938-2.103.938zm17.717-6.667c-1.973 2.894-3.677 5.393-5.9 5.393-.652 0-1.35-.2-2.124-.607l.23-.37C26.57 11.97 28.28 9.82 28.298 9.8l-1.33-1.055a61.2 61.2 0 0 0-3.688 5.245c-1.028-1.104-1.33-2.68-.826-4.48.53-1.894 1.904-3.77 3.765-5.144 1.495-1.104 4.02-2.42 7.57-2.42 1.74 0 3.53.32 5.343.954-2.78 1.927-4.714 4.763-6.45 7.308z" fill="#000" fill-rule="nonzero"/></svg>