<svg xmlns="http://www.w3.org/2000/svg" width="32" height="32"><style><![CDATA[.B{fill-rule:nonzero}]]></style><g fill="#000" fill-rule="evenodd"><path d="M5.853 22.202c.334-.167.982-.5.982-1.64 0-.826-.502-2.055-2.467-2.055H.475v8.013h3.393c1.64 0 2.076-.28 2.533-.728.422-.4.7-1.015.7-1.648 0-.793-.256-1.574-1.238-1.94zm-3.77-2.31h1.92c.758 0 1.227.2 1.227.858 0 .638-.523.894-1.184.894H2.083v-1.752zm2.05 5.242h-2.05v-2.143h2.13c.604 0 1.205.27 1.205.97-.002.813-.47 1.172-1.285 1.172z" class="B"/><path d="M.476 27.788v.728h1.24v3.377h.855v-3.377h1.243v-.728zm27.6-6l3.27-3.282h-2.164l-3.058 3.257v-3.257H24.44v8h1.674v-2.7l.78-.804 2.476 3.515h2.154z"/><path d="M12.36 18.505h-1.93l-2.854 8.012H9.34l.557-1.65h2.957l.514 1.65h1.818l-2.824-8.01zm-2.02 4.976l1.027-3.168h.023l.992 3.168h-2.042z" class="B"/><path d="M19.83 2.805c-.502-.593-1.055-1.146-1.705-1.625a7.86 7.86 0 0 0-1.043-.665C16.7.32 16.312.13 15.847 0a6 6 0 0 0 .191 1.324c.094.404.22.783.37 1.147l-1.268.438-1.002.453c-.35.168-.707.372-1.068.6-.367.207-.71.5-1.068.755-.327.31-.686.58-.977.933-.3.338-.595.676-.822 1.06l-.344.55-.266.575c-.195.364-.284.756-.386 1.113-.12.354-.164.7-.197 1.02-.027.32-.094.6-.078.86l.02.662.014.57.105-.562.12-.636c.037-.245.164-.505.252-.792.094-.287.203-.593.383-.887.164-.3.313-.622.555-.9l.332-.438c.117-.143.267-.266.396-.4.254-.277.564-.5.87-.723.293-.233.65-.4.96-.58.352-.14.662-.317 1.008-.42.33-.12.655-.22.973-.293.31-.1.62-.13.89-.188l.488-.065-.053.137a8.21 8.21 0 0 0-.367 1.367l-.096.74a5.55 5.55 0 0 0-.006.797c.26-.1.498-.213.723-.336l.633-.395a8.13 8.13 0 0 0 1.094-.9c.664-.642 1.213-1.36 1.674-2.13l.06-.098c.283-.48.25-1.106-.13-1.555z"/><path d="M7.578 30.965c0-.766-.184-.892-.52-1.04.406-.137.635-.524.635-.98 0-.354-.2-1.16-1.29-1.16H4.325V31.9h.842v-1.605h.885c.635 0 .67.218.67.776 0 .422.033.636.1.828h.95v-.107c-.183-.068-.183-.218-.183-.817zm-1.41-1.37H5.166v-1.1h1.068c.502 0 .6.318.6.537-.001.404-.217.563-.665.563z" class="B"/><path d="M23.34 28.516v-.728h-2.92v4.106h.858v-1.726h1.806v-.726h-1.806v-.926zm1.415 2.65v-1.06h2v-.726h-2v-.862h2.18V27.8h-3.02v4.103h3.115v-.728zM18.7 29.553l-.998-.246c-.172-.04-.436-.1-.436-.43 0-.37.4-.5.715-.5.75 0 .82.433.842.616h.82c-.006-.503-.342-1.325-1.6-1.325-1.332 0-1.577.805-1.577 1.262 0 .904.64 1.055 1.303 1.207l.44.104c.433.105.743.2.743.5 0 .43-.453.53-.856.53-.75 0-.865-.434-.87-.663h-.82c0 .5.255 1.372 1.753 1.372.358 0 1.617-.112 1.617-1.343-.001-.737-.515-.968-1.074-1.104z"/><path d="M30.982 30.965c0-.766-.186-.892-.52-1.04.404-.137.637-.524.637-.98 0-.354-.2-1.16-1.293-1.16H27.73V31.9h.842v-1.605h.885c.633 0 .67.218.67.776 0 .422.033.636.09.828h.946v-.107c-.183-.068-.183-.218-.183-.817zm-1.406-1.37h-1.004v-1.1h1.066c.504 0 .602.318.602.537 0 .404-.217.563-.664.563z" class="B"/><path d="M21.145 18.508v5.578h-.02l-3.18-5.578H16.18v8.012h1.562l.002-5.712h.02l3.27 5.713h1.672v-8.013z"/><path d="M10.474 27.788h-.99L8.02 31.89h.904l.285-.847h1.514l.264.847h.932l-1.445-4.103zM9.44 30.336l.527-1.622h.008l.512 1.622H9.44z" class="B"/><path d="M14.976 27.788l-.001 2.856h-.01l-1.63-2.856h-.902v4.103h.8v-2.927h.013l1.674 2.927h.86v-4.103zm6.98-22.128l-.035-.568-.1.564-.1.64c-.03.246-.15.5-.23.8s-.182.598-.354.898c-.154.304-.293.63-.527.917l-.317.45c-.115.145-.26.273-.388.4-.244.283-.547.518-.848.748-.283.242-.637.408-.94.6-.346.15-.65.337-.994.448a7.73 7.73 0 0 1-.964.322c-.305.1-.613.15-.883.214l-.486.08c.014-.047.033-.1.05-.138.144-.44.254-.897.326-1.378l.072-.743a5.63 5.63 0 0 0-.016-.796 5.58 5.58 0 0 0-.713.357l-.62.413c-.392.3-.746.6-1.064.933a10.26 10.26 0 0 0-1.609 2.179l-.057.098a1.34 1.34 0 0 0 .178 1.55 10.15 10.15 0 0 0 1.752 1.573 7.61 7.61 0 0 0 1.064.633c.384.188.777.364 1.248.48-.025-.48-.123-.903-.23-1.316a7.58 7.58 0 0 0-.404-1.136l1.254-.475.988-.483a9.99 9.99 0 0 0 1.045-.63c.36-.218.694-.522 1.047-.787.317-.32.668-.6.95-.96.3-.347.573-.692.8-1.083l.327-.562.248-.583c.184-.37.262-.765.354-1.124a4.55 4.55 0 0 0 .166-1.025c.02-.32.076-.604.054-.863l-.04-.662z"/></g></svg>