<svg xmlns="http://www.w3.org/2000/svg" width="50" height="37"><style><![CDATA[.D{fill-rule:nonzero}]]></style><g fill="#000" fill-rule="evenodd"><path d="M12.856 4.793l-.096.446h.482l.095-.446zm26.432 10.095h1v1h-1zM16.857 5.2c.302 0 .454.142.458.427h.515a1.46 1.46 0 0 0 .008-.16.65.65 0 0 0-.237-.508c-.158-.137-.375-.206-.653-.206-.427 0-.776.168-1.048.504s-.4.743-.4 1.218c0 .275.084.5.25.645s.397.233.692.233c.6 0 1.018-.304 1.22-.913h-.515c-.106.3-.32.466-.644.466-.148 0-.264-.044-.345-.13s-.123-.22-.123-.4a1.5 1.5 0 0 1 .23-.8c.154-.25.353-.375.602-.375z"/><path d="M19.62 5.918c.008-.038.013-.072.013-.103 0-.127-.064-.227-.192-.3s-.292-.108-.492-.108c-.513 0-.826.214-.94.64h.467c.05-.174.186-.26.404-.26.08 0 .142.014.2.043s.073.073.073.132c0 .114-.07.18-.208.197l-.514.07c-.2.025-.344.097-.464.216a.59.59 0 0 0-.181.442c0 .145.042.256.13.333s.207.116.36.116c.26 0 .48-.09.658-.265a.81.81 0 0 0 .005.217h.512l.015-.072c-.043-.012-.065-.05-.065-.118 0-.05.004-.092.012-.128l.22-1.053zM19 6.656c-.02.09-.08.167-.186.236s-.215.103-.33.103c-.068 0-.12-.016-.156-.047s-.055-.075-.055-.132c0-.17.11-.272.328-.3.23-.03.38-.068.452-.113L19 6.656z" class="D"/><path d="M37.197 14.543c.023-.002.023-.002.015-.005zM12.714 5.455l-.4 1.832h.482l.4-1.832z"/><circle cx="39.897" cy="14.242" r="1"/><path d="M40.67 14.166h1v1h-1zM14.13 5.802h.3l.074-.345h-.3l.104-.494h-.48l-.104.494h-.25l-.074.345h.248l-.236 1.113a.71.71 0 0 0-.015.13c0 .088.036.155.108.2s.183.068.334.068c.105 0 .196-.005.274-.017l.075-.358a1.41 1.41 0 0 1-.141.007c-.053 0-.088-.006-.108-.02s-.03-.032-.03-.06c0-.01.002-.022.005-.036l.22-1.027zm25.172 9.16zm.642-.803zm-.114.046zm-4.1 1.325zm1.774-.135zm-1.826-.072zm0-.027l.003-.002.003-.004zm1.915-.696h1v1h-1zm-1.9.645zm1.78.092zm.05-.577zm.202.357c.014-.002.02-.006.02-.006s-.012-.001-.02.006z"/><path d="M22.818 4.817l-.186.886h-.007c-.094-.196-.26-.294-.494-.294-.275 0-.505.122-.692.366a1.34 1.34 0 0 0-.281.84c0 .22.055.397.166.527a.55.55 0 0 0 .443.196c.234 0 .425-.092.58-.28h.007l-.05.23h.47l.525-2.47h-.482zm-.45 1.9a.45.45 0 0 1-.387.221.29.29 0 0 1-.231-.1c-.058-.066-.086-.155-.086-.266a.91.91 0 0 1 .154-.519c.103-.153.235-.23.396-.23.103 0 .18.034.23.1s.076.168.076.3a.86.86 0 0 1-.151.491z" class="D"/><path d="M36.898 14.508h-.02l-.026-.002c-.033.012-.033.012-.015.007.014.01.02.01.024.008-.005-.006.01-.01.018-.01h.02zm-15.768-9.1c-.212 0-.398.122-.56.365h-.007l.067-.318h-.462l-.4 1.832h.482l.204-.953c.06-.292.242-.437.54-.437.056 0 .1.003.132.007l.104-.5c-.033-.004-.07-.007-.1-.007zm15.758 9.124c-.025.01-.024.01-.01.008zm-1.7.808z"/><path d="M36.865 14.54l.06-.06.06.06-.06.06z"/><path d="M26.967 22.782h-1.32c-.166 0-.303.135-.303.302v2.385c0 .167.137.3.303.3h1.32a.3.3 0 0 0 .3-.301v-2.385c0-.167-.136-.303-.3-.302zm.065 2.503c0 .14-.104.255-.23.255h-.998c-.127 0-.23-.114-.23-.255V23.27c0-.14.104-.256.23-.256h.998c.127 0 .23.116.23.256v2.016zM41.718 3.793a2 2 0 0 0-1.006.271c-.298-.17-.64-.27-1.007-.27a2.01 2.01 0 0 0 0 4.024 2 2 0 0 0 1.007-.271 2 2 0 0 0 1.006.271c1.1 0 2.013-.9 2.013-2.012s-.902-2.012-2.013-2.012zm-1.006 3.752a2.01 2.01 0 0 1 0-3.48c.603.348 1.006.996 1.006 1.74a2.01 2.01 0 0 1-1.006 1.74z" class="D"/><path d="M37.58 14.782h1v1h-1zm-.883 1.982zm.933-2.122zm6.1 1.37c-.003.008-.006.008-.025.003s-.02-.003-.02-.001c.025.008.03.01.028.014.012.005.023-.003.025-.013z"/><path d="M43.72 16.008zm.022.002c.02-.003.02-.005.018-.005z"/><path d="M12.517 28.617H12.2l-.7 2.03h.27l.21-.64h.72l.217.64h.28l-.692-2.03zm-.47 1.187l.198-.587.1-.368h.01l.103.37.202.584h-.61z" class="D"/><path d="M37.724 14.84zm6.05 1.16c.02.013.02.01.02.003zm-33.328-.903v-.042h2.297v-1.057H10.29v-.238h2.214v-.917H10.29v-.237H8.815v.237H6.6v.917h2.214v.238h-2.45v1.057h2.372v.28H6.364V16.4h2.372v.24H6.364v1.098h2.452v.236H6.6v.918h2.214v.24h1.477v-.24h2.214v-.914H10.3v-.24h2.452V16.63h-2.297v-.24h2.297v-1.055h-2.297v-.044z"/><circle cx="43.917" cy="15.853" r="1"/><path d="M12.93 22.782H11.61c-.166 0-.303.135-.303.302v2.385c0 .167.136.3.303.3h1.318a.3.3 0 0 0 .303-.301v-2.385c0-.167-.136-.303-.303-.302zm.07 2.503c0 .14-.103.255-.23.255h-.997c-.128 0-.23-.114-.23-.255V23.27c0-.14.103-.256.23-.256h.997c.127 0 .23.116.23.256v2.016z" class="D"/><circle cx="43.483" cy="17.416" r="1"/><path d="M12.743 13.76v.238h.284v1.057h-.284v.28h.284V16.4h-.284v.24h.284v1.098h-.284v.24h.52V13.76zm4.633 16.665v-.73h.787v-.217h-.787v-.642h.835v-.22h-1.1v2.03h1.145v-.22z"/><path d="M19.763 30.1c-.05-.212-.145-.355-.297-.4v-.01c.2-.073.382-.25.382-.514a.51.51 0 0 0-.159-.386c-.126-.114-.3-.168-.6-.168a2.89 2.89 0 0 0-.503.045v2h.262v-.88h.247c.238.01.35.114.4.395.054.253.1.428.132.484h.27c-.04-.08-.088-.274-.154-.557zm-.64-.522h-.268v-.738a1.29 1.29 0 0 1 .26-.022c.276 0 .467.113.467.375 0 .232-.178.386-.46.386zm3.907-6.786h-1.318a.3.3 0 0 0-.302.302v2.385a.3.3 0 0 0 .302.301h1.318c.166 0 .303-.134.303-.3v-2.385c0-.167-.136-.303-.303-.302zm.07 2.503c0 .14-.103.255-.23.255h-.997c-.127 0-.23-.114-.23-.255V23.27c0-.14.103-.256.23-.256h.997c.128 0 .23.116.23.256v2.016zm-2.207-2.513h-1.317c-.167 0-.303.135-.303.302v2.385a.3.3 0 0 0 .303.301h1.317a.3.3 0 0 0 .303-.3v-2.385c0-.167-.136-.303-.303-.302zm.07 2.503c0 .14-.103.255-.23.255h-.997c-.128 0-.23-.114-.23-.255V23.27c0-.14.103-.256.23-.256h.997c.127 0 .23.116.23.256v2.016zm-4.343-2.503h-1.318c-.167 0-.303.135-.303.302v2.385a.3.3 0 0 0 .303.301h1.318a.3.3 0 0 0 .302-.301v-2.385a.3.3 0 0 0-.302-.302zm.07 2.503c0 .14-.103.255-.23.255h-.997c-.127 0-.23-.114-.23-.255V23.27c0-.14.103-.256.23-.256h.997c.127 0 .23.116.23.256v2.016zm16.685-2.503h-1.32c-.166 0-.302.135-.302.302v2.385a.3.3 0 0 0 .302.301h1.32c.164 0 .302-.134.302-.3v-2.385c0-.167-.137-.303-.302-.302zm.068 2.503c0 .14-.104.255-.23.255h-.998c-.127 0-.23-.114-.23-.255V23.27c0-.14.104-.256.23-.256h.998c.13 0 .23.116.23.256v2.016zM29.1 22.782h-1.317c-.168 0-.303.135-.303.302v2.385a.3.3 0 0 0 .303.3h1.317a.3.3 0 0 0 .302-.301v-2.385c0-.167-.136-.303-.302-.302zm.07 2.503c0 .14-.105.255-.23.255h-.997c-.127 0-.23-.114-.23-.255V23.27c0-.14.103-.256.23-.256h.997c.127 0 .23.116.23.256v2.016z" class="D"/><path d="M16.125 29.478l.736-.86h-.325l-.62.763-.16.217h-.01v-.98h-.262v2.03h.262v-.775l.196-.222.666.997h.3l-.793-1.17zm-1.345-.858V29.47l.03.83-.01.003a5.38 5.38 0 0 0-.362-.66l-.648-1.027h-.3v2.03h.247v-.867l-.018-.837.01-.002a6.15 6.15 0 0 0 .376.677l.645 1.032h.265v-2.03h-.247z"/><path d="M31.24 22.782h-1.32c-.166 0-.302.135-.302.302v2.385a.3.3 0 0 0 .302.301h1.32a.3.3 0 0 0 .302-.301v-2.385c0-.167-.136-.303-.302-.302zm.067 2.503c0 .14-.104.255-.23.255h-.998c-.127 0-.23-.114-.23-.255V23.27c0-.14.104-.256.23-.256h.998c.127 0 .23.116.23.256v2.016zm-20.41 4.28v-.01c.2-.074.343-.247.343-.445 0-.16-.066-.28-.172-.358-.123-.103-.292-.148-.553-.148a2.3 2.3 0 0 0-.479.046v1.995a3.54 3.54 0 0 0 .406.023c.33 0 .56-.062.7-.2.105-.1.175-.23.175-.406 0-.3-.225-.46-.42-.506zm-.6-.743c.042-.008.1-.018.232-.018.264 0 .442.097.442.332 0 .194-.164.342-.437.342h-.238l.001-.656zm.22 1.643c-.094 0-.166-.003-.22-.014v-.775h.218c.286 0 .524.12.524.392 0 .293-.25.395-.52.397z" class="D"/><path d="M44.046 18.28z"/><path d="M43.197 17.975h1v1h-1zM3.803 8.517H45.33v1H3.803zm40.682 9.39z"/><path d="M18.757 22.78H17.44c-.168 0-.303.135-.303.3v2.386c0 .167.136.302.303.302h1.316c.168 0 .303-.135.303-.302v-2.386c0-.165-.136-.3-.303-.3zm.07 2.503c0 .14-.103.255-.23.255H17.6c-.127 0-.23-.114-.23-.255V23.27c0-.14.103-.256.23-.256h.997c.126 0 .23.115.23.256v2.015z" class="D"/><path d="M5.897 5.2c.3 0 .454.142.458.427h.515a1.48 1.48 0 0 0 .007-.16c0-.202-.08-.37-.236-.508s-.375-.206-.653-.206c-.427 0-.776.168-1.048.504s-.4.743-.4 1.218c0 .275.083.5.25.645s.396.233.692.233c.6 0 1.02-.304 1.222-.913h-.516c-.105.3-.32.466-.644.466-.147 0-.263-.044-.344-.13s-.123-.22-.123-.4a1.5 1.5 0 0 1 .23-.8c.154-.25.353-.375.602-.375zm34.89 9.17z"/><path d="M8.237 5.407c-.212 0-.398.122-.56.365H7.67l.067-.318h-.462l-.4 1.832h.48l.204-.953c.062-.292.242-.437.54-.437a1.08 1.08 0 0 1 .133.007l.103-.5c-.033-.004-.07-.007-.11-.007z"/><g class="D"><path d="M11.897 4.817l-.187.886h-.007a.5.5 0 0 0-.494-.294c-.274 0-.504.122-.692.366a1.34 1.34 0 0 0-.281.84c0 .22.055.397.166.527s.26.195.444.195c.233 0 .425-.092.578-.28h.007l-.05.23h.47l.526-2.47h-.482zm-.45 1.9c-.1.147-.23.22-.388.22-.097 0-.174-.034-.23-.1s-.086-.155-.086-.266a.91.91 0 0 1 .153-.519c.103-.153.236-.23.397-.23.103 0 .18.034.23.1s.075.168.075.3a.86.86 0 0 1-.15.491z"/><path d="M10.014 6.503a1.45 1.45 0 0 0 .058-.393c0-.208-.064-.377-.19-.507s-.298-.194-.52-.194c-.32 0-.587.124-.798.37a1.29 1.29 0 0 0-.315.863c0 .217.067.39.202.5s.31.184.527.184c.46 0 .78-.195.962-.585h-.496c-.078.132-.208.198-.4.198-.215 0-.323-.118-.323-.354a1.14 1.14 0 0 1 .005-.092h1.275zm-.717-.697c.094 0 .167.023.218.07s.075.118.075.212a.73.73 0 0 1-.008.101h-.77c.106-.256.268-.384.485-.384z"/></g><path d="M6.363 13.998v-.238h-.447v4.208h.447v-.24h-.2V16.63h.2v-.24h-.2v-1.055h.2v-.28h-.2v-1.057zm37.267 2.748z"/><path d="M10.792 22.782H9.475c-.167 0-.303.135-.303.302v2.386a.3.3 0 0 0 .303.301h1.317a.3.3 0 0 0 .303-.301v-2.386c0-.165-.136-.302-.303-.302zm.07 2.504c0 .14-.103.255-.23.255h-.996c-.126 0-.23-.114-.23-.255V23.27c0-.14.103-.256.23-.256h.996c.127 0 .23.116.23.256v2.016z" class="D"/><path d="M43.636 16.768zm-.013-.003zm-.01.015zm-2.834-2.614c-.014.008-.02.01-.02.01.02.003.03 0 .033-.006z"/><path d="M8.95 30.1c-.05-.212-.144-.355-.297-.4v-.01c.2-.073.382-.25.382-.514a.51.51 0 0 0-.159-.386c-.126-.114-.3-.168-.6-.168a2.89 2.89 0 0 0-.503.045v2h.262v-.88h.247c.238.01.35.114.4.395.054.253.1.428.132.484h.27c-.04-.08-.088-.274-.154-.557zm-.64-.522h-.268v-.738a1.29 1.29 0 0 1 .26-.022c.276 0 .467.113.467.375 0 .232-.178.386-.46.386zm-1.8-6.786H5.203c-.168 0-.303.135-.303.302v2.386a.3.3 0 0 0 .303.3H6.52a.3.3 0 0 0 .303-.301v-2.386c0-.165-.136-.302-.303-.302zm.07 2.504c0 .14-.103.255-.23.255h-.997c-.128 0-.23-.114-.23-.255V23.27c0-.14.103-.256.23-.256h.997c.127 0 .23.116.23.256v2.016z" class="D"/><path d="M7.256 28.62l-.335-.001-.362.98-.217.685h-.006L6.13 29.6l-.347-.982H5.45l-.142 2.03h.25l.054-.87.04-.898h.006c.058.24.136.5.232.8l.33.967h.2l.358-.985.256-.77h.007l.033.877.048.89h.26l-.126-2.03z"/><path d="M8.656 22.782H7.338a.3.3 0 0 0-.302.302v2.386a.3.3 0 0 0 .302.3h1.318a.3.3 0 0 0 .303-.301v-2.385c0-.165-.136-.302-.303-.302zm.07 2.503c0 .14-.103.255-.23.255h-.997c-.126.001-.23-.114-.23-.255V23.27c0-.14.103-.256.23-.256h.997c.127 0 .23.116.23.256v2.016z" class="D"/><path d="M37.62 14.614zm6.527.55zm-4.384-.517c-.014.02-.014.022-.01.022s.028-.02.028-.025zm.417.967zm-.58-.546zm.092-.375zm4.546.432zm-3.408 1.35h1v1h-1zm2.208.285zm-3.15-2.257zm-.104.47zm-.01.013c-.03-.004-.03.003-.012.01s.025 0 .018-.008zm-.832-.63h1v1h-1zm1.75 1.06c.008.005.022.01.028.014-.007-.003-.02-.008-.028-.014zm-.767-.916zm.2-.068h1v1h-1z"/><path d="M39.955 14.504l.06-.06.06.06-.06.06zm.215 1.138zm-.227-1.165l-.003.002.003-.002zm-2.26-.235zm-.45.2zm.44-.096l.06-.06.06.06-.06.06z"/><path d="M37.68 14.335l.06-.06.06.06-.06.06zm-.076.001zm1.322.034c-.004.023.001.027.007.028-.01-.006-.01-.02.005-.024zm1.18 1.253c-.017-.018-.017-.018-.017-.003.015.014.017.01.02.008zm-2.942-1.16zm.513-.177l.03-.013c-.013-.005-.028 0-.03.013zm2.515.147l-.002.001.003-.001zM41.915 17l-.006.003zm-3.94-2.68zm-.2-.057c.023.012.023.012.012.008zm.28.037zm.56-.174zm1.444.86zm1.698.4zm.052.001c.02.008.022.008.015.005zm-.08-.01c-.01.001-.026.013-.02.017-.01.002-.01.02-.002.028.008-.017.01-.02.014-.02.008-.01.013-.014.016-.014z"/><circle cx="41.886" cy="15.43" r="1"/><path d="M42.13 14.52c.025.008.027.007.022.003-.01-.006-.022-.008-.022-.003zm-.838.88l-.023-.013c-.003.003-.002.016-.002.03s.002.024.007.025c.018.004.024.002.03-.008-.003-.022-.008-.03-.01-.034z"/><path d="M41.252 15.4c.007.03.014.024.01.01zm.163-.8c.012.004.017.008.025.014.014.012.018.01.007-.003s-.035-.02-.03-.01zm-.1.758zm1.575 11.745a2.51 2.51 0 0 0-.955-.188c-.336 0-.658.067-.953.188a2.52 2.52 0 0 1 .953.683c-.383.443-.618 1.022-.618 1.656a2.52 2.52 0 0 0 .62 1.657c.386-.443.62-1.023.62-1.657s-.235-1.213-.62-1.656a2.54 2.54 0 0 1 .954-.683z"/><path d="M41.925 31.1c-.256.298-.583.53-.953.685a2.49 2.49 0 0 0 .953.187 2.49 2.49 0 0 0 .955-.187 2.55 2.55 0 0 1-.955-.685zm1.908-4.185a2.5 2.5 0 0 0-.953.188c.922.375 1.572 1.283 1.572 2.34a2.53 2.53 0 0 1-1.572 2.341 2.5 2.5 0 0 0 .953.187c1.395 0 2.525-1.13 2.525-2.527a2.53 2.53 0 0 0-2.525-2.53zM42.3 16.392h1v1h-1z"/><path d="M47.872.264H2.11C.947.264 0 1.178 0 2.302v31.82c0 1.122.947 2.034 2.11 2.034h45.763c1.164 0 2.108-.91 2.108-2.034V2.302c0-1.124-.946-2.037-2.108-2.037zm1.28 33.857c0 .665-.575 1.208-1.282 1.208H2.108c-.706 0-1.28-.543-1.28-1.208V2.302c0-.665.575-1.207 1.28-1.207H47.87c.707 0 1.282.542 1.282 1.207v31.82z" class="D"/><path d="M42.613 15.236c.008-.015.005-.024-.015-.064-.005-.013-.018-.018-.015-.006.01.032.007.064-.01.07-.002.01-.005.018-.01.02-.012.018-.03.026-.04.025.005.008.01.008.022.006.022-.001.023-.003.023-.014s0-.01.018-.014.02-.008.022-.012zm-3.215 14.206a2.53 2.53 0 0 1 1.572-2.341c-.295-.12-.618-.188-.953-.188a2.53 2.53 0 0 0-2.527 2.526 2.53 2.53 0 0 0 2.527 2.526c.336 0 .658-.066.953-.187a2.52 2.52 0 0 1-1.572-2.336z"/><path d="M42.536 12.64h-5.663a3.43 3.43 0 0 0-3.43 3.429v1.126a3.43 3.43 0 0 0 3.43 3.428h5.663a3.43 3.43 0 0 0 3.43-3.428v-1.126a3.43 3.43 0 0 0-3.43-3.429zM41.5 14.25c-.008-.01-.007-.01.025-.013.017-.003.017-.003.064.012.02.008.025.01.02.014s.005.01.04.018.046.01.046.02c.025.018.014.024-.004.02a.72.72 0 0 1-.116-.031c-.008-.005-.02-.008-.025-.007-.014-.01-.018-.01-.018-.006-.02.006-.027.002-.04-.01s-.008-.022.008-.02zm-.558.057c.04.001.06 0 .068-.005s.015-.006.02-.007c.02-.002.02-.001.036.004.038.014.023.023-.055.03-.058.007-.075.01-.088.02-.02.007-.068.05-.068.056-.014.004-.007.027.007.036s.022.018.03.02.02.01.018.01c.01.012.003.01-.05.002-.035-.005-.045-.008-.045-.018-.025-.006-.03-.01-.03-.012-.014-.001-.028-.008-.028-.02.027-.014.03-.022.016-.022.012-.018.02-.02.025-.02.012-.024.02-.035.02-.05.014-.005.047-.016.054-.022s.024-.005.072-.005zm-1.154-.124c-.008-.007-.014-.015-.016-.02.018-.007.032-.008.048-.01s.026.001.028.003c.02-.001.025.003.03.007.007-.014.01-.014.025-.012s.02.002.02-.003c.008-.007.08-.005.088.003.008-.01.028-.01.03-.003a.16.16 0 0 1 .076.006c-.01.012-.017.014-.02.016-.002.008-.042.01-.09.003-.02-.002-.03-.002-.033.002.01-.001.05.018.05.024.02.001.026.003.028.008.025.008.033.01.033.013-.028.014-.046.016-.05.01-.042-.003-.046-.004-.035-.01-.018-.025-.03-.03-.042-.023.004.004-.02.025-.03.025-.013.03-.025.03-.05.017-.008-.004-.02-.008-.026-.008-.002 0-.01-.006-.018-.013-.012-.014-.045-.035-.035-.022-.028-.008-.036-.015-.035-.017l.03.01zm-.43.664c.015.003.035-.003.035-.01.01-.018.03-.018.028-.01l-.014.016c-.005.01-.01.014-.014.02s-.016.01-.018.01c-.002.007.01.008.025.008.028 0 .036.004.025.016-.005.016-.012.02-.015.025-.014.008-.014.022-.002.022.006.001.02.016.022.033.004.007.01.015.014.018.01.007.025.02.025.025.012.027.012.03.005.038.012-.008.036-.002.042.01s-.003.03-.018.034c.005.015.01.017.01.02 0 .008-.038.022-.058.02-.018.005-.03.006-.05.005-.025-.001-.03 0-.038.007s-.01.008-.02.007-.015.001-.022.005-.022.008-.026.003l.03-.024c0-.008.018-.023.03-.023.02 0 .003-.01-.018-.01-.028-.002-.03-.014-.005-.024s.024-.024.005-.02c.01-.018.014-.025.005-.02l.032-.005c.01-.006.01-.02.002-.03-.003-.02-.036-.02-.04-.014-.008-.014-.005-.02-.003-.022-.024-.001-.025-.002-.025-.008-.01 0-.02-.003-.02-.01.026-.014.026-.016.02-.016-.008-.013-.01-.013-.02-.01.02-.013.024-.018.022-.02-.022-.016-.02-.018-.014-.022.018 0 .028-.012.04-.03.005-.008.013-.01.023-.008zm-.18.188c.003-.025.007-.027.024-.026.01.002.02 0 .023-.003-.012-.005.008-.03.02-.034s.053.001.063.01.01.025-.003.03-.013.008-.013.023c0 .01-.002.025-.005.036-.003.015-.005.018-.02.018-.008 0-.023.005-.035.01-.02.014-.056.022-.056.014-.025-.008-.018-.025 0-.04s.022-.024.007-.027zm-2.003-.512c.01-.002.028-.008.042-.01s.02-.004.025 0c-.008.014-.01.018-.01.022s-.008.018-.02.03c-.017.018-.03.023-.05.03-.053.02-.054.02-.054.008s-.003-.012-.015-.015c-.022-.006-.03-.014-.015-.02s.028-.01.028-.004c.03-.001.036-.013.024-.016.022-.017.036-.023.047-.023zm-.42.002c.008-.004.017-.008.025-.008l.022-.008c.05-.024.073-.032.1-.04.042-.01.06-.014.06-.008-.022.012-.025.014-.022.014-.02.014-.02.014.007.013s.048.003.043.014c-.002.002.007.001.023-.002s.022-.005.018-.005c-.002-.017-.003-.016.028-.03.007-.003.02-.006.022-.005.001.018.01.018.016.015.03-.006.035 0 .008.018-.02.013-.03.018-.064.024l-.093.025c-.058.017-.082.02-.08.008l-.043-.003c.012-.013.02-.017.02-.018-.02.008-.028.01-.036.012-.02-.005-.025-.004-.025-.008-.018.01-.02.01-.025.008-.032.006-.03-.005-.004-.014zm-.1 2.308c.005-.016-.002-.027-.013-.027-.022-.005-.024-.003-.024.002l-.025-.01c0-.018-.007-.027-.025-.033-.01-.003-.017-.01-.017-.013-.007.005-.008.005-.02.001s-.022-.018-.017-.025c.01-.014.002-.027-.038-.068-.017-.014-.02-.017-.012-.02-.033-.001-.052-.005-.078-.015-.003-.003-.016-.006-.03-.007-.024-.002-.04-.01-.065-.043-.016-.02-.04-.03-.058-.03-.002 0-.014.004-.02.007-.027.012-.04.016-.053.01a.16.16 0 0 1-.059-.021c-.026-.003-.07-.022-.086-.033-.005-.007-.017-.012-.02-.012-.018.002-.042-.007-.045-.014s-.012-.012-.02-.014-.02-.012-.025-.02c-.014-.013-.015-.03-.005-.03s.008-.003.008-.027c0-.032-.002-.04-.014-.05-.003-.006-.013-.017-.018-.024s-.01-.018-.018-.022-.014-.013-.018-.018c-.015-.01-.033-.023-.033-.027.015-.024.015-.025.005-.026-.01-.012-.014-.015-.02-.015-.006-.02-.008-.02-.014-.023s-.01-.01-.016-.012a.18.18 0 0 1-.014-.017c-.005-.017-.005-.026-.008-.04s-.002-.022 0-.025-.012-.02-.02-.017c-.02-.003-.023-.003-.03.025-.004.02-.004.024.003.033.02 0 .02.002.026.015-.002.025-.002.025.002.02 0 .01-.002.03.005.03a.09.09 0 0 1 .023.041c-.002.016.005.038.012.037 0 .01-.003.017-.003.022.02.008.023.008.02.007.007.005.008.014.01.02-.012.02-.02.02-.022.023-.005-.017-.036-.044-.047-.043s-.017-.007-.017-.014l.014-.033c0-.008-.03-.03-.036-.027s-.042-.025-.042-.03c.022-.003.028-.006.035-.016s.007-.01-.002-.02-.013-.014-.018-.017-.012-.01-.012-.025a.43.43 0 0 1-.007-.079c0-.016-.008-.028-.02-.028-.013-.007-.023-.008-.023-.013-.034-.004-.036-.004-.036-.017 0-.008-.003-.022-.007-.033-.006-.018-.006-.022.002-.025-.006-.008-.008-.014-.006-.023-.003-.017-.004-.02-.003-.025-.007-.022-.007-.027 0-.04s.01-.016.003-.02-.003-.01.015-.026c.008-.01.02-.028.024-.04.008-.022.018-.035.04-.06.012-.01.022-.025.03-.034s.014-.017.018-.02c.01-.01.035-.054.043-.075.01-.027.013-.03.024-.03-.01-.016-.014-.02-.017-.02l-.02-.014c-.003-.01-.007-.014-.014-.015.002-.018.005-.017.01-.02.014-.004.02-.006.03-.004-.014-.014-.015-.016-.012-.02-.002-.006 0-.01.007-.022-.007-.023-.004-.026 0-.028-.008-.016-.014-.02-.01-.02-.003-.01.012-.023.015-.02.012-.01.015-.012.02-.008-.003-.02-.002-.025 0-.03-.012.02-.012.02-.02.014-.017.01-.025.012-.035.013-.016-.013-.012-.014-.012-.015.01-.014.012-.015.015-.017-.023.003-.023.001-.005-.014-.008-.02-.01-.02-.015-.02.008-.012.007-.016.008-.025.004-.014.008-.02.007-.02-.01-.013-.017-.02-.024-.023-.02-.008-.028-.008-.036-.01-.014-.003-.025-.002-.05.004a.17.17 0 0 0-.038.013c-.012-.014-.017-.013-.03-.008.01-.012.01-.02-.003-.018s-.016.01-.025.01c.01.003.004.012-.014.022-.013.008-.023.01-.028.01-.012-.001-.038.006-.047.01s-.018.008-.036.016c-.03.015-.055.022-.055.016.025-.014.03-.02.028-.02l.023-.02c0-.004-.01.002-.025.012-.023.008-.025.01-.025.012-.02.008-.026.012-.028.014-.012.007-.017.008-.025.01.004.007-.003.02-.018.02-.006.002-.015.008-.026.014l.035-.02c.002.017 0 .018-.013.02-.018.014-.02.02-.036.027l-.025.014c-.018.01-.028.013-.036.015-.017.006-.024.001-.017-.01s.028-.02.035-.02l-.058.028c-.005.004-.014.01-.026.014-.014.012-.02.012-.03.012-.02.006-.026.01-.028.013-.01.01-.04.025-.046.023-.022.01-.03.014-.04.014-.005.022-.007.024-.014.02-.02.01-.024.01-.027.003s-.023-.006-.028.002-.014.004-.02.008c-.02.006-.03.01-.038.014s-.02.01-.026.01-.017.006-.02.01c-.018-.002.015-.02.035-.027a.19.19 0 0 0 .053-.022c.053-.026.066-.03.073-.03.01-.005.028-.016.068-.034.02-.007.036-.016.044-.02s.017-.01.027-.016.03-.018.042-.026c.02-.015.02-.015.008-.016-.023.013-.037.016-.036.008s-.017-.006-.035.003-.02.01-.015.004c-.014.007-.02.007-.022.006.005-.006.014-.01.017-.017s.01-.012.018-.014c.018-.017.016-.017 0-.012-.01.004-.022.008-.03.01-.012-.02-.01-.024 0-.028.006-.014.014-.03.027-.036l.06-.03c.004 0 .01-.005.018-.01.025-.018.036-.024.052-.024s.045-.013.045-.02l.045-.01c.01-.005.036-.028.028-.026.01-.012-.002-.008-.02.003-.008.006-.017.008-.02.007s-.018.001-.035.004c-.042.01-.05.008-.035-.008-.01-.014 0-.02.027-.03l.1-.036c.04-.017.046-.02.038-.008-.022.01-.001.01.013.008.007-.002.023-.015.026-.025-.006-.02-.012-.03-.025-.03.001-.01.012-.016.02-.02s.032-.014.053-.02.047-.017.063-.027c.036-.023.07-.04.088-.042.007-.002.025-.008.038-.015s.04-.014.058-.02a.25.25 0 0 0 .054-.02c.02-.01.026-.012.03-.01.015 0 .02 0 .02.003s.01.002.028-.003.023-.005.023-.001.008.003.036 0a.66.66 0 0 1 .066-.008c.015 0 .042-.006.06-.008s.033-.005.033-.003.02.003.05 0c.015-.003.022-.003.02.001-.007.014.043.01.06-.003.02-.01.025-.013.025-.014s.04-.01.053-.008l.014-.004c-.001-.005.054-.026.086-.036.023-.012.025-.01.02-.006.016.004.038-.01.043-.018.02-.003.02.002.016.014.006.015.028.002.035-.003s.03-.016.03-.012c-.01.017-.013.02-.014.02-.02-.004-.017.003-.005.003.003.001.014-.003.02-.008.018-.012.054-.02.063-.012.015.003.025.004.038.006s.033.001.048-.002.028-.003.034.001c.014.007.007.014-.014.02-.03.01-.035.015-.012.012.016-.01.016-.01.023-.008.016.004.073-.008.097-.02.027.005.02.008.01.005.02.006.025.004.025.002-.003-.016.005-.023.042-.036-.014.001-.03.007-.045.01s-.04.012-.06.017c-.035.005-.04.006-.04 0 .012-.016.005-.016-.013-.014-.025.005-.04.001-.04-.013s.02-.017.09-.03l.053-.012c-.03.002-.026.002-.075.013-.033.007-.044.008-.05.003.023-.022.023-.023.014-.026.005-.015.014-.02.024-.025.008-.01-.04.013-.058.025-.007.004-.016.01-.028.012s-.025.008-.038.014c-.02.01-.033.01-.028 0s-.01-.016-.02-.012c.02-.02.035-.03.038-.032a.38.38 0 0 0 .038-.022c.01-.008.023-.014.026-.015.014-.018.02-.024.03-.026.003-.003.03-.008.053-.01l.068-.01c.033-.003.042-.002.05.008.025.008.025.01.018.02.022-.007.025-.007.042-.005.024.006.03.004.03-.003s.017-.01.027-.003c-.002.022-.002.03.004.03.01-.015.018-.027.026-.036.015-.017.034-.023.052-.018-.005-.006.02-.018.035-.02s.026-.001.026.004-.008.008-.023.016c-.024.014-.043.036-.043.05-.022.02-.022.025-.01.027.024.004.043.01.043.014s-.025.025-.03.026c-.02-.008-.02-.006-.015-.001-.004.013-.013.02-.02.025-.02.003-.035.003-.05.005s-.028.003-.03 0c-.008 0-.018.001-.025-.003-.022.007-.027.01-.03.012.024 0 .03-.001.027-.003.014.014.014.015.018.01.02-.003.02-.003.012.002.018.004.02.004.023.008s.012.003.053-.003c.046-.007.052-.01.062-.02.004-.008.01-.01.018-.01-.02-.008-.015-.02.003-.025.008-.002.018-.008.02-.01s.01-.01.018-.014.012-.006.02-.002c.028 0 .033-.003.03-.01.02-.02.025-.025.025-.028s.015-.022.03-.024l.025-.015c.02-.01.035-.024.033-.035.008-.014.018-.02.023-.025.02-.007.025-.008.023-.01 0-.007.033-.017.053-.018.012 0 .026-.002.036-.003s.02-.001.025 0c.01.004-.058.043-.09.05-.012.002-.025.008-.028.01s-.01.01-.022.014c-.002.01.003.024-.002.032.003.022.003.025 0 .026-.01.005-.006.02.003.018.005.016.005.015.02.01.028-.012.036.014.01.03-.014.007-.017.016-.012.025.028-.007.033-.01.03-.013.014-.014.016-.02.02-.02-.002.01.004.007.022-.007.008-.008.018-.015.02-.016.01-.02.017-.03.028-.036-.038.003-.04.003-.038-.003-.01.003-.015.002-.024-.003-.015-.012-.012-.017.02-.02.008 0 .016-.001.025-.003-.006 0-.014 0-.023-.001s-.026-.001-.026-.002.014-.025.018-.025c.05-.046.138-.083.166-.075-.014.017-.006.016.03.004s.06-.016.06-.008c.016-.007.025-.01.053-.01.036-.003.052.003.052.015-.02.008-.023.01-.015.01.022.002.027.005.027.008.013.012.013.013.016.013.003.006.012.002.026 0 .02.01.024.013.027.01.01.008.017.007.028.008.022.004.043.026.03.033.004.015 0 .023-.01.018s-.026.01-.026.015c.025.01.032.015.034.018.02-.003.028 0 .033.007s.014.01.018.01c.008.005.018.008.025.01-.003.022-.012.027-.014.028-.007 0-.02.012-.02.018-.027.006-.03.007-.034.015s-.015.018-.028.014c-.014.002-.02-.008-.025-.018s-.02-.027-.028-.02-.005.017-.014.017c-.003.024.003.03.012.03.014-.001.02.005.016.014.007.025.007.028.002.034-.02.007-.023.008-.023.014-.002.014 0 .02-.002.02-.02-.007-.025-.01-.03-.01-.02-.001-.02-.001-.03-.008s-.018-.005-.02-.008c.01.017.014.022.02.026.01.006.012.013.012.018.01-.001.025 0 .027.008-.02.008-.02.013-.022.01s-.018-.006-.03-.01-.028-.006-.035-.005-.014-.003-.02-.007-.013-.007-.024-.003c-.02-.008-.024-.015-.03-.02-.01-.022-.01-.025-.015-.025-.02-.007-.03-.005-.04-.005s-.022.004-.033.008c-.022.007-.042.008-.047 0s.002-.017.026-.03c.014-.008.02-.01.038-.01s.03-.001.042-.004.02-.006.023-.007c-.003-.017 0-.022.03-.035l.028-.017c.02-.008.024-.012.024-.017.003-.025.002-.028-.005-.026-.014.001-.016.001-.022-.003.014.008.017.012.017.014-.024.008-.024.005-.025.004-.02-.003-.023.003-.023.006 0 .012-.058.032-.064.023s.024-.037.053-.04c.013-.003.018-.005.018-.01-.03.001-.033.001-.03-.003-.007-.014-.007-.017 0-.022.013.005.016.006.025.006-.007-.012-.014-.014-.014-.017-.016-.01-.02-.01-.02-.014-.008.01-.013.015-.02.015.02.007-.014.032-.024.033-.002.012-.003.018-.01.02-.01-.013 0-.025.015-.03-.015-.006-.026-.006-.033-.01s-.016-.003-.03.003-.017.014 0 .012c.001.017-.008.025-.016.028-.018.01-.03.022-.025.027-.01.025-.017.03-.02.03-.022.014-.032.018-.037.018-.014.016-.015.016-.024.008l-.016.025c-.016-.007-.023-.018-.026-.015-.008.025-.006.028 0 .03.022.007.038.016.04.025.014.005.02.008.02.01-.033.023-.066.024-.062.014s-.014-.008-.025.002l-.038.02c-.02.014-.035.015-.03.003-.04-.002-.04-.01-.014-.02.008-.004.02-.01.02-.013s.008-.017.025-.032c.01-.015.025-.027.023-.027-.007.001-.035.02-.047.03-.017.02-.064.046-.088.05-.01.003-.023.008-.026.01-.016.007-.023.01-.028.015s-.012.013-.02.016c-.035.007-.038.008-.036.013-.01.01-.02.015-.03.017s-.018.008-.018.012c-.024.012-.038.024-.055.036s-.028.022-.03.022-.045.053-.045.057c.037-.002.04.001.034.018s-.014.04-.01.04.008-.004.02-.007.02-.005.03-.003.02.004.025.005c.013.003.027.014.027.02s.007.008.02.008l.025.008c.005.004.025.004.043.004h.038c.003.002-.01.028-.015.03-.003.015-.005.02-.008.022.02.015.022.017.022.025s0 .01-.026.007c-.007.02-.002.025.003.028.008.024.015.025.028.014.016-.003.02-.002.022-.002 0-.007.005-.013.014-.02s.015-.015.015-.025c.007-.018.01-.024.01-.03.008-.01.008-.018.008-.03.005-.02.013-.022.025-.025.023-.007.075-.036.092-.052a.15.15 0 0 0 .026-.053c0-.008-.018-.024-.026-.023-.005-.007.008-.02.012-.02s.01-.008.023-.018.02-.018.023-.018c.003-.01.003-.016.007-.02-.025-.001-.025-.005-.007-.014s.027-.02.028-.034c0-.005.007-.014.014-.02.01-.01.012-.01.036-.01.052.003.06.003.07-.003.022-.002.035.01.05.014.01.02.02.02.028.02.003.02-.01.052-.01.06s.006.015.024.026c.006.004.01.004.027-.006.008-.006.018-.01.02-.01a.14.14 0 0 0 .031-.027c.015-.014.028-.025.033-.025 0-.006.012-.02.017-.02 0 .03.002.042.007.048s.007.02.007.026.003.015.01.018c-.003.02-.003.026-.002.028.007.004.005.025-.005.027.014.02.018.03.008.036.014-.003.035.003.035.008.025 0 .042.01.033.018s-.002.022.014.025.018.006.007.036c-.003.022-.006.027-.024.036-.01.007-.02.013-.02.014.024-.001.027-.002.022-.004.01.024.007.033.002.026-.001-.002-.007.001-.018.01a.15.15 0 0 0-.017.014c.032.003.037.01.024.012.017.004.02.003.025.003.02-.003.02-.005.023-.002.016.014.018.022.008.025.008.023.003.025-.007.025l-.02.025c.02-.014.026-.02.03-.02-.012.02-.01.022-.008.022.027-.01-.002.033-.02.037-.012-.017-.014-.017-.017-.016.005-.014.015-.014-.1-.01-.06.003-.066-.001-.038-.022.014-.008.017-.012.01-.01.01-.012.013-.014.016-.018.014-.008.018-.01.018-.013s.02-.03.053-.063c.004-.006.013-.014.02-.02-.033.003-.053.014-.07.026-.005.006-.015.014-.02.015a.29.29 0 0 1-.111.02.66.66 0 0 0-.108.013c-.005.003-.015.012-.022.02s-.016.014-.02.014c-.012.001-.047.02-.064.036s-.013.018.01.002c.028-.018.09-.042.116-.045.04-.004.053.02.014.036-.02.01-.023.015-.005.01-.01.02-.02.03-.022.036-.002.014.004.025.016.028-.008-.017-.008-.024 0-.02.02-.012.02-.01.015-.004s.007.013.035.012.026-.003.014.005c-.014.014-.02.017-.022.017-.01-.008-.033-.007-.033-.002-.007.005.033.008.045.004.01.003.023-.008.036-.025.02-.022.028-.027.033-.025-.008.025-.008.027.002.027.007.01-.016.027-.025.027l-.024.017a.45.45 0 0 0-.081.031c-.016-.002-.05.022-.05.03-.014.004-.02.007-.02.008 0 .007-.012.006-.02 0-.003-.03.002-.032.025-.047.016-.008.03-.018.028-.02-.022.004-.03.008-.04.01-.014.005-.032.012-.025.012-.015.01-.027.014-.03.017s-.03.014-.05.023c-.04.015-.068.036-.068.05-.012.015-.014.02-.01.025.015-.003.017-.004.02-.002s0 .02-.01.02c-.014.007-.02.01-.024.008s-.016.001-.03.005-.02.008-.014.008c.012-.001-.013.012-.043.02-.023.005-.026.008-.03.02-.002.008-.013.02-.025.03-.02.017-.023.02-.023.008-.005.024-.007.03-.017.04s-.014.013-.018.01c-.002.004-.003.012-.01.02-.003-.01 0-.02 0-.027-.01.008-.013.017-.016.024.002.02.005.032.005.048 0 .025-.002.03-.012.033-.027.001-.032.004-.027.007s-.003.016-.018.017-.046.02-.05.03c-.024.005-.033.01-.045.024s-.025.023-.03.026c-.057.03-.083.076-.068.127.003.014.007.026.005.03s0 .014.002.03c.006.025.002.048-.012.066a.09.09 0 0 1-.014.024c-.025.001-.027-.002-.027-.01s-.004-.014-.01-.018c-.01-.015-.01-.018-.014-.018s-.01-.02-.014-.043c0-.005.003-.016.007-.022.01-.015.01-.024-.002-.033-.005-.003-.01-.01-.014-.015-.007-.012-.016-.012-.033-.001-.008.01-.026.01-.026 0-.025-.017-.12-.008-.12-.001-.02.02-.02.02-.01.025-.01-.003-.025.002-.028.007s-.018.005-.036.004c-.008-.008-.01-.01-.028-.01-.01.002-.026 0-.027-.001-.01-.01-.035-.001-.1.04-.056.036-.068.047-.07.082 0 .016-.005.027-.01.036-.014.017-.03.063-.038.102.007.023.008.034.01.042s.003.02.008.023.01.01.01.018c.007.023.012.032.025.034.006.001.017.005.024.01.03-.002.063-.01.085-.014.028-.003.046-.017.056-.04.007-.012.012-.022.012-.025.01-.022.02-.026.04-.033s.04-.01.058-.01c.025-.003.027-.002.03.007-.005.024-.005.026-.002.026-.008.018-.017.02-.014.01-.012.015-.012.02-.014.02-.003.013-.007.02-.01.027-.005.02-.01.03-.018.034-.013.02-.017.028-.02.036s-.008.02-.015.028c.012.014.014.014.02.01.022.001.058-.002.064-.006a.13.13 0 0 1 .071.007c.001.003.01.01.02.014l.005.024c.002.005-.002.015-.008.023s-.008.023-.008.036-.004.02-.006.02c-.003.016-.007.025-.01.03.003.022.007.03.01.036.012.01.014.014.014.017.02.014.025.017.023.02.01.006.014.006.02.01.012.01.015.008.048-.008.015-.008.03-.014.033-.014.025.012.034.016.044.024-.007.01-.014.014-.02.018.002.03.001.033-.016.042s-.016.007-.022-.003-.024-.02-.018-.008zm.008-.525c-.012 0-.02.003-.03.01-.022.008-.03.013-.036.017s-.014.008-.02.006c-.003-.02-.003-.02.003-.02.02-.012.03-.02.043-.02l.035-.01c.026-.008.106.003.103.014.01.004.018.005.02.006.001-.008.013-.008.02-.002.013.015.042.034.06.038.012.003.018.006.018.01.02.005.03.01.036.016-.02.02-.117.027-.112.02-.008-.013-.01-.016-.01-.02-.014-.015-.017-.022-.017-.027l-.043-.014c-.012-.005-.025-.008-.03-.008-.014 0-.04-.007-.04-.01zm.275.128c.026.004.045 0 .035-.008-.003-.025-.008-.028-.012-.028.01-.02.013-.02.02-.014s.012.004.028.002c.024-.005.06.002.06.01.016.006.026.01.035.02.018.013.018.014.01.02-.014.012-.02.01-.02.008s-.03-.008-.044-.001c-.015-.004-.023-.001-.033.014-.016.012-.02.008-.023.003-.008-.01-.012-.01-.036-.01-.013 0-.026.001-.025.003-.03-.008-.033-.01-.028-.017s.008-.008.032-.002zm1.297 1.095c-.012.01-.014.014-.03.05-.008.02-.018.034-.022.034-.013 0-.016.013-.016.055l.003.058c.003.035-.003.072-.012.08s-.008.01-.007.03 0 .026-.003.033c-.025.047-.033.068-.032.077s0 .012-.01.017-.016.012-.018.02-.003.01-.028.01-.08.01-.086.018c-.02.008-.025.008-.025.01l-.03.012c0 .005-.036.04-.04.04s-.003.046.002.063c.008.024.002.05-.016.07-.01.012-.013.02-.025.057-.003.014-.008.02-.014.018-.002-.02-.003-.025-.008-.025l-.02.033c-.01.007-.012.016-.01.016 0 .005.014-.002.018-.01-.015.026-.023.034-.025.044 0 .015-.014.038-.018.038-.012.036-.028.045-.066.04-.03-.003-.052-.01-.052-.015-.02-.005-.033-.01-.037-.016-.008.005.002.014.01.02.022.013.033.023.033.035s.005.023.014.023c.02.001.02.036.003.053-.003.027-.064.043-.113.04-.014.006-.016.007-.022.004.004.01.008.016.004.03.013.022.008.036-.004.04s-.032.003-.053-.008c-.008-.005-.018-.008-.02-.008s0 .01.007.025l.01.023c.034-.001.04.001.042.008s.007.02-.002.02c0 0-.01.003-.018.01-.014.017-.01.025-.007.03.007.014.007.02 0 .022-.03.013-.052.037-.04.055.007.013.035.03.05.03s.022.008.024.022c.008.02 0 .025-.008.03-.025.02-.025.02-.018.036s.002.025-.014.026c-.012.022.01.055.026.067.01.018.02.028.03.044a.24.24 0 0 0 .098.059c.013.002.018.003.018.01l-.025.007c-.003.01-.007.01-.03.007s-.025-.003-.018.003c-.01 0-.02-.003-.03-.003s-.02-.005-.02-.007c-.015-.008-.017-.01-.02-.008l-.035-.013c-.013-.003-.02-.003-.03-.013-.02-.015-.024-.018-.022-.02-.008-.016-.012-.016-.017-.016-.018-.003-.027-.014-.036-.014.003-.014-.007-.02-.012-.014 0 .003-.006 0-.018-.013-.007-.027-.014-.03-.02-.03s-.01-.002-.02-.016c-.01-.008-.012-.016-.014-.025s-.007-.018-.01-.018c-.01-.003-.014-.008-.017-.016s-.007-.015-.01-.02c-.01-.008-.018-.025-.018-.032-.008-.003-.015-.016-.015-.025.014-.02.024-.04.015-.04-.008-.01-.014-.012-.02-.015-.017.006-.027.003-.03-.006.008-.016.01-.023.008-.03.003-.013.008-.016.008-.024-.018-.012-.02-.02-.022-.017.003-.014.008-.018.01-.018 0-.02 0-.022.007-.02s.015.006.015.018c.022.008.022.006.017.002s-.007-.01-.007-.022-.006-.03-.008-.036c-.003-.02-.003-.02-.006-.02-.012-.02-.012-.015-.01-.012-.008.018-.008.022-.005.025.01.018.01.022.007.027-.01.017-.025.007-.03-.018-.002-.008-.004-.02-.004-.025.004-.014.003-.018-.002-.023-.012-.01-.017-.045-.014-.063.002-.01-.002-.017-.01-.03s-.012-.023-.012-.025c-.01-.014-.015-.025-.017-.03.01-.006.012-.008.012-.017s.002-.02.003-.03l.008-.09c-.002-.005-.002-.016-.002-.025-.006-.018-.01-.022-.01-.026s-.005-.017-.01-.028c-.006-.017-.01-.025-.006-.042s0-.025-.003-.035-.007-.014-.004-.02c.008-.014 0-.185-.007-.185-.003-.017.001-.02.001-.02a.42.42 0 0 0-.014-.143c-.007-.017-.02-.037-.028-.037-.003 0-.017-.013-.017-.016s-.008-.008-.017-.012S37 17.7 37 17.7a.54.54 0 0 1-.124-.077c-.022-.02-.03-.037-.027-.047s-.024-.05-.035-.056c-.004-.013-.01-.02-.014-.024l-.017-.03c-.007-.007-.014-.026-.025-.042-.005-.018-.02-.037-.023-.044l-.022-.033a.07.07 0 0 0-.031-.031c-.02-.008-.03-.02-.015-.02-.006-.02-.013-.03-.014-.04-.001-.015-.001-.018.017-.034.008-.01.018-.017.023-.016-.005-.016-.012-.024-.02-.03s-.005-.04-.012-.047c.014-.01.017-.017.017-.023.012-.014.014-.02.014-.03 0-.014.003-.015.02-.022s.02-.008.018-.018c.008-.013.01-.02.01-.023s.005-.01.018-.015c.016-.014.018-.016.02-.016s.014-.026.01-.036c.005-.014.003-.085-.003-.098-.022-.023-.027-.04-.02-.047.01-.02.02-.025.02-.026s.01-.015.018-.015c0-.025.025-.06.042-.056.014-.008.02-.01.03-.01s.02-.004.026-.008.014-.01.018-.01c.007-.012.012-.017.02-.02.013-.004.028-.001.028.008s-.01.02-.018.02c-.002.017 0 .02-.002.024l.036-.013c.008-.003.012-.006.012-.018.014-.02.02-.016.02-.003.03.01.05.024.05.036.015.01.026.008.042.008.03-.002.036-.002.036.003s.03.016.045.01c.01-.014.012-.016.014-.016s.025-.002.05-.003c.036-.003.04-.003.032.003-.022.007-.024.01-.022.014.014.005.015.005.02.008.02.005.024.007.024.01.022.01.025.02.017.03.018.01.054.03.07.044.005.005.008.014.008.02.007.01.016.018.028.026.018.018.05.03.056.022s.055-.002.073.007.034.017.05.03c.01.014.024.022.024.02 0-.008.018.02.018.03 0 .018.013.052.018.052s.01.006.017.013.01.015.007.025c-.005.025-.005.03 0 .03.017.014.025.02.035.02.02.003.02.006.01.03-.005.02-.003.028.003.01s.02-.023.033-.022c.02.003.03.007.038.01.014.01.046.023.046.02.01.003.014.007.018.01.003.018.01.025.024.03.003-.008.03-.003.042.006.022.003.03.004.036.008s.016.004.03.002.022-.002.045.01c.014.007.036.024.05.036.036.035.036.036.064.038l.03.007c0 .003.007.02.014.042.01.04.01.07.066.107-.002.014-.038.06-.053.074zm.5-2.992c-.01.006-.017.01-.027.013s-.02.013-.033.024-.03.025-.048.03l-.03.014c-.017.006-.02.008-.024.008-.007.01-.027.007-.038.001-.003.005-.008.008-.02.008-.015.008-.04.024-.047.023.002.014-.002.02-.007.025s-.013.014-.013.017c-.008.01-.02.017-.025.025a.08.08 0 0 1-.023.017c-.007.004-.014.01-.016.018s-.01.02-.018.03l-.018.023c-.01.01-.017.015-.017.02-.007.013-.026.02-.042.016-.023-.007-.03-.01-.03-.014 0-.01-.038-.018-.05-.012-.017-.008-.022-.014-.025-.014s-.01-.01-.014-.02c-.01-.017-.01-.023-.008-.03-.01-.012-.02-.034-.013-.04-.008-.008-.008-.012-.002-.026-.002-.017-.002-.02 0-.023l-.014-.022c-.005-.003.003-.02.017-.025-.007-.016.01-.04.025-.04l.014-.015c.01-.014.014-.015.032-.014s.023 0 .03-.012c.012-.02.012-.033-.002-.03-.02-.006-.024-.008-.025-.006.025.014.02.02-.007.03-.02.007-.026.007-.038.002-.014-.012-.01-.016-.008-.02.007-.018.01-.018.02-.018.008-.012.06-.017.06-.012-.008-.012-.012-.014-.012-.017-.02.013-.024.01-.024.008-.016-.001-.02-.001-.027-.007s-.005-.01.008-.02c-.004-.016 0-.023.013-.024.012-.026.012-.026.002-.023-.01-.02-.006-.02.002-.02.01-.02.01-.02 0-.02s-.018-.014-.008-.014.004-.005-.032-.01c-.03-.004-.097.002-.108.01-.03-.003-.033-.001-.03.002-.046.005-.08-.01-.077-.02-.015-.004-.02-.005-.02-.008s.012-.005.026-.005.024-.003.022-.005c-.014-.002-.024-.003-.03-.005.014-.02.085-.038.15-.05.042-.008.063-.016.063-.025 0-.003-.01-.003-.02-.003-.016-.01.075-.037.1-.04.015-.002.026-.004.033-.01.002-.013-.062.006-.07.01s-.01.004-.022.004c-.005.004-.033.013-.125.04-.003.001-.01.006-.02.01s-.025.012-.038.014c-.053.01-.063.014-.073.026-.004.006-.013.012-.018.013-.014.008-.02.01-.03.01 0 .005-.01.01-.042.017-.012.001-.028.008-.036.012s-.016.01-.023.01c.01.014-.012.027-.03.03-.014.018-.02.02-.027.022.003-.014-.001-.013-.02-.01s-.027.004-.018.001c-.005-.004-.02-.002-.036.001l-.086.012c-.033.004-.057.008-.058.012-.035.008-.013.014.005.012.01-.001.02 0 .025.001s.02-.003.04-.008c.06-.02.124-.023.124-.01 0 .008-.012.02-.028.025-.025.01-.073.02-.078.014a.38.38 0 0 1-.098.014l-.104.01c-.006 0 .003-.02.014-.025.017-.008.015-.01.014-.015s-.045-.003-.045.005c0 .02 0 .022-.008.033s-.017.014-.036.014c-.01.001-.02.003-.02.004-.015-.013-.017-.015-.012-.018-.01-.006-.015-.003-.02.001s-.014.01-.036.014c-.03.005-.033.005-.033-.002-.035-.002-.056-.008-.05-.014-.008-.001.004-.02.016-.024s.033.004.026.01c.008-.003.016-.008.03-.014.03-.012.06-.018.056-.01.02-.008.022-.008.03-.003l-.02.032.03-.008c.016-.003.032-.008.034-.01s-.003-.023-.012-.022c.012-.014.053-.022.055-.02.022 0 .027.001.03.004s.008.001.022-.002.02-.005.028-.001c.005-.006.02-.015.025-.013s.01-.002.025-.007.03-.008.035-.008c.007-.012.008-.016.014-.018.014-.006.045-.008.048-.003.028-.008-.003-.01-.063-.003s-.058.008-.068-.002c-.02-.015-.022-.02-.022-.026s.002-.012.02-.02c.012-.005.022-.01.03-.012.01-.008.017-.01.027-.01a.09.09 0 0 1 .042-.014c.014-.003.022-.002.03.003s.012.008.02.008c.02.003.024-.001.03-.002-.014-.005-.023-.01-.023-.012-.018-.012.014-.02.064-.03.02-.003.045-.01.06-.014s.03-.008.043-.006.023-.001.037-.007c.03-.014.08-.022.24-.04l.16-.01c.003.003.01.004.022.003.018-.001.024.004.013.01-.003.002.003.001.02-.003l.082-.014c.047-.007.053-.007.053.001.01-.008.03-.01.052-.004.006-.01.008-.012.024-.013.008-.012.016-.012.025-.005.02.002.026.003.028.004.014-.013.025-.014.03-.016l.075-.012.123-.014c.08-.01.22-.014.24-.008a.24.24 0 0 0 .05.008c.033.003.04.004.028.008-.02.006-.022.008-.02.012-.016.02-.014.02.01.01.013-.005.02-.01.018-.013.014.008.017.01.022.01.018-.013.02-.01.018-.01-.006.007.014.01.024.003.003-.003.018-.004.056-.004.063.001.075.007.028.017-.017.003-.03.01-.035.01-.025.004-.032.007-.032.008-.022.01-.03.014-.033.017a.05.05 0 0 1-.022.008c-.028.005-.035.008-.023.012-.002.017-.003.018-.02.017s-.02-.001-.027.007c-.013.01-.01.02.002.008.012.003.02.008.025.008-.017.01-.02.01-.017.012.03.003.035.006.037.01-.008.008-.014.014-.018.022-.006.015-.01.02-.008.005-.003-.015-.007-.017-.02-.02-.024-.002-.03.003-.015.012s.017.03.003.04c-.003.014.018.01.014.008s.003-.02.017-.02c.02.008.025.01.02.012-.014 0-.02.003-.022.006-.007.006-.04.023-.048.022-.023.003-.023.004-.02.004.014.003.004.02-.014.02-.023.001-.033.006-.03.015.003.02-.013.028-.027.026.018.012.02.014.018.03 0 .01-.002.02-.005.023s-.053.003-.056-.002c-.005-.018-.008-.02-.02-.02-.01.02-.013.02-.024.022s.02.007.058.008H38.958c-.01.005-.018.01-.03.014a.26.26 0 0 1-.035.015c-.002 0-.01.005-.02.01-.022.01-.1.03-.15.042-.015.004-.022.004-.001-.007zm.136.108c.047-.02.042-.03.006-.025-.023.003-.025.003-.018-.004.017-.007.02-.01.02-.014.015-.008.02-.012.026-.015.008-.01.007-.01.025.002.013.007.018.012.016.017.022.004.025.001.025-.005.02.005.02.005.025-.002s.01-.008.03-.01l.04-.001c.01-.014.024-.017.03-.01.033-.002.035-.002.026.005 0 .014.003.018.012.02s.014.01.014.014c0 .01-.03.03-.057.04l-.066.024c-.02.008-.058.008-.075 0-.01-.003-.023-.003-.035-.003s-.02 0-.02-.004c.024-.007.027-.014.02-.024-.005-.004-.038-.008-.044-.004zm2.258 3.06c-.02 0-.025-.003-.028-.007.01.053.008.056.003.056s-.008.003-.014.036c0 .008-.007.036-.02.06l-.02.065c-.002.012-.01.03-.014.038s-.012.028-.016.04-.01.03-.012.034c-.008.03-.023.048-.036.05-.007 0-.015.004-.02.008-.012.007-.032.01-.032.003-.018-.003-.03-.015-.03-.025-.01-.014-.01-.022-.01-.034s0-.025-.005-.03c-.007-.02-.003-.06.013-.072.002-.002.008-.015.017-.03.014-.025.014-.026.008-.056-.01-.05-.01-.06 0-.075.005-.008.01-.018.01-.025.016-.012.023-.014.025-.016l.022-.01c.025-.01.055-.032.055-.042.014-.014.018-.02.02-.02.002-.028.003-.03.015-.03.02-.004.023-.008.025-.026.002-.008.005-.02.008-.025.01-.01.028.027.035.046a.22.22 0 0 1 .003.035c0 .01.005.024.007.03s.003.01-.008.022zm1.503-1.167c-.014-.014-.014-.025-.012-.034.002-.025.002-.035-.008-.05-.007-.02-.014-.027-.02-.02-.008-.017-.01-.022-.008-.025s-.008-.016-.018-.014c-.008-.005-.016-.014-.025-.023-.02-.02-.028-.036-.018-.05 0-.01-.008-.02-.012-.02-.017-.012-.017-.007-.015-.003s-.014.02-.03.02c-.007 0-.016.001-.025.003-.025.006-.042.006-.045 0-.02.001-.028.003-.03.004-.003.033-.003.037-.016.046-.005.006-.017.014-.025.017a.07.07 0 0 0-.031.025c-.016.02-.058.06-.07.06-.002.024-.014.034-.03.033-.012.02-.014.02-.025.02-.02-.005-.02.007-.012.053.007.03.007.066-.002.075s-.005.04-.002.06c-.017.012-.02.014-.024.023-.006.017-.006.02.002.02-.015.003-.03.01-.033.023s-.018.026-.035.02c-.01-.006-.035-.04-.035-.053s-.022-.063-.04-.086c-.006-.013-.016-.033-.02-.047l-.015-.04c-.008-.008-.016-.03-.026-.047l-.02-.054-.025-.092c-.003-.01-.003-.02-.002-.03s0-.02-.005-.028c-.003-.02-.003-.022-.007-.022-.002-.017-.003-.02-.005-.02-.007 0-.01.016-.005.02.01.008-.025.036-.047.036-.01 0-.07-.058-.07-.066.022-.002.03-.003.04-.01-.023-.002-.042-.01-.06-.03-.006-.008-.016-.013-.02-.014s-.018-.013-.023-.028c-.02-.012-.02-.015-.02-.02 0-.012-.01-.014-.043-.01-.02.001-.036.001-.047-.002-.018.003-.025.003-.036.002-.018.005-.057.003-.075-.003s-.03-.008-.064-.01c-.042-.005-.058-.015-.063-.036-.005-.01-.007-.02-.01-.024s-.02-.008-.018-.002-.007.014-.025.014c-.023.006-.028.005-.035.002-.015-.002-.022-.006-.03-.008-.014-.01-.025-.015-.03-.022s-.02-.015-.028-.02-.02-.01-.03-.027-.015-.023-.017-.024c-.005-.008-.01-.018-.016-.026s-.013-.013-.018-.012c-.025-.007-.028-.004-.043.01-.024.007-.024.008-.015.01.008.01.025.054.033.054.002.01.007.015.012.017.017.01.02.012.02.014l.022.023c0 .012.007.014.012.016-.014.007-.012.012-.002.025.017-.023.025-.026.035-.02s.01.042.003.056c.007.01.014.014.02.02l.022-.01c.005.007.012.008.02.01.017-.003.02-.004.024-.003a.3.3 0 0 0 .069-.066c.007-.018.014-.013.014.015 0 .042.02.067.06.075.02.005.035.014.035.024.014.02.02.022.025.022.01.016-.002.037-.014.053s-.016.022-.008.02c-.005.02-.008.022-.014.017-.013-.014-.018-.006-.018.022s0 .027-.01.027-.028.01-.028.02-.007.017-.025.02c-.012.001-.015.003-.017.012 0 .015-.007.022-.025.02s-.018.002-.053.015c-.017.007-.026.016-.023.027s-.02.02-.062.035c-.027.008-.042.017-.05.024s-.01.012-.02.012c-.02.01-.053.02-.068.02-.01 0-.02.004-.03.014s-.016.014-.02.01c-.012.005-.02.005-.03.003-.015-.002-.02-.01-.02-.032-.002-.008-.014-.06-.02-.065-.003-.02-.022-.04-.025-.036-.018-.013-.02-.014-.018-.016-.003-.01-.008-.02-.005-.023.022-.001.027.003.025.006.01.006.014.012.018.016l-.01-.026c0-.004-.008-.014-.017-.023s-.018-.02-.018-.02c-.014-.014-.018-.022-.018-.03s-.003-.015-.01-.02c-.01-.01-.016-.015-.025-.02s-.014-.013-.015-.017-.008-.01-.015-.014c-.008-.02-.01-.025-.014-.03s-.005-.01-.003-.022l-.008-.03c0-.003-.005-.01-.01-.018-.005-.02-.007-.02-.008-.02-.02-.01-.038-.035-.035-.038s-.007-.025-.018-.036c-.003-.006-.01-.017-.018-.027s-.012-.02-.016-.025c-.008-.017-.01-.02-.014-.018-.02-.014-.027-.01-.03-.008-.018.007-.05-.03-.05-.037-.014-.023-.02-.04-.025-.057l.007.03c.005.018.013.03.02.042s.016.022.018.027.006.014.01.02l.018.04c.004.01.015.03.022.044s.017.03.024.036c-.008.01.004.043.025.062.01.01.02.018.02.018.002.017.005.025.01.03s.005.02.007.036c0 .044.008.058.035.076s.028.03.042.08c.002.01.008.023.013.027.013-.013.016-.013.023-.003-.002.025.002.028.007.027l.027.012c.003.002.01.01.018.016l.023.024c.004.006.014.02.026.03.023.023.023.036.005.044.007.01.016.017.02.024.018.027.035.034.058.02.01-.006.017-.007.03-.006s.017 0 .026-.007.015-.008.022-.006c.024-.006.033-.007.036-.007.01.005.048-.008.058-.018s.026-.004.025.008 0 .04.003.04c-.012.013-.012.018-.012.028s-.007.025-.014.037-.012.025-.012.026a.27.27 0 0 0-.036.075c0 .004-.008.02-.016.03l-.018.028c-.002.013-.07.1-.095.104a.43.43 0 0 0-.117.127c-.01.015-.033.042-.048.05-.017.03-.036.078-.04.08s-.02.045-.02.054c0 .004.007.014.014.022s.014.016.01.023c-.008.01-.002.02.008.02-.013.013-.014.02-.004.057.006.025.01.032.018.036.015.006.014.003.012.077a.4.4 0 0 0 .005.077c.005.014.005.022-.002.036s-.035.06-.047.067-.025.015-.042.02c-.023.01-.037.024-.054.047-.008.017-.013.018-.017.018-.012.001-.053.047-.053.058.008.012.01.02.013.03.01.014.012.018.012.023.002.017.002.053-.005.067.003.018 0 .025-.005.036-.01.01-.02.02-.043.03s-.036.02-.04.026c-.012.012-.014.023-.007.018s.005.027-.003.053c-.008.035-.02.053-.022.053s-.037.03-.037.037-.03.053-.047.07l-.028.028c-.024.03-.07.06-.093.065-.018.01-.02.013-.028.013-.02.005-.028.007-.04.003-.023-.003-.056-.002-.07.008-.007.003-.02.008-.03.008s-.02.003-.025.008c-.014.012-.02.012-.033 0-.017-.01-.02-.014-.02-.015-.01.01-.02 0-.016-.016-.008-.02-.016-.035-.014-.04.016-.005.018-.008.014-.026-.002-.01-.005-.023-.007-.023-.008-.005-.02-.036-.033-.07-.005-.02-.014-.038-.024-.05-.025-.026-.03-.04-.04-.086l-.012-.064c-.004-.014-.006-.036-.008-.054 0-.026-.003-.036-.01-.053-.007-.01-.015-.027-.02-.037-.02-.047-.038-.09-.042-.09a.21.21 0 0 1-.014-.113c.001 0 .014-.042.018-.07.002-.022.023-.058.033-.06s.016-.022.016-.045c0-.014-.003-.032-.014-.058-.017-.036-.017-.038-.008-.044s.008-.007.002-.03a.21.21 0 0 0-.019-.048c-.008-.014-.01-.028-.008-.03-.005-.008-.008-.014-.008-.02a.41.41 0 0 0-.063-.108c-.006-.008-.02-.024-.024-.034s-.013-.025-.016-.03c-.005-.014-.008-.027-.002-.023s.014-.005.018-.025c0-.012.002-.025.003-.03-.003-.01-.003-.018.002-.028.014-.023.018-.067.01-.075-.008-.014-.013-.02-.016-.02-.014-.02-.018-.022-.03-.02l-.033.003c-.01.002-.023.004-.033.004s-.015.001-.025-.007-.012-.014-.012-.017c0-.01-.014-.04-.026-.05s-.015-.008-.042-.008c-.043.001-.078.008-.08.018a.49.49 0 0 0-.095.04c-.06-.016-.125-.015-.17.006s-.056.016-.11-.033-.07-.06-.088-.07c-.013-.005-.02-.01-.018-.014-.013-.022-.016-.03-.016-.05 0-.008-.007-.02-.022-.036-.01-.014-.02-.025-.02-.027-.014-.014-.015-.017-.02-.017-.012-.02-.018-.026-.02-.026.006.016.006.02-.002.024s-.012.007-.018-.01c.014-.004.013-.01-.003-.026-.01-.01-.013-.015-.013-.033 0-.012 0-.023.003-.025-.002-.013-.007-.022-.01-.03-.015-.012-.017-.014-.017-.017.014-.003.035-.042.035-.055 0-.007.005-.022.008-.035.012-.027.014-.067.005-.08s-.007-.032 0-.032.005-.012-.007-.023c-.02-.008-.022-.01-.02-.018l.007-.028c.002-.01.007-.02.012-.023s.01-.017.018-.032.014-.03.018-.036c.018-.018.03-.036.03-.047 0-.02.023-.056.035-.056.002 0 .01-.01.017-.022.01-.025.016-.033.026-.033s.036-.012.048-.022c.003-.004.013-.014.023-.022s.018-.015.018-.018c.01-.014.012-.027.012-.045 0-.023.002-.03.013-.042.005-.008.008-.018.008-.022 0-.01.028-.036.053-.05s.038-.026.053-.063c.006-.014.014-.027.016-.028a.07.07 0 0 0 .069.022c.01-.001.026-.002.028 0s.018.005.03.004c.002-.001.01-.006.018-.013s.014-.01.017-.01c.014-.006.015-.007.022-.005.005-.013.035-.022.087-.03.063-.01.073-.01.085-.003l.03-.006c.014-.01.017-.01.028-.004.018-.002.023-.003.025-.002.013.008.035.008.052-.003.025-.007.04 0 .042.008.018-.005.025-.005.025.003-.006.008-.008.014-.01.02-.013.01-.01.02.003.026.008.004.01.008.008.023.004.02.003.02-.002.02s-.012.003-.02.01-.014.013-.01.02.018.01.018.004c.005.004.017.018.036.027.013.005.025.008.04.008a.11.11 0 0 1 .038.007c.007.004.017.01.025.012s.014.01.015.018c.005.018.018.028.033.028s.048.01.066.025c.007.007.02.013.023.013.014 0 .035-.025.027-.036s-.007-.034.01-.046c.02-.018.062-.028.07-.016.02.004.025.008.025.013s.025.02.05.02c.01 0 .016.003.018.01.025.005.057.012.073.02.005.003.017.007.03.01l.027.008c.038-.025.09-.03.103-.014.003.003.007.013.008.025 0-.016.002-.018.016-.02.007-.002.02-.002.025-.002.014 0 .025-.013.03-.04s.02-.075.028-.082 0-.034-.007-.04c.003-.02.003-.025 0-.028.013-.022.008-.026-.005-.017-.03-.005-.036-.004-.047.008s-.046.02-.06.007c-.02-.02-.056-.032-.054-.02.002.018 0 .02-.018.02-.01.001-.018-.001-.026-.008s-.03-.017-.03-.01c-.015-.002-.02-.003-.023-.001-.024-.012-.025-.014-.014-.018.003-.01-.003-.015-.008-.02-.02-.02-.025-.026-.026-.033.016-.01.013-.018.013-.02-.002-.018-.003-.02-.008-.02-.014.001-.017-.002-.017-.012-.01-.012-.014-.014-.014-.017.016-.007.037-.008.058-.008.042 0 .06-.005.05-.017s.003-.015.036-.012c.023.003.033.003.038-.001.013-.015.04-.026.075-.028s.036-.002.046.006c.024.005.03.007.032.014l.026.01c.025.005.03.006.03.008s.02.004.045.004c.06 0 .08-.013.065-.045-.006-.012-.016-.02-.035-.03s-.027-.018-.035-.024c-.01-.013-.014-.014-.023-.02l-.03-.016c-.02-.007-.027-.01-.03-.015-.02-.02-.024-.02-.024-.013l-.034.01c-.02.003-.028.007-.028.01-.03.003-.033.001-.03-.008-.02-.02-.025-.02-.03-.023s.013-.018.018-.018c-.03-.008-.054-.014-.054-.022-.02-.007-.024-.004-.024-.001s-.007.01-.014.02-.016.02-.016.025-.003.014-.01.017-.015.008-.017.028-.003.02-.01.023c-.01.018-.01.024-.014.027-.008.006.01.042.026.05.008.015-.001.018-.01.018s-.018.002-.023.008c-.012.01-.025.014-.04.005-.005-.004-.014-.01-.025-.012-.02.01-.034.015-.034.007.007.023.003.028-.008.017-.008.02-.014.014-.03.003-.017-.003-.004.025.001.025.013.023.018.027.023.028.02.02.034.035.034.028.02.015.02.017.013.024-.007-.006-.01-.013-.014-.016-.023-.01-.023-.01-.02-.001-.02.005-.02.007-.017.014-.012.01-.02.007-.024.004.014.03.015.052.007.052-.007-.018-.007-.023-.013-.023-.012-.003-.014-.003-.023-.002s-.014 0-.017-.014-.018-.04-.018-.027c-.015-.007-.017-.013-.02-.014.005-.026.005-.035-.002-.042-.022-.008-.028-.023-.02-.025-.02-.02-.02-.02-.02-.047 0-.01.002-.018.003-.028l-.022-.018c-.014-.01-.026-.018-.03-.018a.06.06 0 0 0-.029-.009c-.006-.008-.015-.013-.022-.018-.022-.01-.043-.028-.038-.03-.008-.015-.008-.02-.005-.026-.01.014-.01.016-.014.014-.005-.02-.005-.02-.01-.015s-.01.003-.018-.014c.01-.02-.002-.02-.02-.014s-.02.014-.004.02c-.007.02-.001.033.018.044s.025.02.027.033c0 .004.008.015.018.025s.017.017.033.018H39.95c-.002.015 0 .02.026.033.04.02.054.033.05.047-.02-.003-.024-.008-.024-.01-.024-.007-.03-.005-.035.004.022.026.024.044.01.047-.01.025-.028.042-.04.037-.014.015-.014.025-.013.028.003.01-.006.024-.018.02-.015-.012-.02-.014-.024-.014-.01 0-.053-.024-.053-.032s.008-.013.035-.01c.03.002.075-.008.075-.018.007-.01.007-.02.002-.032s-.01-.02-.02-.025c-.012-.017-.015-.02-.02-.02s-.01-.005-.02-.013c-.003-.008-.013-.013-.02-.013s-.055-.033-.055-.04c-.014-.003-.018-.006-.018-.01-.014-.017-.015-.017-.02-.012 0-.012 0-.014-.005-.023-.006-.025-.045-.042-.053-.038-.014.015-.022.02-.03.02s-.017.01-.025.017c-.018.014-.028.016-.044.006-.024-.017-.075-.01-.075.014.016.023 0 .042-.022.054-.012.007-.028.012-.03.012-.008 0-.035.03-.053.054-.007.013-.007.022.005.03-.003.016-.007.02-.01.02s-.01.008-.014.017c-.003.014-.01.018-.02.02s-.015.008-.02.017-.01.014-.016.014h-.035c-.026.002-.053.01-.063.023s-.027.003-.033-.017-.02-.025-.036-.02c-.007.002-.02.003-.03.003-.02.001-.02 0-.018-.01.005-.02.005-.042 0-.042-.015-.012-.015-.017-.012-.025.016-.03.028-.07.026-.102 0-.018-.003-.036-.005-.042-.004-.013 0-.025.014-.025.027-.017.042-.02.047-.014.003.002.014.003.026.003l.124.006c.014.004.026-.005.03-.022a.31.31 0 0 0 .01-.069c-.008-.017-.008-.02-.008-.02l-.018-.02c-.015-.025-.033-.03-.027-.02-.004-.01-.023-.02-.03-.016-.02-.006-.02-.03-.01-.033s.046-.01.05-.007.012.003.022.003c.018 0 .02-.003.01-.033.016-.005.023 0 .026.003.012.008.026.007.03-.003.003-.004.013-.012.024-.014s.017-.007.02-.02.007-.017.025-.023c.033-.013.063-.04.068-.064s.023-.03.044-.028c.006.001.016 0 .024-.004s.015-.005.027-.003c.02.003.03-.005.023-.018s-.01-.012-.012-.017c.007-.014.005-.02 0-.027-.02-.02 0-.066.02-.066.02-.01.026-.014.03-.014.015-.008.017.02.01.02.015.016.02.028.01.03-.017.014-.02.02-.017.02s.028-.003.028-.008.025-.01.033-.01c.012-.014.007-.022-.003-.032s-.018-.02-.018-.02c-.014-.02-.018-.03-.018-.038-.012-.018-.015-.024-.015-.027-.003.006-.01.014-.023.02s-.025.014-.033.02c-.02.014-.047.014-.068-.001-.01-.008-.018-.014-.018-.02-.01-.01-.01-.036-.003-.04-.01-.008-.01-.012-.01-.04s0-.035.014-.043c.02-.004.02-.005.02-.007.02-.01.024-.01.024-.014.026-.01.028-.012.026-.017.007-.003.014-.005.018-.01.022.005.024.004.04-.013.01-.008.02-.018.024-.02.02-.01.035-.026.035-.042.014-.015.02-.018.02-.02s.008-.01.02-.02.022-.02.022-.025c.014-.015.008-.015 0-.014-.014.002-.022.003-.032.007-.018-.005.014-.018.04-.013.002-.01.003-.013.02-.02.023-.012.03-.012.023-.003.02.002.02.002.017.006.01-.02.01-.018.01-.014.03-.012.03-.012.03-.02 0-.012.03-.015.04-.005.025-.003.047-.008.043-.014s.017-.008.035-.008c.01.01.014.008.02.002.023-.005.028-.006.03-.008.028.004.033.01.033.014.02-.01.022-.013.03-.012.016.006.02.008.02.006a.15.15 0 0 1 .06.018c-.018.01-.022.013-.028.014a.17.17 0 0 0 .044.003c.005-.005.036.003.036.008s.017.008.042.012.05.013.06.017c.023.01.033.015.036.015.024.013.034.015.034.014.006-.003.04.014.046.024.013.014.012.024-.005.034-.026.02-.055.018-.147-.005-.027-.006-.036-.007-.036-.003.035.015.046.024.04.035l.012.03.03.016c.025.014.05.016.048.004-.025-.008-.03-.01-.03-.012-.018-.005-.02-.018-.008-.023.025.003.04.01.054.014.03.01.04.006.023-.01-.008-.014-.003-.018.003-.02s.014-.01.02-.01.01-.005.02-.013c.016-.001.02.002.026.003.03.01.03.01.035.006.007-.01.003-.018-.01-.024s-.012-.008-.012-.025-.002-.02-.014-.024c-.025-.006-.01-.01.024-.005.027.004.035.007.048.018-.02.018-.03.03-.017.03.02.014.04.018.054.013.006-.02.02-.03.033-.03.006 0 .015-.004.027-.008s.023-.01.033-.01c.005 0 .017-.003.023-.006s.017-.004.03-.004c-.003.005 0 .02.014.02.02-.005.03-.005.044-.005s.022 0 .024-.001.01-.003.023-.004c.025-.008.033.006.03.014.012-.003.014-.004.022-.003-.002-.02-.038-.038-.043-.036-.024-.015-.025-.02-.02-.023s.008-.002.025.007c.026.014.028.014.078.022s.08.02.103.043c-.02-.02-.014-.02.033.002.02.01.035.014.036.014-.012-.018-.022-.025-.03-.03-.026-.007-.037-.018-.037-.032 0-.008-.002-.014-.012-.018-.016-.006-.016-.016.002-.023s.015-.008.015-.024c0-.01.003-.02.006-.022.003-.02.035-.015.047-.005.03.017.042.02.047.027s.008.025.002.03c.02.013.03.023.03.034.002.004.006.014.013.024l.013.02c0 .003.007.01.018.015s.02.01.02.024-.01.02-.014.03-.01.016-.016.014c.028.014.03.013.03.008.024-.01.028-.012.028-.02.01-.02.01-.022-.002-.03-.015-.014-.012-.023.01-.026-.04-.004-.05-.006-.05-.01-.018-.018-.02-.022-.018-.033s.002-.015-.02-.03c-.014-.008-.022-.017-.02-.018.007-.01.014-.013.02-.014.007-.014.007-.018.007-.02-.03-.01-.034-.013-.03-.016l.03.008c.008.001.026.02.026.028 0 .014.012.025.034.03s.022.004.006-.003c-.005-.003-.02-.01-.022-.014.025-.01.028-.01.015-.013.062.001.087.01.1.018.005.004.018.008.026.008 0-.01-.008-.012-.02-.015s-.024-.008-.03-.015-.012-.015-.02-.02c-.002-.01.01-.01.024-.01.044.004.058.003.05-.004.016.01.053.012.048.005-.014-.004-.022-.008-.028-.012-.02-.002-.02-.008-.02-.01.003-.008.017-.008.02 0 .015-.014.022-.014.03-.012s.014.002.02-.001.023-.005.04-.004.033-.002.036-.003c.008-.008.094-.002.092.005.024.003.03.001.03-.001s.01-.002.024 0 .02.002.014-.004-.002-.02.01-.022.076.01.087.02.032.013.027.006c.013-.003.02.01.017.02l.075.008c.045.007.055.012.063.018s.017.013.014.004c.02.01.02.01.016.012.02.001.04.02.035.03-.002.003-.01.008-.024.01-.025.007-.038.013-.042.018l-.03.004c-.003.005.02.008.042.006.007-.015.007-.016.014-.017.024.003.03.003.03-.002s.003-.008.02-.005c.013.002.02.005.02.008 0 .008.03.03.038.027a.87.87 0 0 1 .122.019c.007.012.02.015.055.016.044.01.082.018.082.016-.014-.013-.02-.018-.02-.02.013-.005.015-.004.03.001l.03.01.025.008a.15.15 0 0 1 .088.037c.01.007.017.014.027.022a.27.27 0 0 0 .075.047c.018.006.018.008.006-.022.022.004.033.008.044.012s.024.008.03.007.022.002.04.003l.036.007c.005 0 .014.003.023.005-.008-.014-.012-.015-.02-.016-.017-.014-.014-.014 0-.012-.01-.015-.01-.015.08.008.083.022.094.027.09.03.018-.005.107.02.1.03-.003.004.01.008.04.018.014.003.03.01.038.015.014.008.032.01.087.02s.075.014.1.024c.036.016.056.028.056.035s.036.02.053.022c.006.001.09.02.124.027.02-.007.025-.006.05.003.008.008.016.01.018.01.02.018.032.024.036.026a.13.13 0 0 0 .031.008c-.006-.003-.013-.008-.018-.012s-.017-.012-.02-.012-.01-.007-.017-.014c.005-.003.06.01.116.025l.08.023a3.32 3.32 0 0 1 .292.124c.018.01.032.015.053.02.033.008.11.038.13.053.01.014.012.015.017.015-.022.003-.022.003-.012.014.016.01.02.012.016.014.018.01.02.01.012.012s-.02-.001-.018-.007c-.008.003-.01.003-.035-.01l-.036-.014c-.007-.001-.02-.01-.033-.017-.018-.01-.027-.015-.054-.02s-.036-.01-.056-.022c-.012-.01-.026-.014-.026-.013s.005.007.017.01c.024.01.03.02.018.027-.01.012.04.045.058.053.007.003.015.008.018.012s.013.008.018.01c.013.018.008.018-.002.014-.035-.014-.052-.018-.06-.014-.02.007-.025.008-.033.008l-.03.024c0 .025-.005.024-.03.01-.035-.02-.077-.027-.077-.014-.025-.01-.044-.016-.036-.008-.014-.003-.017-.003-.022-.001-.024-.003-.024 0-.013.01s.01.015.01.023c-.004.014.013.032.03.032.01 0 .028.01.028.017s.022.027.032.03.03.023.025.025c-.038-.018-.026.006 0 .026.008.007.016.015.018.02-.03-.003-.03-.003-.035.003s0 .01.018.025.02.016.01.014c-.026-.002-.026.01-.018.015s.015.026.005.036c-.025-.005-.036-.015-.043-.02l-.03-.028c-.013-.01-.028-.024-.04-.033l-.04-.037c-.054-.045-.075-.073-.073-.088.002-.005-.002-.01-.01-.02.025-.01.032-.025.03-.04.007-.018.007-.023.007-.03.02-.02.025-.032.014-.033s-.03-.03-.025-.033-.01-.01-.02-.01c.01.02.017.026.02.025-.017.005-.02.008-.025.017-.012.014-.016.012-.02.006-.018-.008-.036-.025-.036-.032-.018-.01-.03-.01-.033-.012l-.026-.004c-.015-.002-.017-.002-.02.01 0 .007-.002.017-.004.02-.008.016-.006.02.014.03.03.013.035.017.02.018-.008.001-.02-.001-.025-.003-.014.003-.025.002-.06-.005-.015-.002-.02-.007-.014-.01-.014-.012-.02-.014-.023-.014s-.026-.007-.044-.014c-.003.013-.005.013-.038.005-.02-.003-.036-.004-.035-.004a.4.4 0 0 0-.103-.018c-.01.017-.013.02-.018.02 0 .018.002.022 0 .02s-.025.03-.02.034 0 .014-.018.03-.02.017.02.027c.02.004.024.008.033.02 0-.017 0-.02.003-.02-.022-.004-.037-.01-.035-.01l.025-.002c.007-.003.025.01.023.02.005.02.01.022.014.022.008.014.01.018.013.018s.013-.014.008-.02.035.002.052.01c.006.005.023.015.04.024s.027.018.027.02c0 .007.023.032.026.03s-.01-.025-.02-.032c.01-.018.01-.018-.007-.026.003-.013.01-.007.026.01.005.007.015.012.018.013s.022.02.03.035c.004.006.027.027.047.047l.056.054.033.026c.008.004.017.01.017.012s-.003.003-.02-.01-.044-.02-.038-.01l.01.025c.002.008.01.02.018.025l.022.018c.02.012.036.028.036.036-.01-.007-.02-.014-.03-.015-.008.015-.006.02-.005.025-.006-.004-.01-.008-.016-.014s-.014-.018-.018-.025c-.012-.014-.017-.02-.02-.028s-.012-.02-.018-.025-.017-.02-.022-.03-.016-.025-.026-.033-.017-.02-.017-.023a.14.14 0 0 0-.047-.039c-.016-.003.001.04.02.053.014.017.022.03.028.04.008.017.01.024.007.03s-.005.025-.005.043-.002.035-.004.036a.14.14 0 0 0-.018.051c0 .01-.025.03-.042.033s-.045-.01-.045-.018c-.016-.002-.018 0-.02.006-.012.017-.014.018-.018.018-.01-.003-.01.015-.003.03s.007.012-.006.023c-.004.007-.016.014-.022.018-.003.02.008.028.015.032a.28.28 0 0 1 .027.02c.004.006.015.018.03.03.024.02.05.06.05.075 0 .01-.016.024-.026.02-.02.003-.025.004-.027.008-.036 0-.038 0-.038-.008-.01-.015-.01-.034-.006-.037s-.002-.01-.02-.027-.017-.02-.008-.02c-.014-.023-.02-.025-.02-.024-.014-.005-.018-.005-.02-.003s-.025-.008-.025-.012c-.008.004-.008-.003-.008-.02s-.002-.027-.01-.03l-.025-.008c-.005-.003-.016-.003-.03-.004-.018-.001-.022.002-.038.014-.008.007-.02.013-.02.013.003-.02.003-.02-.003-.025s-.01-.01-.003-.023.002-.02-.017-.025c-.01-.004-.02.002-.02.01-.022.014-.03.022-.03.028s-.017.014-.03.01c-.01.018.008.03.027.032s.025.01.027.022c.022.017.024.017.03.01.002-.014.026-.014.035-.008s.017.007.03.008c.024.006.028.007.028.02-.025.007-.03.01-.042.016 0 .004-.003.01-.018.02-.008.005-.014.014-.017.018-.002.01 0 .01.018.022s.042.03.06.058c.035.028.05.042.05.046-.025-.003-.02.007-.005.01.022.016.02.02.005.023s-.025.015-.008.013c.026.013.03.013.033.005.008.03.007.036.003.036.002.012.002.02 0 .03-.015.003-.022.01-.022.024s-.008.017-.008.02c-.015.02-.01.037-.003.034-.01.015-.02.023-.027.02.003.008-.007.02-.014.02s-.01.005-.017.01-.014.01-.017.012-.014.005-.016.012-.014.013-.03.01c-.01.001-.018.002-.027.006s-.02.01-.02.01c0 .008-.015.002-.02-.01 0 .012-.008.02-.014.017-.01.013-.014.013-.03.008h-.024c-.02.006-.023.007-.027.007-.014.01-.014.014-.012.02.008.01.003.02-.007.02s-.025-.03-.02-.04c-.01-.006-.02-.006-.025-.008-.013-.005-.044.003-.042.01-.016.013-.02.014-.02.013l-.025.026c-.007.034-.005.04.007.052.01.007.018.015.018.018s.05.053.063.056l.022.025c.008.008.014.016.014.018s.003.012.008.02.01.02.01.03a.06.06 0 0 0 .007.02c-.002.014-.003.02-.002.024.003.015-.002.036-.008.036-.033.02-.055.03-.064.03-.007.01-.015.015-.022.02l-.035.032c-.02.008-.024-.036-.015-.04-.006-.008-.014-.013-.02-.016-.008.012-.017.014-.017.005l-.01-.016c-.02-.002-.022-.003-.022-.006 0-.01-.003-.02-.008-.028s-.01-.014-.016-.013c-.01-.014-.025-.02-.044-.022s-.015-.002-.015-.016-.002-.015-.014-.015-.012.002-.014.025c-.002.013-.005.034-.01.046-.008.026-.012.06-.007.067s.02.003.02-.008c-.002.01.003.035.01.04s.008.014.01.025c.01.022.02.033.033.03.005-.002.01.001.018.01.02.01.055.046.06.057.002.006.007.025.007.04 0 .025 0 .03.013.042.007.007.012.02.012.024-.005.02-.003.02.006.02s.02.007.014.013-.01.012-.018.012c-.014-.01-.016-.013-.014-.017-.013-.01-.023-.02-.058-.04-.023-.014-.033-.023-.033-.03s-.005-.014-.012-.02-.012-.018-.014-.027-.007-.018-.01-.02-.003-.01-.003-.02-.002-.02-.005-.025c-.02-.003-.02-.004-.016-.007s.008-.005-.005-.02c-.008-.008-.015-.02-.015-.02-.01-.012-.02-.014-.03-.007s-.012-.03-.008-.047c.007-.022.005-.05-.003-.054.02-.013.014-.025.003-.025s-.017-.006-.017-.014c.017-.012.017-.017.015-.017.005-.01.005-.01 0-.03-.017-.013-.02-.017-.02-.023s-.003-.014-.01-.02-.007-.017-.008-.027c-.006-.02-.033-.077-.035-.064 0 .006-.006.013-.016.018l-.022.017c-.006.01-.014.01-.04.003zm1.245-.53c.013.004.014.015.002.014-.014.02-.018.022-.023.02-.01-.003-.028-.02-.028-.025-.007.008-.01.014-.012.018-.014.003-.015.001-.02.001s-.018.01-.014.02-.01.005-.026-.01-.016-.012-.014-.003c.002.002.002.014.002.027 0 .02 0 .025-.008.032-.013.002-.016-.001-.02-.003-.012-.01-.02-.02-.025-.03s-.01-.017-.008-.02-.01-.005-.02-.012c.005-.022.014-.027.017-.028.007-.016.008-.02.014-.02.01-.002.03-.02.03-.025s.008-.004.026-.001a.35.35 0 0 0 .035.001c.018-.004.023-.001.027 0 .007-.008.007-.022.012-.022s.016-.017.014-.02c-.016-.01-.016-.013-.01-.014.01.014.02.025.025.02.025-.007.03-.01.03-.014.014-.02.012-.055.003-.067-.015-.01-.02-.013-.015-.015-.01-.02-.012-.02-.008-.023.008-.015.012-.017.012-.02.01-.002.017 0 .02.001a.33.33 0 0 0 .036.039c.026.027.028.03.028.046l.01.023c-.017-.002-.02-.001-.02.003.015.02.02.026.02.03.003.014.003.02.003.025s.005.013.01.018V16c-.01.013-.013.013-.02.007-.014.015-.024.015-.032.003-.007.004-.008.006-.026.004-.01-.001-.02-.003-.02-.004-.014-.007-.02-.007-.02-.005zm-.323 1.108c.01.02.022.02.03.01s.01-.01.025-.01c.008 0 .02-.002.026-.005.013-.006.025-.003.025.008-.02.004-.023.005-.03.014s-.014.012-.018.012c-.014.01-.013.014-.002.03s.015.023.013.026c-.002.008.008.02.018.018.01.02.008.03.007.03 0 .013-.003.02-.008.023-.026-.007-.025-.02-.014-.03l-.025.01c-.01-.024-.01-.027-.02-.035s-.016-.01-.01-.02c-.015-.01-.02.005-.02.064 0 .012-.002.014-.015.016-.02.003-.025-.002-.02-.023.004-.01.006-.025.004-.033-.018-.01-.02-.012-.023-.016-.003-.023-.002-.027 0-.027s.018-.024.018-.036c0-.007.003-.016.008-.02s.008-.014.007-.02c.005-.026.02-.042.026-.038.01-.008.015-.013.015-.014s.02 0 .02.004.016.005.035.006l.043.004c.003.002.014-.003.022-.013.02-.017.023-.017.028-.008 0 .003-.003.01-.01.018s-.012.014-.012.016c0 .008-.01.008-.09.003-.056-.003-.06-.002-.066.017-.002.008 0 .014.014.02zm-.078-.174c-.023.014-.03.022-.025.027-.003.023-.003.025.005.036.006.024.007.03.025.04.02.017.02.024-.004.023s-.03.008-.027.033c.003.012.002.02 0 .02s-.008.005-.02.012c-.018.013-.025.028-.016.03-.008.024-.01.034-.01.037-.007.028-.007.028-.014.02s-.017-.001-.025.002c-.024.012-.025.012-.025-.002s-.007-.017-.02-.013c-.022-.006-.025-.008-.025-.01-.016.008-.023.01-.028.01-.015.008-.023.003-.023-.006-.052-.006-.052-.005-.055-.025-.003-.01-.003-.025-.003-.032-.018-.008-.025-.017-.03-.044-.008-.033-.008-.048 0-.06s.02-.022.023-.014l.03.008c.02-.007.02-.012.02-.014-.003-.01 0-.023.003-.022.008-.004.018-.005.03-.007.02-.003.02-.006.036-.02.01-.008.018-.02.018-.025.015-.008.025-.01.026-.014.03-.005.03-.005.025-.01l.025-.03c.008-.01.015-.017.017-.025l.012-.016c-.001.012.003.016.01.022s.01.013.01.017c.018.012.03.02.047.025.01.013-.005.02-.015.018zm.027-.453c.003-.005.023-.004.026.002.03.001.03.001.03.015 0 .008.005.02.008.024.01.014.005.045-.007.044-.012.025-.008.03-.002.03s.025.01.025.014c-.02.001-.026.003-.025.008s.005.005.023.004.017 0 .02.005l.025.008c.014-.007.023-.006.03.003-.01.015-.015.014-.015.01.01.01.012.014.01.022-.01.014-.008.02-.003.026-.02 0-.025 0-.028.003-.004-.02-.006-.026-.01-.028.025.01.023.003.005-.014s-.03-.024-.02-.008c-.02.01-.023.01-.03.004-.027-.008-.027-.008-.02-.002s.015.023.007.032-.01.004-.023-.012c-.002-.007-.01-.02-.02-.027.005-.002.02 0 .02-.005-.014.001-.017-.012-.01-.022-.015-.002-.025-.016-.035-.036-.01-.03-.008-.043.007-.028-.001-.012-.003-.067.007-.072zm.2.28c.008-.014.018-.01.02-.003.02.003.02.004.017.016.005.01.023.063.023.076-.007.01-.008.018-.008.025-.016-.01-.018-.013-.024-.013.003.025.004.03.003.035-.008.02-.016.02-.02.01-.012-.01-.023-.015-.03-.02-.012-.007-.015-.01-.014-.027s-.002-.02-.01-.024c-.02.007-.025.008-.025.01-.013-.012-.013-.012-.02-.005-.005.02-.02.022-.022.015l.01-.032c.02-.003.026-.006.026-.008.02-.014.022-.014.03-.006.015-.004.02-.005.023-.004.002-.015.002-.02.005-.02.025.008.03.007.025 0-.003-.015-.01-.02-.017-.022s-.014-.008-.014-.016c-.01-.01-.016-.016-.018-.024-.002-.015 0-.02.01-.012l-.015-.027c.036-.003.043.003.043.016 0 .004.003.014.01.02-.02.008-.022.01-.014.02zm-.1-.018c-.02.008-.02.005-.02-.015.002-.012 0-.02-.003-.023.016 0 .025.003.032.003.007.018.01.02.015.02.027-.006.03-.003.03.008s.003.017.014.02.017.017.005.02-.025.001-.02-.003c-.02.022-.024.026-.03.016-.012-.006-.017-.01-.02-.014.015-.02.015-.03.005-.027zm-.112-.02c.014-.015.017-.014.017-.012-.008.016-.007.02 0 .02-.012.014-.03.028-.03.034s-.01.012-.022.023-.024.02-.024.023c-.002-.022.033-.052.038-.05.014-.02.02-.032.02-.04zm.477-.986c.008.008-.004.013-.02.012s-.023.003-.018.018c-.01.003-.02-.001-.038-.008s-.025-.01-.033-.008c-.02-.006-.027-.007-.027-.003s.007.006.018.01c.02.008.024.016.012.014-.013.012-.026.01-.028-.001s-.023-.026-.026-.02c-.002-.014.002-.02.005-.02-.008-.018-.007-.02.01-.014s.02.002.008-.004c.003-.018-.025-.058-.038-.056.014-.01.043.008.05.013s.026.02.056.03.03.014.033.008c.014.02.02.018.025.004.018-.01.02-.005.02-.004-.016.028-.013.03-.012.028zm-.875 1.61c-.005-.003-.016-.004-.025-.006-.013-.01-.03-.02-.044-.02-.016-.013-.01-.02-.01-.013.02-.014.018-.02.014-.022s-.008-.004-.02-.002-.014.004-.053-.03c-.024-.02-.042-.035-.042-.036-.03-.03-.046-.048-.046-.06-.003-.02-.036-.072-.052-.075-.005-.003-.023-.042-.02-.052 0-.002-.008-.01-.02-.015s-.02-.015-.02-.02-.01-.018-.025-.03c-.053-.044-.066-.063-.058-.075.005-.006.013-.005.025.003s.015.008.033.01.02.002.03.01l.015.014c.01.017.017.02.02.022s.01.01.02.015c.02.012.028.018.028.024.014.018.017.02.024.018.018.003.025.007.03.007.01.014.012.017.017.018a.14.14 0 0 0 .028.015c.012.01.015.013.02.01.017.02.015.034.007.043.006.015.014.018.02.018l.02.03c.013.013.02.014.025.015-.012-.006-.012-.01 0-.022s.022-.01.026.003c.005.02.007.02.018.024.014.01.017.012.017.01-.007.008-.016.013-.025.01s-.014.003-.018.042a.25.25 0 0 1-.003.042c.003.01.01.01.02.013.018-.004.025-.003.033 0s.018.007.025.008c.02.017.02.02.036.02l.03.001c.007.001.012-.002.02-.01.018 0 .02.003.025.002.025.006.042.008.062.006s.033 0 .035.003-.022.013-.036.012c.042.01.042.012.042.018s.008.01.02.008c.004-.004.025.007.02.01.015-.01.02-.01.033-.003.02.001.023-.002.026-.003.003-.007.02-.01.028-.005s.02.005.024.001c.02.008.023.008.023.01.008-.005.014-.006.03-.007.026.001.052.003.058.006.02-.015.028-.018.03-.015s.01.003.023.002c.043-.002.055-.002.048.004s-.035.008-.04.007c-.015.002-.022.003-.026.003s-.015.003-.03.006c-.026.007-.09.008-.1.002-.018.007-.033.008-.042.003-.004.001-.01.004-.022.007s-.025.004-.03.003-.017-.004-.028-.005c-.018-.01-.02-.008-.025-.003-.025-.012-.027-.01-.025-.005h-.037c-.024-.001-.092-.008-.11-.015s-.05-.01-.057-.005c-.002.003-.01.003-.04.001zm1.003 1.028c-.018.01-.023.014-.023.018s-.005.01-.014.018-.013.013-.018.01c-.005.006-.035.02-.05.02s-.014-.002-.014-.015c-.002-.008 0-.018.003-.02s.007-.014.007-.023.01-.02.016-.03c.014-.018.017-.022.015-.014.005.007.012.01.02.014s.01.006.05-.01c.027-.008.035-.004.02.014-.007.01-.013.02-.013.02zm.425-.54c-.008.016-.01.02-.01.023-.006.008-.01.025-.01.03 0 .016-.003.027-.005.033s-.018.03-.043.063c-.01.02-.02.03-.038.05-.012.016-.02.023-.03.026-.02.01-.044.03-.07.058l-.04.04c-.01.008-.02.018-.02.02l-.024.03c0 .012-.025.026-.053.03-.023.002-.07.025-.096.047-.012 0-.02-.005-.028-.008s-.02-.005-.02-.007-.01.003-.02.01c-.018.01-.022.01-.03.008-.017-.008-.025-.008-.035-.007l-.027-.007c-.004-.002-.013-.008-.016-.015s-.005-.012.005-.025.008-.014.002-.025c-.036-.003-.036-.007-.02-.02s.018-.03.008-.03c-.016.022-.025.028-.03.03-.03.008-.03.008-.024.002s.01-.01.018-.012.012-.01.018-.018.012-.015.017-.02c.014-.02.017-.022.02-.024s-.007.003-.02.014c-.008.01-.02.02-.025.02-.012.001-.04.027-.042.036-.03-.008-.03-.01-.024-.015s.005-.036-.005-.036c.002-.02.002-.02-.002-.02s-.01-.004-.023-.007c-.005-.003-.018-.006-.02-.004-.026-.012-.03-.012-.07-.007l-.047.012c-.01.005-.072.023-.087.023-.008 0-.016.002-.02.005s-.013.01-.02.01c-.016.01-.022.012-.027.012s-.014.008-.025.02c-.004.006-.014.012-.02.02l-.04.002c-.052.003-.083.01-.094.02l-.018.01c-.013.003-.03.01-.03.013s-.024.014-.042.014c-.028 0-.04-.004-.046-.014-.022-.005-.022-.008-.017-.023.024-.013.036-.028.036-.04.01-.014.014-.028.014-.06l.002-.057c.002-.006-.002-.018-.003-.023s-.003-.02-.005-.03-.003-.025-.008-.03-.01-.02-.01-.027c.014-.012.016-.016.016-.02.023.036.025.02.014-.008s-.012-.032.004-.05c.008-.008.01-.02.01-.025s.003-.02.016-.036c.008.01.01.013.012.016.008-.016.017-.025.026-.028s.022-.013.023-.02.015-.013.02-.013c.012-.005.02-.006.03-.006s.018-.002.023-.005c.02-.007.03-.01.036-.015s.016-.008.03-.008c.023-.002.045-.01.058-.025.003-.007.013-.017.02-.025s.016-.017.016-.027.002-.016.017-.028c.008-.01.018-.016.02-.017.008.025.01.03.012.025.003-.02.003-.022.007-.024l.035-.008c.002-.024.02-.044.027-.04.004-.017.004-.017.014-.017.022.004.022.004.022-.004-.008-.015.017-.014.023-.01.01-.01.01-.01.025-.003.014.014.018.02.023.02.012.008.02.006.03.007.018.001.027-.006.018-.01l.014-.025c.014-.012.02-.014.015-.018s.02-.028.03-.03c.003-.005.012-.006.026-.006s.026 0 .03-.003c-.016-.013-.03-.024-.022-.028.03-.007.032-.007.032 0 .017.014.02.014.023.01.014.004.02.006.024.008l.033.007c.035-.013.038-.013.035-.006l.022-.006c.014.014.012.017.003.03s-.015.017-.017.016c.017.014.017.03.014.032s-.02-.002-.02-.006c-.016.004-.022.012-.026.016-.005.014.002.02.01.025.012.01.023.014.023.01.012.008.015.012.02.012.016.014.024.017.027.017s.016.005.025.013.02.013.03.012.025-.008.025-.016c.02-.02.035-.062.038-.088.002-.013.005-.024.008-.026.006-.026.01-.038.017-.044s.01-.016.013-.02c.014-.02.024-.02.027-.008-.003.017.005.026.016.025l.003.027c.004-.02.006-.025.01-.025v.03c-.01.01-.013.014-.013.027.01.018.013.016.013.014.025-.004.025-.004.017-.007.002.013.002.014.014.018.002.02.003.056.01.06s.013.034.005.04c0 .025.01.036.018.033.016.002.02.003.02.007.003.008.03.02.04.02-.01.015-.01.017.002.027.005.005.007.014.007.022.02.013.023.013.03.012.005.033.005.037.008.036.01.01.014.013.018.013.01.017.014.02.017.02.003.02.018.017.026.003.003.004.001.013-.025.017zm.05-.435c-.003.005-.038.006-.052.001-.003-.003-.01-.004-.02-.004a.16.16 0 0 1-.033-.003c-.014-.003-.023-.006-.025-.012l-.02-.02-.02-.024c-.003-.004-.01-.01-.02-.01-.03-.013-.06.004-.06.02-.018.014-.02.018-.02.02 0 .01-.006.02-.01.02-.01-.015-.014-.015-.016-.016s-.012-.003-.028-.001c-.022 0-.022-.001-.04-.017s-.017-.016-.033-.015c-.023.01-.063.01-.063.005s.022-.03.03-.03c.01-.02.008-.025.005-.025-.005-.01-.007-.015-.008-.02-.007-.016-.074-.04-.092-.042-.008-.001-.016-.004-.02-.007s-.014-.008-.023-.012-.017-.004-.02-.001c-.025.01-.03-.003-.026-.008-.008-.012-.014-.015-.02-.018.013-.01.02-.013.025-.015.023-.002.03-.003.03-.005s-.005-.003-.023-.002c-.025.001-.042-.003-.042-.014 0-.005-.006-.01-.022-.01-.008 0-.026-.017-.026-.023.023.003.023.003.028.001s.012-.007.02-.01c.02-.01.03-.01.047 0 .008.004.02.006.022.005s.013.003.014.02l.005.02c.005.01.008.014.01.025s.01.017.017.017l.032-.022c.01-.013.016-.014.02-.014.017-.01.025-.015.032-.017.015-.004.02-.003.047.008.018.008.038.015.05.016.018.008.02.008.025.008s.013.002.024.007.03.01.042.014.03.008.03.01l.033.01c.016.007.02.013.025.017.022-.002.025-.002.015.006-.014.022-.014.023-.005.024.023.01.028.013.034.013s.024.012.024.02c-.03.006-.034.008-.034.014s.008.01.018.02.018.018.022.025c.003.014.007.014.02.013.012.013.014.014.024.014s.02.007.01.008c.027.013.03.014.027.016z" class="D"/><path d="M40.452 17.4c-.003-.014-.008-.024-.018-.028s-.016-.02-.008-.022c-.002-.017-.003-.025-.002-.03-.003-.01-.007-.02-.007-.025s-.003-.018-.007-.025-.007-.01-.005.023l.003.05c.002.007.002.017.002.02s.01.015.015.024c.01.008.016.018.016.022.01.02.013.028.013.032.024.017.024.017.007-.01-.005-.014-.01-.025-.01-.03zm.034-1.475zm.34-.465c-.005.001-.013.001-.02.003l.023-.002zm-.25 1.66c-.01-.01-.028-.018-.03-.012s-.014.005-.02.01c-.018.007-.018.008-.025.056-.002.03 0 .042.01.035.001-.003.01-.004.022-.002.02.003.03 0 .018-.008.003-.015.008-.02.008-.024.008-.005.02-.027.016-.032.005-.014.005-.02.002-.023z"/><circle cx="40.61" cy="16.056" r="1"/><path d="M40.158 15.627zm.048-.84c-.003.003-.02.005-.02.01a.24.24 0 0 0-.051.008c-.02.004-.035.006-.035.003-.025-.01-.035-.014-.033-.017-.013-.004-.014-.008-.013-.027 0-.013-.002-.027-.003-.03-.013-.024-.013-.03-.005-.033.01-.016.036-.027.036-.033.018-.003.045-.032.042-.04.016-.002.02-.003.02-.01-.038-.016-.073-.016-.073-.01-.005 0-.013.006-.02.014 0 .02-.003.025-.016.037-.007.008-.018.016-.02.016-.01 0-.042.014-.042.02-.023.02-.028.025-.028.032-.01.033-.003.042.012.05.023.012.026.014.03.025l-.008.028c-.017.012-.024.014-.024.014-.02.005-.023.008-.025.01-.002.016-.005.032-.007.04.016.005.005.037 0 .042-.01.003-.015.006-.03.006s-.03.007-.033.02c-.002.007-.005.008-.02.008s-.02-.001-.023-.01c-.01.01-.012.014-.015.017-.008.02-.012.022-.012.02-.007-.002-.025.014-.02.02s.012-.002.02-.006c.042-.018.054-.02.054-.008s.012.018.042.01c.017-.003.03-.008.03-.01.014-.014.076-.02.068-.006-.004.008.012.01.022.006.012-.016.016-.02.02-.02.018.001.022-.014.02-.036-.003-.028.008-.055.024-.062s.016-.003.03.01l.018.017c.016-.001.02-.046.005-.046-.014-.008-.03-.005-.03 0-.014.003-.018.006-.02.008-.014-.02-.014-.024-.008-.023-.005-.01.01-.018.02-.018.02.018.023.01.014.008s.038-.03.06-.026c.043.008.065.008.065.003.03-.008.03-.01.02-.022s-.018-.01-.043-.007z"/><path d="M40.615 15.303c-.01-.008-.03-.003-.045.002-.028.006-.037.012-.044.02-.01.016-.008.02-.003.025.016.007.03.006.043.008.026.003.028.002.03-.01s.007-.014.013-.016c-.01-.01-.014-.014-.014-.018.005-.003.014-.005.02-.01zM40.6 17.65c-.005-.003-.01-.064-.003-.07s.005-.023-.002-.03-.006-.014-.006-.025-.005-.024-.007-.03c-.003.02-.003.033-.006.088 0 .014.005.048.01.053 0 .02.002.024.004.025zm.402-2.083l.008.001zm.02-.407c.005-.004.02-.005.04-.003-.02-.003-.036-.003-.04.003zm.123.387c-.01-.008-.018-.018-.02-.023-.01-.017-.026-.012-.026.006s.006.028.017.028c.015.01.017.01.023.003zm-.045-.9c.04-.015.078-.038.078-.053 0 .014-.038.038-.078.053z"/><path d="M41.135 15.658c.006-.03-.003-.044-.014-.042-.007-.022-.008-.025-.012-.025-.01.002-.018-.02-.017-.03s-.01-.037-.018-.037c.002-.037-.002-.042-.018-.044-.007-.002-.015-.006-.018-.01-.017-.014-.017-.02-.02-.02-.018-.02-.025-.027-.03-.027-.017-.017-.015-.02-.003-.018.01-.005.014-.013.016-.018.004-.01.008-.01.028-.008.013.001.022.004.024.004.008.003 0-.038-.007-.05s-.01-.01-.02-.01c-.018.003-.03-.003-.03-.01-.003.001-.014.006-.028.01-.027.014-.04.022-.04.032-.014-.001-.038.014-.043.027-.013.02-.013.02-.008.02.016.008.026.026.026.04s.007.022.045.064c.02.025.046.047.05.047l.016.013c-.027.003-.027.005-.027.025-.002.013-.003.023-.007.025s-.005.01-.003.02c.003.02.016.033.028.034.005 0 .017.007.025.014.026.02.043.025.08.018.024-.004.03-.008.03-.014s-.005-.02-.008-.036zm-.073-.5a.19.19 0 0 1 .053.012.22.22 0 0 0-.053-.012zm.18.255c-.008-.002 0 .022.003.02zm-.236-.1zm-3.244-.778c.024-.007.016-.007 0 0zm-.908 1.065zm.114-.032c-.03.007-.03.008-.025.01-.033.003-.04.004-.063.017-.015.008-.03.018-.03.02-.025-.003-.025.003-.014.008s.03-.002.073-.02a.43.43 0 0 0 .068-.036zm.012.24zm-.526.242zm.6-1.308zm.1-.072c.014-.016-.004-.014-.006-.01-.02.005-.024.007-.025.013l-.025.027c.003.004-.014.014-.018.012-.01.02-.01.02-.003.02.014-.014.02-.02.027-.023.018-.007.052-.022.056-.027-.02.004-.02-.004-.005-.014zm.03.1c.026.005.026.004.017 0z"/><circle cx="37.076" cy="14.764" r="1"/><path d="M36.98 15.737zm-.103-.335c-.014.004-.026-.003-.025-.014-.015-.014-.03-.01-.056 0-.014.005-.025.01-.028.008.017.008-.001.02-.01.02-.003-.008-.014-.003-.024.002a.32.32 0 0 0-.068.038c.035-.003.035-.003.027.003.008.002.02-.003.027-.006l.028-.013c.008-.005.018-.008.02-.007.028-.017.028-.012.012 0 .005.02.025.023.036.017.003-.002.018-.007.026-.01.018-.003.02-.003.018.001.01-.008.012-.01.015-.02.01-.025.01-.025.002-.02zm-.28-.076c-.008.007-.014.014-.014.016l.028-.025zm-.003-.08c-.017.013-.018.016-.002.014-.01.008-.014.01-.01.018.014.01.018.01.02.014.014.01.025-.05.02-.056s-.018-.003-.03.01zm.136-.46zm.162.674l.038-.003c-.012-.003-.038-.001-.038.003zm.18.06c-.01.005-.025.007-.04.008a.15.15 0 0 0-.048.012c-.02.012-.02.018-.002.01.01-.003.03-.005.04-.004.03 0 .06-.013.06-.025z"/><path d="M36.93 15.466l-.007.004.003.003.01-.003z"/><path d="M36.953 15.472c-.008.008-.008.008-.023.004s-.024-.004-.036-.005c-.018-.001-.02.001-.02.004.015.014.02.02.012.025-.002.007-.01.02-.02.03l-.018.02a.16.16 0 0 1 .03-.015c.007.025.01.033.01.033.007-.001.02-.017.024-.026s.01-.017.018-.023c.014-.01.017-.014.014-.023.034.023.05.005.04-.022-.007-.014-.018-.015-.03-.002z"/><path d="M36.803 15.483c-.02.004-.03.01-.036.016.013-.008.007.003-.013.025-.038.042-.055.077-.055.1.002.014.014.01.035-.012.014-.013.02-.023.02-.03 0-.017.008-.03.026-.053s.018-.023.035-.027c.005-.002.035-.03.035-.033s-.036.005-.046.014zm.883-.813c0-.01-.017.001-.02.016.04-.003.05-.01.03-.01zm.222-.023zm-.4-.055zm-.305.092l.054-.065.065.054-.054.065zm.5-.176z"/><circle cx="37.872" cy="14.609" r="1"/><path d="M37.827 14.548l-.026.014c-.03.01-.023.01.014.001.02-.006.028-.008.025-.013zm1.143-.18zm-1.336.126c-.018.004-.02.003-.02-.003-.023.017-.023.018-.002.014.01-.002.024-.007.03-.008zm-.2.1zm-.2.082c.003.003.012-.007.014-.015s-.017.014-.014.015zm.135-.076zm-.084.13l.01.02c.003-.02.002-.022-.01-.02zm.15-.18c.01-.017.014-.02.008-.018zm.023.086h1v1h-1zm.012-.133c-.007.006-.018.01-.018.013l.003.02c.014-.024.025-.034.03-.038zm.317.055zM37.2 18.7zm-.004.045zm-.4-2.375zm.174.365c-.024.007-.024.01-.02.024.017.016.025.005.025-.005zm-1.258-1.477zm.784 1.426c-.01.024-.008.025.005.025.007-.016.002-.023-.005-.025zm.564.98c-.014-.013-.024-.014-.02-.002.012.01.015.012.015.015zm-1.298-2.156c-.022-.013-.025-.015-.025-.02.008.02.014.026.012.03zm-.035-.215zm1.643 3.74zm.55-1.05h1v1h-1zm1.055-3.6zm-2.547.62c-.027-.01-.03-.01-.03.003s-.003.013-.017.018-.02.008-.026.014-.018.01-.02.01c-.022.004-.022.004-.015.006a.3.3 0 0 0 .085-.02.05.05 0 0 1 .025-.013c.01-.003.033-.014.045-.022l.016-.01c-.027.012-.053.017-.06.014zm1.004 4.054c-.018-.001-.025-.007-.025-.018-.012-.018-.01 0-.003.014l.027.003zm-.007-.387zm.33-.417zm1.275-4.138c.024-.007.016-.007 0 0zm-3.928 1.24h1v1h-1zm.105-.07zm.07-.156zm.43.14zm-.482.018zm1.212-.423c-.014.004-.027.006-.032.005.014-.014.022-.02.027-.022.013-.007.005-.005-.03.008l-.065.02-.035.012h.024l.026.002c-.02-.006-.025-.005-.03-.005.035-.008.053 0 .035.005s-.022.008-.025.012c-.02.01-.026.01-.026.014.033-.01.07-.025.066-.017-.018.002-.05.02-.05.02s.013-.002.02-.006l.018-.01c.014-.01.03-.017.053-.02.01-.002.023-.008.03-.014zm-.193-.067c.02-.007.01-.007 0 0zm.04-.013zm-.144.048l.023-.008c-.008 0-.016.004-.023.008zm-.443.398zm-.003-.01zm.006.077zm-.313-.057l.06-.06.06.06-.06.06zm-.047-.002c-.001.003.014-.008.02-.014-.01.003-.02.01-.02.014zm.03-.022zm0-.156z"/></g></svg>