<svg xmlns="http://www.w3.org/2000/svg" width="40" height="59"><path d="M34.087 24.858A19.75 19.75 0 0 0 20 19a19.9 19.9 0 0 0-12.668 4.564c-.286.236-.326.66-.1.947a.67.67 0 0 0 .944.091 18.54 18.54 0 0 1 11.815-4.256c10.246 0 18.58 8.368 18.58 18.654 0 4.618-1.694 9.05-4.77 12.48-.248.276-.226.702.05.95a.67.67 0 0 0 .45.173c.183 0 .366-.075.498-.223 3.298-3.676 5.115-8.428 5.115-13.38 0-5.342-2.072-10.365-5.835-14.142zm-1.194 28.508a.67.67 0 0 0-.945-.082A18.55 18.55 0 0 1 20 57.654C9.754 57.654 1.42 49.286 1.42 39a18.64 18.64 0 0 1 4.888-12.608c.25-.274.232-.7-.04-.95a.67.67 0 0 0-.947.041A19.98 19.98 0 0 0 .078 39c0 5.342 2.072 10.365 5.835 14.142S14.68 59 20 59a19.89 19.89 0 0 0 12.811-4.685c.284-.24.32-.664.082-.95zM22.597 33.77h-5.193a.67.67 0 0 0-.671.673v17.64a.67.67 0 0 0 .67.673h5.193a.67.67 0 0 0 .671-.673v-17.64a.67.67 0 0 0-.671-.673zm-.67 17.64h-3.852V35.117h3.852V51.4zM20 25.148c-2.057 0-3.73 1.68-3.73 3.745s1.673 3.745 3.73 3.745 3.73-1.68 3.73-3.745-1.673-3.745-3.73-3.745zm0 6.143a2.4 2.4 0 0 1-2.39-2.398 2.4 2.4 0 0 1 4.8 0 2.4 2.4 0 0 1-2.4 2.398z" fill="#000" fill-rule="nonzero"/></svg>