<svg xmlns="http://www.w3.org/2000/svg" xmlns:xlink="http://www.w3.org/1999/xlink" width="40" height="59"><g fill="#000" fill-rule="nonzero"><path d="M39.952 30.04c-.152-.383-.61-.612-1-.46-.305.153-3.198 1.3-7.157 3.06 1.98-5.892-2.665-9.64-2.74-9.64-6.167-5.51-13.095-3.75-13.4-3.673s-.533.306-.533.612c-.61 3.29 3.73 10.56 4.263 11.4 1.675 2.448 3.654 3.902 5.862 4.36h.228c-6.852 3.52-14.313 8.188-17.358 12.778-.228.383-.152.842.228 1.07.152.077.305.153.457.153.228 0 .457-.153.61-.306 2.512-3.826 8.527-7.73 14.465-11.02-.61 1.377-.61 2.525-.61 2.602-.61 7.5 5.7 10.866 5.938 10.942.076.077.228.077.38.077.076 0 .152 0 .228-.077a.78.78 0 0 0 .457-.382c3.045-6.58 3.73-11.4 1.98-14.31-.61-1.07-1.523-1.683-2.284-2.066 5.253-2.525 9.44-4.208 9.517-4.208.38-.077.61-.536.457-.918zm-9.06 8.034c1 1.607 1.447 5.05-1.675 12.1-1.523-.995-4.873-3.98-4.492-9.182a5.36 5.36 0 0 1 2.132-3.979c-.457 2.295-1 6.58.076 9.335.152.306.38.46.685.46.076 0 .152 0 .305-.077.38-.153.61-.612.457-.995-1.066-2.755-.228-7.575.152-9.412.685.23 1.675.688 2.36 1.76zm-.457-6.122c-3.045-6.657-10.05-9.947-10.354-10.1-.38-.153-.837 0-1 .382s0 .842.38.995c.076 0 7.537 3.596 10.05 10.406-.76.383-2.208.918-3.96.612-1.827-.383-3.502-1.607-4.873-3.673-1.218-2-4.035-7.27-4.11-9.794 1.6-.306 6.852-.688 11.572 3.443.152.153 3.73 3.06 2.284 7.728z"/><use xlink:href="#B"/><path d="M16.865 51.58c-.64-.9-1.682-1.422-1.762-1.5-.4-.177-.88 0-1.04.444s0 .978.4 1.155c.16.1.8.444 1.04.977.16.267.4.355.64.355.16 0 .32-.1.48-.178.4-.267.48-.8.24-1.244zM5 49a4.99 4.99 0 1 0 0 10 4.99 4.99 0 0 0 5-5c0-2.77-2.308-5-5-5zm0 8.46a3.45 3.45 0 1 1 0-6.92A3.45 3.45 0 0 1 8.462 54 3.5 3.5 0 0 1 5 57.461z"/><path d="M5.865 55.58c-.64-.89-1.602-1.422-1.762-1.51-.4-.177-.88 0-1.04.444s0 .978.4 1.155c.16.09.8.444 1.04.977.16.267.4.355.64.355.16 0 .32-.09.48-.178.4-.267.48-.8.24-1.244z"/><use xlink:href="#B" x="-5" y="-12"/><path d="M11.865 39.62c-.64-.95-1.602-1.467-1.762-1.553-.4-.172-.88 0-1.04.432-.16.518 0 1.036.4 1.208.16.086.8.432 1.04.95.16.26.4.345.64.345.16 0 .32-.086.48-.172.4-.26.48-.777.24-1.208z"/></g><defs ><path id="B" d="M17 45a4.99 4.99 0 1 0 0 10 4.99 4.99 0 1 0 0-10zm0 8.46c-1.923 0-3.462-1.54-3.462-3.46s1.538-3.46 3.462-3.46 3.462 1.54 3.462 3.46-1.538 3.46-3.462 3.46z"/></defs></svg>