<svg xmlns="http://www.w3.org/2000/svg" width="44" height="44" viewBox="0 0 44 44">
  <g fill-rule="evenodd">
    <path fill-rule="nonzero" d="M35.8085106 11.2340426C38.1314298 11.2340426 40.0212766 9.34419574 40.0212766 7.0212766 40.0212766 4.69835745 38.1314298 2.80851064 35.8085106 2.80851064 33.4855915 2.80851064 31.5957447 4.69835745 31.5957447 7.0212766 31.5957447 9.34419574 33.4855915 11.2340426 35.8085106 11.2340426zM35.8085106 4.21276596C37.3571234 4.21276596 38.6170213 5.47266383 38.6170213 7.0212766 38.6170213 8.56988936 37.3571234 9.82978723 35.8085106 9.82978723 34.5022723 9.82978723 33.4014298 8.93340426 33.0888426 7.72340426L36.5106383 7.72340426C36.8984 7.72340426 37.212766 7.4090383 37.212766 7.0212766 37.212766 6.63351489 36.8984 6.31914894 36.5106383 6.31914894L33.0888426 6.31914894C33.4014298 5.10914894 34.5022723 4.21276596 35.8085106 4.21276596zM12.4846723 27.6171149C13.4721447 29.8218894 15.6873106 31.3617021 18.2553191 31.3617021 21.7397447 31.3617021 24.5744681 28.5269787 24.5744681 25.0425532L24.5744681 22.7021277C24.5744681 22.314366 24.2601021 22 23.8723404 22L9.91160851 22C9.66099574 22 9.42938723 22.1335915 9.30384681 22.3505021 8.99622128 22.8821532 8.83370213 23.4893532 8.83370213 24.1064766 8.83370213 26.0422894 10.4085277 27.6171149 12.3443404 27.6171149L12.4846723 27.6171149zM13.3404255 23.4042553L23.1702128 23.4042553 23.1702128 25.0425532C23.1702128 27.7526723 20.9654383 29.9574468 18.2553191 29.9574468 15.5452 29.9574468 13.3404255 27.7526723 13.3404255 25.0425532L13.3404255 23.4042553 13.3404255 23.4042553zM10.2379574 24.1064766C10.2379574 23.8660681 10.2789617 23.6284681 10.3579745 23.4042553L11.9361702 23.4042553 11.9361702 25.0425532C11.9361702 25.4347149 11.9720255 25.8185447 12.0407404 26.1911404 11.0226553 26.0435064 10.2379574 25.1649106 10.2379574 24.1064766L10.2379574 24.1064766z"/>
    <path d="M13.3404255 42.5957447L9.59574468 42.5957447C9.20798298 42.5957447 8.89361702 42.9101106 8.89361702 43.2978723 8.89361702 43.685634 9.20798298 44 9.59574468 44L13.3404255 44C13.7281872 44 14.0425532 43.685634 14.0425532 43.2978723 14.0425532 42.9101106 13.7281872 42.5957447 13.3404255 42.5957447zM41.893617 42.5957447L38.1489362 42.5957447C37.7611745 42.5957447 37.4468085 42.9101106 37.4468085 43.2978723 37.4468085 43.685634 37.7611745 44 38.1489362 44L41.893617 44C42.2813787 44 42.5957447 43.685634 42.5957447 43.2978723 42.5957447 42.9101106 42.2813787 42.5957447 41.893617 42.5957447z"/>
    <path fill-rule="nonzero" d="M43.2978723,0 L8.19148936,0 C7.80372766,0 7.4893617,0.314365957 7.4893617,0.70212766 L7.4893617,7.72340426 C7.4893617,9.65921702 9.06418723,11.2340426 11,11.2340426 L13.106383,11.2340426 L13.106383,14.0425532 L11.7021277,14.0425532 L11.7021277,13.3404255 C11.7021277,12.9712 11.4161277,12.6650723 11.0477447,12.639983 L0.74987234,11.9378553 C0.555897872,11.9242809 0.364919149,11.992434 0.222808511,12.1252766 C0.0806978723,12.2580255 0,12.4437617 0,12.6382979 L0,16.8510638 C0,17.0456 0.0806978723,17.2314298 0.222808511,17.3640851 C0.353310638,17.4859745 0.524723404,17.5531915 0.702034043,17.5531915 C0.717948936,17.5531915 0.73386383,17.5526298 0.74987234,17.5515064 L11.0477447,16.8493787 C11.4161277,16.8242894 11.7021277,16.5181617 11.7021277,16.1489362 L11.7021277,15.4468085 L13.2271489,15.4468085 C13.5169872,16.2639915 14.2973787,16.8510638 15.212766,16.8510638 L17.5531915,16.8510638 L17.5531915,18.0212766 C17.5531915,18.4090383 17.8675574,18.7234043 18.2553191,18.7234043 C18.6430809,18.7234043 18.9574468,18.4090383 18.9574468,18.0212766 L18.9574468,16.8510638 L21.2978723,16.8510638 C22.4593787,16.8510638 23.4042553,15.9061872 23.4042553,14.7446809 L23.4042553,11.2340426 L27.6170213,11.2340426 L27.6170213,32.7659574 L11,32.7659574 C9.06418723,32.7659574 7.4893617,34.340783 7.4893617,36.2765957 L7.4893617,40.4893617 C7.4893617,40.8771234 7.80372766,41.1914894 8.19148936,41.1914894 L43.2978723,41.1914894 C43.685634,41.1914894 44,40.8771234 44,40.4893617 L44,0.70212766 C44,0.314365957 43.685634,0 43.2978723,0 Z M10.2978723,15.4930553 L1.40425532,16.0994128 L1.40425532,13.3899489 L10.2978723,13.9963064 L10.2978723,15.4930553 Z M22,14.7446809 C22,15.1318809 21.6850723,15.4468085 21.2978723,15.4468085 L15.212766,15.4468085 C14.825566,15.4468085 14.5106383,15.1318809 14.5106383,14.7446809 L14.5106383,11.2340426 L22,11.2340426 L22,14.7446809 Z M42.5957447,39.787234 L8.89361702,39.787234 L8.89361702,36.2765957 C8.89361702,35.1150894 9.83849362,34.1702128 11,34.1702128 L27.6170213,34.1702128 L27.6170213,37.6808511 C27.6170213,38.0686128 27.9313872,38.3829787 28.3191489,38.3829787 C28.7069106,38.3829787 29.0212766,38.0686128 29.0212766,37.6808511 L29.0212766,10.5319149 C29.0212766,10.1441532 28.7069106,9.82978723 28.3191489,9.82978723 L11,9.82978723 C9.83849362,9.82978723 8.89361702,8.88491064 8.89361702,7.72340426 L8.89361702,1.40425532 L42.5957447,1.40425532 L42.5957447,39.787234 Z"/>
    <circle cx="33" cy="33.468" r="1"/>
    <circle cx="33" cy="29.255" r="1"/>
    <circle cx="33" cy="25.043" r="1"/>
  </g>
</svg>
