<svg xmlns="http://www.w3.org/2000/svg" xmlns:xlink="http://www.w3.org/1999/xlink" width="47" height="59"><g fill="#000" fill-rule="nonzero"><path d="M39.606 33.726l.22-2.262a1.69 1.69 0 0 0-1.677-1.805h-4.2a.73.73 0 0 0-.727.728.73.73 0 0 0 .727.727h4.2c.063 0 .124.026.166.072s.065.108.06.17l-.295 2.85-.004.022-.597 3.444c-.7 3.327-1.775 6.4-3.13 9.1l-.03.054a29.08 29.08 0 0 1-1.722 2.968l-.037.063c-1.1 1.628-2.3 3.05-3.635 4.215-.04.037-.095.057-.15.057H12.058c-.055 0-.108-.02-.15-.057C6.695 49.5 3.16 41.004 2.455 31.355c-.005-.063.017-.125.06-.172s.103-.072.166-.072h28.753c.402 0 .727-.326.727-.727a.73.73 0 0 0-.727-.728H2.68a1.69 1.69 0 0 0-1.232.537c-.317.34-.48.803-.445 1.268.684 9.342 3.962 17.68 8.853 22.677h-1.53c-1.334 0-2.42 1.085-2.42 2.42s1.086 2.42 2.42 2.42h4.62a.73.73 0 0 0 .727-.728c0-.402-.326-.727-.727-.727h-4.62c-.532 0-.965-.433-.965-.965s.433-.965.965-.965h24.177c.532 0 .965.433.965.965s-.433.965-.965.965H15.4c-.402 0-.727.325-.727.727a.73.73 0 0 0 .727.728h17.1c1.334 0 2.42-1.086 2.42-2.42s-1.086-2.42-2.42-2.42h-1.53a23.69 23.69 0 0 0 2.451-2.969c1.323.686 2.792 1.046 4.3 1.046a9.36 9.36 0 0 0 9.345-9.346 9.36 9.36 0 0 0-7.453-9.146zm-.852 4.9c1.912.474 3.332 2.23 3.332 4.246a4.38 4.38 0 0 1-4.373 4.374 4.34 4.34 0 0 1-1.79-.385c1.192-2.5 2.15-5.267 2.832-8.234zm-1.04 12.137a7.87 7.87 0 0 1-3.482-.812l.033-.053.093-.15.32-.53a33.5 33.5 0 0 0 .593-1.056c.763.354 1.596.54 2.446.54 3.213 0 5.828-2.614 5.828-5.828a5.81 5.81 0 0 0-1.531-3.933c-.796-.87-1.825-1.47-2.953-1.738l.004-.02a46.96 46.96 0 0 0 .349-2.012c3.577.785 6.194 3.98 6.194 7.703a7.9 7.9 0 0 1-7.89 7.89zM20.174 21.5c-1.05.957-1.577 2.02-1.563 3.162.022 1.858 1.513 3.17 1.576 3.227a.72.72 0 0 0 .475.177.72.72 0 0 0 .548-.25.73.73 0 0 0-.068-1.025c-.01-.01-1.068-.955-1.077-2.156-.006-.705.36-1.397 1.088-2.06 1.05-.957 1.577-2.02 1.563-3.162-.022-1.858-1.513-3.172-1.576-3.227a.73.73 0 0 0-1.026.073.73.73 0 0 0 .073 1.026c.01.01 1.06.952 1.075 2.146.008.707-.358 1.403-1.088 2.068z"/><use xlink:href="#B"/><use xlink:href="#B" x="-10.538"/><path d="M24.02 36.547a3.98 3.98 0 0 0-2.852 1.191l-.467.474-.467-.474a3.98 3.98 0 0 0-2.852-1.191c-1.06 0-2.06.4-2.816 1.156l-.292.288c-1.572 1.553-1.588 4.096-.036 5.668l5.946 6.02c.137.14.323.216.518.216s.38-.078.518-.216l5.946-6.02c1.553-1.573 1.537-4.115-.036-5.668l-.292-.288c-.755-.746-1.755-1.156-2.816-1.156zm2.108 6.1L20.7 48.135l-5.428-5.497a2.56 2.56 0 0 1 .022-3.611l.292-.288c.48-.475 1.118-.736 1.794-.736.688 0 1.334.27 1.817.76l.985.997c.137.14.323.216.518.216s.38-.078.518-.216l.985-.997c.484-.5 1.13-.76 1.818-.76.676 0 1.313.26 1.794.736l.292.288c1.002.99 1.012 2.61.023 3.61z"/></g><defs ><path id="B" d="M25.055 23.224c-.763.695-1.145 1.474-1.135 2.316.016 1.34 1.032 2.26 1.148 2.36a.72.72 0 0 0 .474.177c.202 0 .403-.084.547-.25a.73.73 0 0 0-.065-1.025c-.006-.006-.646-.583-.65-1.288-.002-.406.22-.815.66-1.216.763-.695 1.145-1.474 1.135-2.317-.016-1.34-1.032-2.258-1.148-2.358-.302-.262-.757-.23-1.02.07a.73.73 0 0 0 .065 1.025c.006.006.646.583.65 1.288.002.406-.22.815-.66 1.216z"/></defs></svg>