<svg xmlns="http://www.w3.org/2000/svg" width="44" height="44" viewBox="0 0 44 44">
  <g fill-rule="evenodd">
    <path fill-rule="nonzero" d="M36.121416,24.0818662 C34.0049673,24.0818662 32.0856388,25.1646441 30.6798604,26.9141725 C30.2831992,26.610884 29.8519555,26.3636192 29.3992706,26.1595825 L27.0656439,16.8136633 C27.8091675,16.4823629 28.3306715,15.7391851 28.3306715,14.8746227 L28.3306715,13.4581237 C28.3306715,12.6188066 27.8375252,11.8984533 27.1292757,11.5536657 C28.6187437,9.77162978 28.7442782,7.34013454 27.3467995,5.94265594 C26.7730759,5.36893232 26.0247108,5.05388586 25.2185928,4.98299168 C25.7463217,3.51358149 25.5153106,1.98641851 24.5138015,0.984909457 C23.0188003,-0.510091823 20.3358903,-0.263518567 18.534834,1.53822938 C17.6388015,2.43391604 17.1176433,3.56718438 17.0232331,4.67693662 C16.3723906,4.40650155 15.6451207,4.25088028 14.873931,4.25088028 C14.1027414,4.25088028 13.3744341,4.40650155 12.7228999,4.67693662 C12.6288356,3.56580108 12.1059482,2.43045775 11.2123366,1.53753777 C10.3602239,0.685425095 9.28574575,0.149396378 8.18671401,0.026628499 C7.02577968,-0.102018382 5.97896753,0.237927565 5.23302314,0.984217851 C4.23462649,1.98296031 4.00292381,3.51219819 4.52996104,4.98160838 C3.72384306,5.05388586 2.97444037,5.36824072 2.40071685,5.94265594 C1.00358405,7.34013454 1.12877264,9.77162978 2.61824072,11.5536657 C1.90999122,11.8984533 1.4171906,12.6188066 1.4171906,13.4581237 L1.4171906,14.8746227 C1.4171906,15.7391851 1.93834882,16.4823629 2.68118081,16.8129716 L0.323000547,26.2460388 C0.108934881,27.102993 0.000691649899,27.9841549 0.000691649899,28.8653169 C0.000691649899,34.819385 4.8443159,39.6633551 10.7980382,39.6633551 L15.3376824,39.667505 C15.6599912,40.5061305 16.1565958,41.2544957 16.8440958,41.9423415 C18.1651472,43.2633929 19.9575579,43.9035148 21.8903735,43.9035148 C24.5421592,43.9035148 27.4560802,42.6965858 29.7648076,40.38855 C29.8464223,40.3069353 29.9283828,40.2149459 30.0106891,40.1277981 C31.4375628,42.4282256 33.6439261,43.9128521 36.121416,43.9128521 C40.4169077,43.9128521 43.9121604,39.4648517 43.9121604,33.9973592 C43.9121604,28.5295209 40.4169077,24.0818662 36.121416,24.0818662 Z M3.54193909,15.5828722 C3.15150274,15.5828722 2.83368959,15.2647133 2.83368959,14.8746227 L2.83368959,13.4581237 C2.83368959,13.0676874 3.15150274,12.7498742 3.54193909,12.7498742 L26.205923,12.7498742 C26.5960135,12.7498742 26.9141725,13.0676874 26.9141725,13.4581237 L26.9141725,14.8746227 C26.9141725,15.2647133 26.5960135,15.5828722 26.205923,15.5828722 L3.54193909,15.5828722 Z M3.95485412,10.9204602 C3.32925681,10.2948629 2.93709128,9.52021502 2.85063508,8.73968813 C2.80256539,8.303257 2.86619718,7.90452085 3.01144366,7.5555835 L6.78992702,11.3333753 L4.46252515,11.3333753 C4.26851738,11.1964286 4.09767981,11.0619027 3.95485412,10.9204602 Z M5.83856265,2.59195802 L10.1554955,6.9088908 C9.77162978,7.06900777 9.32551564,7.11119846 8.85035211,7.03926687 C8.70579733,6.8514839 8.55190516,6.66854253 8.37864688,6.49528425 C7.72607518,5.84305835 6.95696049,5.39659832 6.1715921,5.16143735 C5.64455478,4.27923797 5.53008679,3.32510691 5.83856265,2.59195802 Z M23.9054955,2.59472462 C24.2070549,3.32925681 24.0925868,4.29099598 23.5738494,5.16143735 C22.7884809,5.39729001 22.0207495,5.84305835 21.3685237,6.49528425 C21.1949195,6.66854253 21.0406815,6.8521756 20.8968184,7.03995848 C20.4216549,7.11223596 19.9745033,7.06900777 19.5916751,6.90958249 L23.9054955,2.59472462 Z M26.8972271,8.73899652 C26.8100792,9.52021502 26.4182596,10.2941713 25.793008,10.9197686 C25.6505282,11.0619027 25.4793448,11.1964286 25.2849912,11.3333753 L22.9579351,11.3333753 L26.7357269,7.5555835 C26.881665,7.90382925 26.9452968,8.30256539 26.8972271,8.73899652 L26.8972271,8.73899652 Z M19.8316775,8.50037726 C19.8316775,8.48101107 19.8289109,8.46199067 19.8282193,8.44297037 C19.9202087,8.45853247 20.0135815,8.46821557 20.1079917,8.47686117 C19.7628584,9.45208753 19.7500629,10.4657005 20.0830923,11.3333753 L18.5580043,11.3333753 C19.3471768,10.5805144 19.8316775,9.58938001 19.8316775,8.50037726 Z M21.4259306,10.8623616 C21.0130155,9.87848967 21.3529615,8.51386446 22.3700327,7.4967933 C22.9952842,6.8711959 23.7702779,6.47903045 24.5508048,6.39257417 C24.9861985,6.34346707 25.3849346,6.40813627 25.7349095,6.55338284 L21.4259306,10.8623616 Z M14.873931,11.3333753 C12.9566775,11.3333753 11.3990819,10.1056967 11.3434042,8.58302945 C11.7442153,8.68504774 12.0288292,8.87075581 12.3559796,9.08966298 C12.9092995,9.45865822 13.5967995,9.91687626 14.873931,9.91687626 C16.1507168,9.91687626 16.8385626,9.45865822 17.3915367,9.08966298 C17.7197246,8.87075581 18.0043386,8.68504774 18.404458,8.58302945 C18.3484343,10.1056967 16.7911846,11.3333753 14.873931,11.3333753 Z M9.63987049,8.47755277 C9.73393488,8.46890717 9.82765338,8.45922407 9.91964286,8.44366197 C9.91895116,8.46268237 9.91618456,8.48101107 9.91618456,8.50037726 C9.91618456,9.58938001 10.4006854,10.5805144 11.1888204,11.3333753 L9.6640782,11.3333753 C9.99745345,10.4663921 9.98396634,9.45208753 9.63987049,8.47755277 Z M7.37852113,7.4967933 C8.40838778,8.52700576 8.74522133,9.91376386 8.33541878,10.8751572 L4.01364441,6.55338284 C4.36258176,6.40744467 4.76131791,6.34346707 5.19774904,6.39257417 C5.97827593,6.47972206 6.75292381,6.8718876 7.37852113,7.4967933 Z M19.5363431,2.53904682 C20.1615946,1.91344942 20.9365883,1.52128398 21.7171152,1.43482769 C22.1525088,1.3857206 22.5512449,1.45038979 22.9012199,1.59563636 L18.6984092,5.79913856 C18.6327025,5.73031937 18.5604251,5.66737928 18.4902226,5.60201838 C18.252295,4.62886693 18.6551811,3.4205546 19.5363431,2.53904682 L19.5363431,2.53904682 Z M18.0171341,7.22255405 C17.400874,7.38612932 16.9717052,7.66659329 16.6061683,7.91109155 C16.1119845,8.2403169 15.721548,8.50037726 14.873931,8.50037726 C14.0259684,8.50037726 13.6358778,8.2403169 13.1420397,7.91109155 C12.7768485,7.66728498 12.3469882,7.38612932 11.7314198,7.22255405 C12.3172472,6.30404299 13.4985852,5.66737928 14.873931,5.66737928 C16.2492769,5.66737928 17.430615,6.30404299 18.0171341,7.22255405 Z M8.03005533,1.43482769 C8.81127392,1.52197558 9.58523011,1.91344942 10.2108275,2.53904682 C11.088877,3.41709631 11.4948755,4.62817532 11.2583313,5.60132669 C11.1874372,5.66668758 11.1151597,5.73031937 11.0487613,5.79913856 L6.8459507,1.59632797 C7.19557975,1.45038979 7.5943159,1.3864122 8.03005533,1.43482769 Z M1.69765466,26.5897887 L4.09491321,16.9993712 L25.6526031,16.9993712 L27.8185048,25.6619404 C26.6378584,25.4343876 25.3631476,25.4796907 24.0811745,25.7815958 L24.0811745,18.4158702 L5.66668758,18.4158702 L5.66668758,32.5808602 L15.8837399,32.5808602 C15.6648327,33.0459947 15.4836205,33.5190832 15.3342241,33.9973592 L2.95472837,33.9973592 C1.98572691,32.5213783 1.4171906,30.7590543 1.4171906,28.8653169 C1.4171906,28.0996605 1.51125499,27.334004 1.69765466,26.5897887 Z M16.677754,31.1643612 L7.08318658,31.1643612 L7.08318658,19.8323692 L22.6646755,19.8323692 L22.6646755,26.2201019 C21.1537663,26.8035085 19.6815895,27.7400026 18.3989248,29.0223214 C17.734595,29.6866512 17.165713,30.4097712 16.677754,31.1643612 L16.677754,31.1643612 Z M16.3782696,38.2516976 L10.7987298,38.2468561 C8.17253521,38.2468561 5.79844695,37.1588908 4.09352991,35.4138581 L15.0036154,35.4138581 C14.9282256,35.886255 14.8753144,36.3586519 14.873931,36.8272447 L16.29043,36.8331237 C16.2987298,34.473906 17.4326899,31.9929577 19.4004339,30.0245221 C22.6221391,26.8042002 27.1393046,25.9911657 29.8142606,28.0367203 C28.5620284,28.2538984 27.1514085,28.5436997 25.5720259,30.1230822 C23.9324698,31.7626384 23.6803635,33.2223655 23.457998,34.5105634 C23.244624,35.7472334 23.0606451,36.8154866 21.7382105,38.1375755 C20.4157759,39.4600101 19.3478685,39.6432972 18.1111985,39.8573629 C17.7933853,39.9123491 17.4638142,39.9770184 17.1290556,40.0541374 C16.8648453,39.6505596 16.660117,39.2241575 16.5262827,38.7624812 L16.3782696,38.2516976 Z M28.7619152,39.3863494 C25.484878,42.6626949 20.8881728,43.4432219 18.2287789,41.2752452 C18.2706237,41.2679829 18.3103936,41.2596831 18.3529301,41.2524208 C19.6404363,41.0300553 21.1001635,40.7786406 22.7397196,39.1383929 C24.3792757,37.4981451 24.631382,36.0391097 24.8537475,34.7509117 C25.0671215,33.5142417 25.2511003,32.4459885 26.5735349,31.1238997 C27.5062248,30.1912098 28.3130345,29.8284394 29.1416311,29.6195611 C28.6273893,30.9426874 28.3306715,32.4248931 28.3306715,33.9973592 C28.3306715,35.7351295 28.6861796,37.3684608 29.3058979,38.7898014 C29.118115,39.0087085 28.9375943,39.2106703 28.7619152,39.3863494 L28.7619152,39.3863494 Z M29.7471705,33.9973592 C29.7471705,29.5642291 32.3073126,25.917505 35.5591046,25.5364059 C35.5532256,25.5443599 35.548384,25.5519681 35.5428508,25.5599221 C34.8180017,26.5859846 33.9966675,27.748994 33.9966675,29.9799107 C33.9966675,32.2118649 34.8180017,33.37522 35.5428508,34.4030118 C36.2331174,35.3810048 36.8296654,36.2262009 36.8296654,38.0085828 C36.8296654,39.7913104 36.2331174,40.6365065 35.5428508,41.6144995 C35.37478,41.8531187 35.2056715,42.1031502 35.040713,42.3645938 C32.0396441,41.6767479 29.7471705,38.1915241 29.7471705,33.9973592 Z M36.6816525,42.4586582 C36.6878773,42.4493209 36.6937563,42.4410211 36.6999812,42.4316838 C37.4244844,41.4049296 38.2461644,40.2405369 38.2461644,38.0085828 C38.2461644,35.7769744 37.4244844,34.6132734 36.6999812,33.5858275 C36.0093688,32.6074887 35.4131665,31.7626384 35.4131665,29.9799107 C35.4131665,28.1989122 36.0093688,27.3544077 36.6999812,26.3764148 C36.8677062,26.1391788 37.0357772,25.889839 37.2007357,25.6290871 C40.2021504,26.3169329 42.4956614,29.8028484 42.4956614,33.9973592 C42.4956614,38.4315266 39.9344819,42.0782508 36.6816525,42.4586582 Z"/>
    <path fill-rule="nonzero" d="M14.873931,21.2488682 C12.9210576,21.2488682 11.3326836,23.1547095 11.3326836,25.4983652 C11.3326836,27.8416751 12.9210576,29.7478622 14.873931,29.7478622 C16.8264588,29.7478622 18.4151785,27.8416751 18.4151785,25.4983652 C18.4151785,23.1547095 16.8264588,21.2488682 14.873931,21.2488682 Z M12.7491826,25.4983652 C12.7491826,24.2686117 13.3433099,23.2304452 14.1656815,22.8393172 L14.1656815,28.1577591 C13.3433099,27.7659394 12.7491826,26.7277729 12.7491826,25.4983652 L12.7491826,25.4983652 Z M15.5821805,28.1570674 L15.5821805,22.8386255 C16.4045523,23.2297535 16.9986795,24.2679201 16.9986795,25.4976735 C16.9986795,26.7270812 16.4045523,27.7659394 15.5821805,28.1570674 L15.5821805,28.1570674 Z"/>
  </g>
</svg>
