<svg xmlns="http://www.w3.org/2000/svg" width="41" height="44" viewBox="0 0 41 44">
  <path d="M36.7527161,8.06671147 L28.875,8.06671147 C26.1575622,6.47116087 23.1299439,5.47549441 19.9959107,5.14651491 L20.6119079,0.837554953 C20.6693115,0.436401367 20.3910217,0.0647887969 19.9902038,0.00738525391 C19.9556275,0.00234985781 19.9207154,0 19.8858033,0 L15.4858704,0 C15.0810241,0 14.7523803,0.328308062 14.7523803,0.733154297 C14.7523803,0.768066406 14.7550659,0.802978516 14.7597656,0.837554953 L15.375763,5.14651491 C12.2417298,5.47549441 9.21411133,6.47116087 6.49667356,8.06671147 L2.28573606,8.06671147 C2.09136967,8.06671147 1.90505984,8.1439209 1.76742552,8.28155522 L0.30078125,9.74819948 C0.0342407656,10.01474 0.0130920625,10.439392 0.251434305,10.7311096 L6.77395632,18.7001342 L7.42788698,22.8456116 C7.48327637,23.2027893 7.79077148,23.4666443 8.15264897,23.4666443 L8.15264897,27.1334229 C8.15264897,27.538269 8.48095703,27.8665771 8.88580327,27.8665771 L9.61929323,27.8665771 L9.61929323,29.3332214 L8.15264897,29.3332214 C7.79446413,29.3335572 7.48864746,29.5923767 7.42956543,29.9455261 L5.22943111,43.1456604 C5.1626282,43.5451355 5.43218998,43.9231262 5.83166504,43.9899292 C5.87161257,43.9966431 5.91189577,44 5.95251465,44 L29.4191589,44 C29.8243408,44 30.152649,43.6713562 30.1523132,43.26651 C30.1523132,43.2258912 30.1489563,43.185608 30.1422425,43.1456604 L27.9424439,29.9455261 C27.8833619,29.5923767 27.5775452,29.3335572 27.2193604,29.3332214 L25.7523803,29.3332214 L25.7523803,27.8665771 L26.4858704,27.8665771 C26.8910522,27.8665771 27.2193604,27.538269 27.2193604,27.1334229 L27.2193604,23.4666443 C27.5802307,23.4666443 27.8873901,23.2041321 27.9437866,22.8476257 L29.3510131,13.9332885 L33.515625,13.9332885 L33.7516175,14.169281 L31.7592773,23.4666443 L30.152649,23.4666443 C29.7474671,23.4666443 29.4191589,23.7949524 29.4191589,24.2001342 L29.4191589,27.8665771 C29.4191589,28.2717591 29.7474671,28.6000671 30.152649,28.6000671 L36.019226,28.6000671 C36.3616333,28.6000671 36.6583862,28.3634033 36.7342529,28.0293884 L40.4010315,11.8959656 C40.4567566,11.650238 40.3825684,11.3930969 40.2043152,11.2148438 L37.2710266,8.28155522 C37.1333923,8.1439209 36.9470826,8.06671147 36.7527161,8.06671147 Z M16.3314819,1.46664427 L19.0401917,1.46664427 L18.5269165,5.04110716 C17.9646301,5.01995845 17.4026794,5.01995845 16.8403931,5.04110716 L16.3314819,1.46664427 Z M25.6123962,8.06671147 L9.75927734,8.06671147 C14.8319397,5.9508362 20.5397338,5.9508362 25.6123962,8.06671147 Z M20.6565552,22 L14.7164612,22 L14.056488,9.53335573 L21.3108216,9.53335573 L20.6565552,22 Z M1.80703738,10.3158569 L2.58953853,9.53335573 L5.32644655,9.53335573 L6.3190918,15.8326416 L1.80703738,10.3158569 Z M6.81054688,9.53335573 L12.5898438,9.53335573 L13.2498169,22 L8.77871706,22 L6.81054688,9.53335573 Z M8.77368164,30.7998658 L13.2471314,30.7998658 L12.5952148,42.5333557 L6.81860352,42.5333557 L8.77368164,30.7998658 Z M14.0608521,42.5333557 L14.7131042,30.7998658 L20.658905,30.7998658 L21.3108216,42.5333557 L14.0608521,42.5333557 Z M28.55307,42.5333557 L22.7794799,42.5333557 L22.1275635,30.7998658 L26.6010131,30.7998658 L28.55307,42.5333557 Z M24.2857361,29.3332214 L11.0859375,29.3332214 L11.0859375,27.8665771 L24.2857361,27.8665771 L24.2857361,29.3332214 Z M25.7523803,26.3999329 L9.61929323,26.3999329 L9.61929323,23.4666443 L25.7523803,23.4666443 L25.7523803,26.3999329 Z M26.5929565,22 L22.1255494,22 L22.7818298,9.53335573 L28.5611267,9.53335573 L26.5929565,22 Z M35.4324341,27.1334229 L30.8858033,27.1334229 L30.8858033,24.9332885 L32.3524475,24.9332885 C32.6985474,24.9332885 32.9973145,24.6915893 33.0698242,24.3532104 L35.2696228,14.0867005 C35.3216553,13.8436585 35.2467956,13.5905456 35.0708923,13.414978 L34.337738,12.681488 C34.2001038,12.5438538 34.0134583,12.4666443 33.8190918,12.4666443 L29.5826416,12.4666443 L30.0455628,9.53335573 L36.4489135,9.53335573 L38.8793335,11.9657898 L35.4324341,27.1334229 Z"/>
</svg>
