<svg xmlns="http://www.w3.org/2000/svg" width="49" height="30"><g fill="#000" fill-rule="evenodd"><path d="M47.38 23.03a.42.42 0 0 0-.177-.174c-.074-.04-.15-.062-.23-.062s-.156.02-.23.062-.135.098-.176.174a.47.47 0 0 0-.062.232.47.47 0 0 0 .062.232c.043.074.1.134.174.175s.152.062.234.062.157-.02.23-.062.13-.1.173-.175a.47.47 0 0 0 .062-.232.46.46 0 0 0-.062-.232zm-.246.406h-.102l-.062-.154h-.06v.154h-.082v-.392h.164c.02 0 .06.001.102.022.02.02.04.06.04.098s-.02.084-.06.102l.06.17z" fill-rule="nonzero"/><path d="M47.013 23.123c0-.008-.04-.008-.062-.008h-.04v.1h.062s.02 0 .04-.008.02-.028.02-.046 0-.03-.02-.04z"/><g fill-rule="nonzero"><path d="M33.935.716a14.44 14.44 0 0 0-9.723 3.748C21.64 2.137 18.232.72 14.494.72H14.4C6.443.77 0 7.245 0 15.214c0 8.002 6.494 14.494 14.494 14.494 3.738 0 7.145-1.418 9.717-3.745-.537-.485-1.023-1.022-1.482-1.584h2.994a14.5 14.5 0 0 1-1.472 1.552h-.003c-.01.013-.024.02-.036.033a14.43 14.43 0 0 0 9.729 3.749c8.006-.002 14.49-6.494 14.49-14.498A14.5 14.5 0 0 0 33.935.716zm-11.04 5.246h2.754c.408.49.785 1 1.125 1.552H21.86c.314-.52.662-1.05 1.034-1.552zm-1.892 3.075h6.605c.237.503.445 1.02.625 1.553H20.22c.08-.15.36-.754.783-1.553zM13.698 18.7h-1.72l1.024-5.37-2.355 5.37H9.09l-.287-5.334L7.78 18.7H6.223l1.332-6.982h2.683l.123 4.324 1.905-4.324h2.786L13.698 18.7zm6.084-3.017l-.37 2.017-.06.36-.04.288-.02.194-.02.154h-1.433l.04-.587c-.43.468-1.024.685-1.802.685-.922 0-1.557-.633-1.557-1.55 0-1.382 1.106-2.2 3-2.2a7.39 7.39 0 0 1 .696.044c.04-.187.062-.265.062-.37 0-.375-.308-.515-1.106-.515-.492 0-1.045.06-1.413.157l-.246.062-.143.037.225-1.28c.86-.218 1.413-.3 2.048-.3 1.474 0 2.253.577 2.253 1.665 0 .282-.02.493-.123 1.124zm3.422-2.802c1.412 0 2.314.803 2.314 2.062 0 .42-.062.828-.207 1.404h-3.398c-.02.087-.02.126-.02.18 0 .657.512.992 1.495.992.615 0 1.168-.1 1.782-.36l-.286 1.422a6.65 6.65 0 0 1-1.741.229c-1.925 0-2.93-.873-2.93-2.546 0-1.947 1.27-3.38 2.99-3.383zm3.587 10.017h-5.143c-.312-.5-.605-1.013-.856-1.552h6.843c-.25.537-.532 1.053-.844 1.552zm3.15-8.573c-.45-.052-.9-.083-1.25-.083-.554 0-.84.156-.84.46 0 .266.082.33.8.618.88.345 1.23.802 1.23 1.58 0 1.296-.84 1.895-2.684 1.895-.224 0-.53-.017-.94-.047a4.31 4.31 0 0 1-.472-.052l-.307-.056-.082-.016.246-1.3c.553.156 1.026.224 1.557.224.676 0 .983-.158.983-.512 0-.26-.103-.344-.8-.627-.92-.37-1.33-.867-1.33-1.583 0-1.05.676-1.922 2.602-1.922a13.39 13.39 0 0 1 1.535.112l-.245 1.317zm2.685 3.104c.183 0 .326-.018.45-.055l-.225 1.26c-.47.13-.84.186-1.23.186-.88 0-1.352-.443-1.352-1.248 0-.16.02-.33.04-.5l.103-.56.08-.45.8-4.336h1.7l-.245 1.304h.88l-.246 1.382h-.88l-.45 2.37c-.02.103-.02.18-.02.234 0 .295.185.42.597.422zm4.19-2.81c-.82 0-1.084.6-1.7 4.083h-1.72l1.045-5.68h1.557l-.164.862c.533-.67.94-.923 1.495-.923.062 0 .124.006.185.014 0 .003.063.014.146.034.02.006.04.006.184.062l-.612 1.605-.205-.042a1.66 1.66 0 0 0-.211-.015zm3.04 4.232c-1.95 0-2.726-1.178-2.726-2.62 0-2.01 1.33-3.376 3.38-3.376 1.784 0 2.726 1.122 2.726 2.562 0 .353 0 .377-.04.707-.267 1.89-1.578 2.728-3.338 2.726zm3.522-.152a.45.45 0 0 1-.451-.445.45.45 0 0 1 .451-.441.45.45 0 0 1 .451.441.45.45 0 0 1-.451.445z"/><path d="M43.377 17.91c-.184 0-.348.15-.348.336s.164.34.348.34.328-.152.328-.34a.33.33 0 0 0-.328-.336zm.163.534h-.103l-.062-.153h-.062v.153h-.082v-.393h.164c.022 0 .063.002.104.023.02.02.04.058.04.098s-.02.084-.062.102l.062.17z"/></g><path d="M43.417 18.13c.001-.01-.04-.01-.06-.01h-.043v.1h.062s.02 0 .04-.008.02-.028.02-.045 0-.03-.02-.04zm-20.234-3.958c-.553 0-.942.36-1.106 1.02l1.905.004V14.9c0-.46-.287-.73-.8-.73zM17.63 16.14c-.96-.001-1.453.3-1.453.864 0 .353.226.58.614.58.697 0 1.188-.582 1.23-1.422l-.4-.02zm22.838-1.903c-.88 0-1.413 1.035-1.413 1.947 0 .772.368 1.3.983 1.278.37 0 1.167-.5 1.3-1.392a3.59 3.59 0 0 0 .06-.68c0-.592-.245-1.154-.942-1.152z"/></g></svg>