<svg xmlns="http://www.w3.org/2000/svg" width="49" height="30"><g fill="#000" fill-rule="evenodd"><path d="M33.933.716c-3.74.001-7.15 1.42-9.72 3.748A14.44 14.44 0 0 0 14.495.719h-.093C6.444.77 0 7.245 0 15.214c0 8 6.494 14.494 14.494 14.494 3.737 0 7.145-1.417 9.716-3.745-.537-.485-1.023-1.022-1.482-1.584h2.993c-.45.553-.943 1.07-1.472 1.553h-.002c-.012.013-.025.02-.037.032a14.44 14.44 0 0 0 9.728 3.749 14.5 14.5 0 0 0 14.49-14.499c.001-8.01-6.5-14.5-14.495-14.498zM22.894 5.96h2.755c.406.492.783 1 1.125 1.552H21.86a21.68 21.68 0 0 1 1.035-1.552zm-1.89 3.074H27.6c.235.502.443 1.02.625 1.553H20.22c.08-.15.36-.754.783-1.553zm-15.086 9.87l.88-5.542-1.983 5.542H3.75l-.138-5.542-.94 5.542h-1.49l1.234-7.35H4.67l.08 4.5 1.52-4.5h2.443l-1.217 7.35h-1.58zm5.265-.012l.05-.587c-.024.003-.494.71-1.583.71-.57 0-1.5-.31-1.5-1.663 0-1.72 1.402-2.29 2.737-2.29a11.55 11.55 0 0 1 .663.038s.05-.105.05-.39c0-.467-.42-.53-.995-.53-1.013 0-1.682.27-1.682.27l.224-1.33s.812-.34 1.87-.34c.547 0 2.12.058 2.12 1.86l-.606 4.25h-1.36zm5.743-1.872c0 2.05-1.987 1.963-2.334 1.963-1.295 0-1.695-.18-1.732-.19l.206-1.35c.002-.012.65.235 1.37.235.416 0 .956-.04.956-.538 0-.744-1.932-.566-1.932-2.333 0-1.56 1.158-2.015 2.3-2.015.882 0 1.424.12 1.424.12l-.195 1.362s-.837-.07-1.054-.07c-.55 0-.848.12-.848.504-.001.772 1.838.394 1.838 2.31zm2.386.538c.137 0 .292-.047.398-.047l-.193 1.31c-.155.043-.594.2-1.157.203-.72.006-1.23-.396-1.23-1.308 0-.612.877-5.655.91-5.688h1.543l-.157.902h.77L20 14.386h-.817l-.434 2.677c-.033.213.026.497.563.497zm3.394-4.797c1.694 0 2.2 1.24 2.2 2.257 0 .407-.204 1.407-.204 1.407h-3.136s-.3 1.235 1.367 1.235c.777 0 1.64-.38 1.64-.38L24.3 18.77s-.498.254-1.63.254c-1.227 0-2.666-.52-2.666-2.7.001-1.89 1.15-3.56 2.7-3.56zm4.087 10.123H21.65c-.313-.5-.605-1.013-.856-1.552h6.843c-.252.536-.534 1.054-.845 1.552zm-.345-3.97h-1.584l.963-5.982h1.437l-.138.867s.512-.943 1.203-.943c.2 0 .298.02.298.02-.205.418-.386.8-.574 1.8-1.072-.38-1.154 1.693-1.605 4.248zm6.035-.093s-.83.212-1.35.212c-1.842 0-2.777-1.27-2.777-3.196 0-2.903 1.733-4.45 3.514-4.45.805 0 1.738.378 1.738.378l-.252 1.635s-.63-.44-1.416-.44c-1.05 0-1.992 1.002-1.992 2.823 0 .897.44 1.733 1.535 1.733.52 0 1.276-.38 1.276-.38l-.276 1.684zm3.715.073l.052-.59c-.025.003-.495.71-1.583.71-.57 0-1.5-.31-1.5-1.663 0-1.72 1.402-2.29 2.736-2.29.2 0 .664.038.664.038s.052-.104.052-.388c0-.467-.42-.53-.996-.53-1.013 0-1.68.27-1.68.27l.224-1.33s.812-.34 1.87-.34c.546 0 2.12.058 2.12 1.86l-.606 4.25c-.001.003-1.36.003-1.36.003zm3.207.02H37.82l.963-5.982h1.438l-.138.867s.513-.943 1.204-.943c.2 0 .297.02.297.02-.204.418-.387.8-.574 1.8-1.073-.38-1.155 1.693-1.606 4.248zm4.73-.016l.067-.55s-.512.646-1.438.646c-1.283 0-1.912-1.24-1.912-2.505 0-1.958 1.178-3.665 2.592-3.665.9.002 1.49.805 1.49.805l.334-2.065 1.547-.003-1.18 7.338h-1.5zm3.052-.207a.46.46 0 0 1-.173.175.47.47 0 0 1-.233.062.47.47 0 0 1-.231-.062.46.46 0 0 1-.173-.175c-.042-.075-.062-.15-.062-.232s.02-.16.062-.234.102-.134.175-.174.15-.062.23-.062.156.02.23.062.134.098.176.174a.46.46 0 0 1 .062.234.46.46 0 0 1-.062.232z" fill-rule="nonzero"/><path d="M47.06 23.117c-.01-.007-.02-.018-.035-.024s-.04-.01-.08-.01h-.094v.15h.1c.047 0 .078-.004.096-.02s.025-.03.025-.055c0-.016-.004-.027-.012-.04z"/><path d="M47.384 23.027a.43.43 0 0 0-.177-.174c-.075-.04-.15-.062-.23-.062s-.156.02-.23.062-.135.098-.176.174-.062.152-.062.232a.47.47 0 0 0 .062.232c.043.074.1.134.174.175s.152.062.234.062a.47.47 0 0 0 .231-.062c.073-.04.132-.1.173-.175a.46.46 0 0 0 .062-.232.47.47 0 0 0-.062-.232zm-.288.492l-.044-.08c-.035-.062-.064-.103-.086-.12-.014-.01-.036-.018-.064-.018h-.047v.215h-.082v-.505h.174c.06 0 .103.005.127.015s.05.024.064.05.023.048.023.074c0 .037-.014.068-.04.097s-.062.043-.105.046c.018.006.032.016.043.027a.59.59 0 0 1 .075.099l.062.1h-.1z" fill-rule="nonzero"/><path d="M11.022 16.2c-1.13 0-1.36.508-1.36.93a.56.56 0 0 0 .604.582c.93 0 1.122-1.218 1.092-1.477-.044-.01-.072-.035-.336-.036zM22.7 14.144c-.84 0-1.003.957-1.003 1.058H23.4c0-.077.16-1.058-.7-1.058zm21 .166c-.68 0-1.216.788-1.215 1.985 0 .73.26 1.198.816 1.198.836 0 1.24-1.1 1.24-1.904 0-.897-.285-1.28-.84-1.28z"/><path d="M47.115 18.268c-.035-.062-.084-.1-.146-.145a.38.38 0 0 0-.191-.052c-.064 0-.13.018-.19.052s-.11.082-.146.145-.053.13-.053.195.018.133.05.194a.41.41 0 0 0 .146.146.4.4 0 0 0 .193.054c.067 0 .133-.02.193-.054a.38.38 0 0 0 .146-.146.39.39 0 0 0 .051-.194.4.4 0 0 0-.053-.195zm-.217.452l-.045-.078c-.035-.063-.063-.103-.084-.118s-.037-.02-.066-.02h-.046v.214h-.084v-.504h.175c.06 0 .103.005.128.016s.047.026.064.048.023.047.023.074c0 .037-.014.068-.04.096s-.062.04-.104.046c.02.008.033.017.043.026a.51.51 0 0 1 .074.099l.062.1h-.1z" fill-rule="nonzero"/><path d="M36.04 16.2c-1.13 0-1.36.508-1.36.93 0 .218.124.582.604.582.93 0 1.12-1.218 1.092-1.477-.045-.01-.073-.035-.336-.036zm10.824 2.108c-.008-.01-.02-.018-.034-.025s-.042-.01-.082-.01l-.1.001v.152h.1c.047 0 .078-.006.097-.02s.024-.034.024-.056-.004-.027-.013-.04z"/></g></svg>