<svg xmlns="http://www.w3.org/2000/svg" width="40" height="30"><path d="M36.992 2.37c-.077-.078-.077-.157-.154-.157l-.154-.157C34.45.174 31.446-.454 28.21.33c-3.158.706-6.162 2.747-8.473 5.573-.385.47-.77 1.02-1.078 1.49-2.234-3.454-5.47-5.337-8.858-5.18H9.34C6.5 2.528 3.95 4.255 2.177 7.08.483 9.906-.288 13.438.097 17.128c.308 3.69 1.772 6.986 3.928 9.42C6.105 28.823 8.57 30 11.19 30c.308 0 .54 0 .847-.078h.23c3.158-.392 5.854-2.6 7.548-5.965 1.54 1.1 3.39 1.648 5.315 1.648 3.85 0 8.01-2.04 11.092-5.887 2.31-2.826 3.62-6.2 3.774-9.497.077-3.218-1-5.965-3.004-7.85zM5.18 25.448c-2.003-2.12-3.235-5.18-3.543-8.477s.385-6.515 1.926-9.026C5.027 5.51 7.184 4.02 9.57 3.784c2.773 1.648 1.926 4.71.385 9.654-1.463 4.71-3.312 10.44.385 14.913-1.85-.235-3.697-1.177-5.16-2.904zm7.24 2.826c-4.236-3.925-2.62-9.262-1-14.364 1.155-3.61 2.31-7.378.616-9.9 2.234.628 4.313 2.355 5.777 4.945-2.62 5.023-2.388 10.596.77 13.97-1.386 2.904-3.62 4.866-6.162 5.337zm6.778-6.986c-2.696-3.61-2.08-9.654 1.772-14.364 2.08-2.6 4.776-4.395 7.625-5.023.77-.157 1.54-.314 2.31-.314 1.85 0 3.543.55 4.853 1.648.847 3.14-1.926 4.788-6.393 7.143-4.4 2.276-9.628 5.023-10.167 10.9zm19.256-11.146c-.154 2.983-1.386 6.044-3.466 8.555-4.082 5.023-10.32 6.75-14.25 4.003-.23-5.887 4.544-8.4 9.32-10.9 3.312-1.727 6.778-3.532 7.317-6.515.77 1.334 1.155 3.06 1.078 4.866z" fill="#000" fill-rule="nonzero"/></svg>