<svg xmlns="http://www.w3.org/2000/svg" width="51" height="15"><g fill="#000" fill-rule="evenodd"><path d="M9.035 2.604c-.165-.33-.426-.604-.75-.81-.338-.207-.737-.352-1.193-.438a9.75 9.75 0 0 0-1.621-.128l-2.867.002a.72.72 0 0 0-.66.524l-1.93 8.402c-.07.284.117.522.415.522h1.373c.298 0 .593-.23.66-.522l.47-2.04c.063-.284.357-.52.658-.52h.393c1.68-.002 2.98-.345 3.913-1.032S9.3 4.967 9.3 3.84c-.001-.493-.082-.907-.264-1.237zM6.074 5.35c-.415.304-.992.456-1.736.456h-.336c-.3 0-.482-.236-.417-.524l.413-1.784c.058-.286.36-.523.654-.52l.45-.003c.525 0 .926.09 1.194.267s.398.45.396.818c.008.558-.205.987-.618 1.29z" fill-rule="nonzero"/><path d="M48.175 1.887l-.086.026-.115.016-.14-.022-.072-.07-.033-.1-.002-.165V.95h.46v-.2h-.46V.38H47.5v.38h-.154v.2h.154v.7l.106.352.312.112.13-.01.14-.027v-.2zM50.304.86l-.328-.135-.242.05-.246.166-.143-.16-.232-.055-.223.05-.2.136v-.15h-.223v1.335h.222V1.1l.187-.116.186-.046.152.027.075.077.033.128.01.165v.763h.223v-.854l-.004-.07-.004-.065.2-.12.188-.047.147.027.08.077.028.13.015.163v.76h.224v-.867z"/><path d="M15.656 3.805c-.518-.292-1.336-.438-2.454-.438a10.7 10.7 0 0 0-1.66.13l-.704.13c-.522.114-.604.635-.604.635l-.168.7c-.095.44.16.424.265.387.228-.068.355-.138.82-.242.445-.1.914-.177 1.286-.172.55 0 .97.058 1.25.176a.63.63 0 0 1 .414.624l-.024.194-.198.122-2.025.22c-.668.093-1.254.256-1.74.48-.523.23-.9.54-1.182.932-.262.395-.393.874-.393 1.436 0 .53.2.966.56 1.304.37.332.86.494 1.447.494.37-.002.658-.03.862-.08l.665-.23.563-.312.518-.342.007.01-.052.22-.003.01v.002c-.056.268.106.488.367.514l.005.006h1.275l.018-.008a.71.71 0 0 0 .59-.514l1-4.333.052-.353.024-.33c.004-.614-.26-1.07-.78-1.36zm-2.214 4.872l-.214.282-.54.28c-.254.103-.495.155-.718.155-.338 0-.603-.05-.782-.15l-.265-.515c0-.28.064-.5.2-.67l.582-.396c.25-.084.553-.155.905-.204l1.015-.112.095.167-.28 1.163zM40.594 3.8c-.52-.292-1.338-.44-2.453-.44a10.47 10.47 0 0 0-1.66.132l-.707.127c-.52.113-.602.636-.602.636l-.168.7c-.094.44.154.42.27.387.23-.068.352-.135.814-.243.443-.1.916-.174 1.3-.172.547 0 .967.06 1.246.177s.414.328.414.623l-.02.193-.196.125-2.027.218c-.666.093-1.254.255-1.742.48-.52.23-.914.54-1.182.934s-.394.873-.394 1.43c0 .533.188.97.562 1.306.373.33.858.497 1.444.497.37-.004.656-.028.86-.08l.663-.226.568-.312.514-.346.01.01-.047.222-.005.004.002.004a.4.4 0 0 0 .365.514l.002.005H39.7l.02-.007c.27-.033.527-.253.584-.518l1.004-4.327.053-.355.03-.332a1.44 1.44 0 0 0-.784-1.356zm-2.2 4.872l-.223.285-.535.277c-.254.102-.496.155-.715.155-.35 0-.607-.05-.78-.15l-.268-.513c0-.28.065-.5.196-.672.133-.163.336-.297.588-.395a5.1 5.1 0 0 1 .904-.203l1-.113.097.167a36.88 36.88 0 0 1-.273 1.162zM33.97 2.635c-.172-.333-.43-.602-.756-.812a3.37 3.37 0 0 0-1.193-.438 9.44 9.44 0 0 0-1.615-.126l-2.87.002c-.3.005-.586.237-.655.522l-1.93 8.406c-.07.285.122.52.414.52l1.375-.002c.292.002.6-.232.66-.52l.465-2.04a.71.71 0 0 1 .66-.52h.393c1.68 0 2.984-.346 3.922-1.03.927-.693 1.396-1.6 1.396-2.727-.005-.5-.1-.906-.264-1.233zM31 5.385c-.414.298-.992.45-1.732.45h-.342a.41.41 0 0 1-.42-.523l.416-1.78a.7.7 0 0 1 .656-.521l.445-.003c.528.003.924.1 1.194.266s.396.452.4.818c.003.558-.204.988-.616 1.294z" fill-rule="nonzero"/><path d="M45.742 1.85c.063-.287-.117-.52-.412-.516H44.1c-.252 0-.48.187-.6.417l-.068.106-.062.272-1.72 7.814-.056.24.002.006c-.057.257.1.45.345.488l.02.03h1.277c.25 0 .485-.2.592-.424l.066-.1L45.73 1.85zM24.986 3.472H23.34c-.296 0-.676.24-.864.524L20.32 7.7l-.228-.003-.612-3.687c-.068-.3-.37-.538-.748-.538l-1.23.002c-.296 0-.478.236-.4.524l1.12 6.566c.087.7-.01.813-.01.813l-1.216 2.118c-.18.288-.083.523.212.523l1.422-.002c.296 0 .685-.233.86-.522l5.47-9.252c0 .001.526-.8.037-.78z"/></g></svg>