<svg xmlns="http://www.w3.org/2000/svg" width="134" height="76" viewBox="0 0 134 76">
  <g fill="none" fill-rule="evenodd" transform="translate(0 -1)">
    <path fill="#172983" d="M27.6908,5.4112 C28.9828,2.1952 31.4288,0.7372 35.0208,1.0372 C37.2168,1.4852 38.8928,2.5892 40.0408,4.3512 C41.3348,6.3072 41.4608,8.3932 40.4288,10.5952 C39.1188,14.0312 39.2248,17.4712 40.7348,20.9192 C42.3988,24.3512 44.9448,26.7032 48.3708,27.9792 C50.1148,28.6272 51.3628,29.8152 52.1228,31.5392 C52.8748,33.2652 52.8928,35.0272 52.1668,36.8312 C51.4688,38.5672 50.2368,39.8272 48.4748,40.6132 C46.7068,41.4012 44.9508,41.4692 43.2088,40.8212 C41.4628,40.1692 40.2008,39.0152 39.4188,37.3552 C38.6408,35.6972 38.5508,34.0192 39.1608,32.3212 C40.6488,28.8052 40.6628,25.2572 39.2008,21.6832 C37.7808,18.1952 35.3068,15.7552 31.7788,14.3712 C28.1208,12.9332 24.4808,13.0232 20.8628,14.6372 C17.1488,16.2912 14.6248,18.9732 13.2768,22.6892 C12.5388,24.3412 11.3028,25.5252 9.5648,26.2452 C7.8248,26.9672 6.0808,27.0032 4.3388,26.3552 C2.5928,25.7072 1.3468,24.5212 0.5888,22.7952 C-0.1652,21.0732 -0.1952,19.3432 0.5028,17.6052 C1.2268,15.8032 2.4728,14.5092 4.2368,13.7212 C6.0028,12.9372 7.7568,12.8652 9.5008,13.5132 C13.0548,14.8372 16.5508,14.7332 19.9908,13.1992 C23.4948,11.6952 26.0068,9.2252 27.5348,5.7972 L27.6908,5.4112 Z"/>
    <path fill="#F19400" d="M60.8764,45.049 C62.3604,46.775 62.4084,48.595 61.0244,50.503 C60.0224,51.589 58.8004,52.175 57.3664,52.265 C55.7644,52.373 54.4804,51.791 53.5144,50.527 C51.9064,48.721 49.8184,47.701 47.2584,47.465 C44.6524,47.319 42.3964,48.003 40.4904,49.513 C39.5164,50.283 38.3904,50.607 37.1084,50.489 C35.8284,50.369 34.7724,49.827 33.9404,48.859 C33.1384,47.925 32.8004,46.843 32.9244,45.615 C33.0464,44.383 33.5944,43.385 34.5664,42.615 C35.5404,41.847 36.6504,41.505 37.9024,41.589 C39.1544,41.673 40.1824,42.149 40.9904,43.021 C42.5864,44.949 44.6964,46.067 47.3184,46.373 C49.8724,46.673 52.1564,46.057 54.1664,44.523 C56.2504,42.933 57.4164,40.877 57.6684,38.355 C57.9264,35.767 57.1744,33.521 55.4124,31.607 C54.6744,30.679 54.3844,29.619 54.5384,28.423 C54.6924,27.227 55.2544,26.245 56.2264,25.475 C57.1984,24.707 58.3224,24.383 59.6064,24.501 C60.8844,24.619 61.9264,25.143 62.7284,26.077 C63.5584,27.045 63.9144,28.145 63.7904,29.373 C63.6664,30.605 63.1204,31.603 62.1484,32.373 C60.1684,33.941 59.0564,35.919 58.8164,38.319 C58.5384,40.741 59.1684,42.917 60.6984,44.841 L60.8764,45.049 Z"/>
    <path fill="#E1001A" d="M21.4808 45.3194C19.6288 45.5714 18.5728 46.5994 18.3128 48.3954 18.2928 49.5254 18.6808 50.4754 19.4768 51.2474 20.3588 52.1134 21.4488 52.4234 22.7308 52.1754 24.6988 51.9414 26.5048 52.3974 28.1508 53.5454 29.7708 54.7694 30.7168 56.2954 30.9888 58.1234 31.1288 59.0554 31.6108 59.8094 32.4348 60.3854 33.2568 60.9574 34.1888 61.1734 35.2248 61.0314 36.2228 60.8954 37.0328 60.4394 37.6568 59.6694 38.2768 58.8954 38.5188 58.0434 38.3788 57.1114 38.2388 56.1794 37.7768 55.4234 36.9908 54.8454 36.2048 54.2654 35.3288 54.0234 34.3608 54.1214 32.3288 54.4374 30.4528 54.0234 28.7328 52.8854 27.0568 51.7774 26.0568 50.2754 25.7368 48.3834 25.4048 46.4194 25.8768 44.6454 27.1528 43.0614 28.4608 41.4374 30.1748 40.5154 32.2948 40.2934 33.2548 40.1274 34.0228 39.6614 34.6088 38.8954 35.1928 38.1274 35.4168 37.2774 35.2768 36.3454 35.1388 35.4134 34.6588 34.6614 33.8328 34.0874 33.0108 33.5134 32.1028 33.2934 31.1028 33.4314 30.0648 33.5734 29.2348 34.0294 28.6128 34.8034 27.9908 35.5754 27.7488 36.4274 27.8888 37.3594 28.1708 39.2574 27.7088 40.9594 26.4968 42.4654 25.2908 44.0054 23.6908 44.9454 21.7028 45.2874L21.4808 45.3194zM76.519 61.126C80.343 61.126 82.609 59.844 84.649 57.792L81.873 55.152C80.315 56.486 78.927 57.338 76.661 57.338 73.261 57.338 70.909 54.67 70.909 51.47L70.909 51.418C70.909 48.216 73.317 45.604 76.661 45.604 78.643 45.604 80.203 46.404 81.731 47.71L84.509 44.698C82.667 42.99 80.429 41.816 76.689 41.816 70.599 41.816 66.349 46.164 66.349 51.47L66.349 51.524C66.349 56.886 70.683 61.126 76.519 61.126L76.519 61.126zM86.549 60.806L90.855 60.806 90.855 55.526C90.855 52.112 92.611 50.486 95.473 50.486L95.699 50.486 95.699 46.244C93.149 46.136 91.733 47.418 90.855 49.39L90.855 46.51 86.549 46.51 86.549 60.806zM104.027 61.126C106.775 61.126 108.815 60.112 110.233 58.46L107.769 56.406C106.577 57.446 105.529 57.872 104.085 57.872 102.159 57.872 100.799 56.912 100.373 55.072L110.941 55.072C110.969 54.698 110.997 54.326 110.997 54.004 110.997 49.952 108.675 46.244 103.603 46.244 99.185 46.244 96.097 49.604 96.097 53.686L96.097 53.738C96.097 58.112 99.467 61.126 104.027 61.126L104.027 61.126zM100.317 52.538C100.657 50.698 101.817 49.498 103.603 49.498 105.417 49.498 106.549 50.724 106.805 52.538L100.317 52.538zM123.151 61.126C129.271 61.126 133.719 56.778 133.719 51.47L133.719 51.418C133.719 46.11 129.327 41.816 123.209 41.816 117.089 41.816 112.641 46.164 112.641 51.47L112.641 51.524C112.641 56.832 117.031 61.126 123.151 61.126L123.151 61.126zM123.209 57.338C119.695 57.338 117.201 54.67 117.201 51.47L117.201 51.418C117.201 48.216 119.639 45.604 123.151 45.604 126.665 45.604 129.157 48.27 129.157 51.47L129.157 51.524C129.157 54.726 126.721 57.338 123.209 57.338L123.209 57.338z"/>
    <path fill="#172983" d="M67.224 40.4034L71.586 40.4034 71.586 34.8014 74.902 34.8014C79.348 34.8014 82.92 32.5614 82.92 28.2414L82.92 28.1874C82.92 24.3734 80.058 21.7334 75.326 21.7334L67.224 21.7334 67.224 40.4034zM71.586 31.1494L71.586 25.4414 74.958 25.4414C77.14 25.4414 78.5 26.4274 78.5 28.2674L78.5 28.3214C78.5 29.9214 77.224 31.1494 75.044 31.1494L71.586 31.1494zM95.782 40.7234C101.9 40.7234 106.348 36.3754 106.348 31.0694L106.348 31.0154C106.348 25.7074 101.958 21.4134 95.838 21.4134 89.72 21.4134 85.27 25.7614 85.27 31.0694L85.27 31.1214C85.27 36.4294 89.662 40.7234 95.782 40.7234L95.782 40.7234zM95.838 36.9354C92.326 36.9354 89.832 34.2694 89.832 31.0694L89.832 31.0154C89.832 27.8154 92.268 25.1994 95.782 25.1994 99.294 25.1994 101.788 27.8674 101.788 31.0694L101.788 31.1214C101.788 34.3214 99.35 36.9354 95.838 36.9354L95.838 36.9354zM110.23 40.4034L114.594 40.4034 114.594 34.4294 118.02 34.4294 122.27 40.4034 127.37 40.4034 122.526 33.7354C125.048 32.8554 126.776 30.9614 126.776 27.9474L126.776 27.8954C126.776 26.1334 126.182 24.6674 125.076 23.6274 123.772 22.4014 121.818 21.7334 119.296 21.7334L110.23 21.7334 110.23 40.4034zM114.594 30.8014L114.594 25.4414 118.928 25.4414C121.054 25.4414 122.356 26.3474 122.356 28.1074L122.356 28.1614C122.356 29.7354 121.138 30.8014 119.014 30.8014L114.594 30.8014zM17.9212 30.9572L21.4672 30.9572 21.4672 30.2452 19.1332 30.2452 20.1432 29.4532C21.0132 28.7852 21.4192 28.3892 21.4192 27.6652L21.4192 27.6512C21.4192 26.8252 20.7592 26.2712 19.7992 26.2712 18.9232 26.2712 18.4612 26.6212 17.9912 27.2352L18.6092 27.6912C18.9792 27.2272 19.2892 26.9972 19.7372 26.9972 20.1852 26.9972 20.5292 27.2612 20.5292 27.7172 20.5292 28.1312 20.2832 28.4232 19.6112 28.9632L17.9212 30.3172 17.9212 30.9572zM24.1252 31.0372C25.4172 31.0372 26.2712 29.9672 26.2712 28.6472L26.2712 28.6332C26.2712 27.3152 25.4232 26.2572 24.1392 26.2572 22.8492 26.2572 21.9952 27.3272 21.9952 28.6472L21.9952 28.6612C21.9952 29.9812 22.8352 31.0372 24.1252 31.0372L24.1252 31.0372zM24.1392 30.3032C23.3772 30.3032 22.8852 29.5572 22.8852 28.6472L22.8852 28.6332C22.8852 27.7172 23.3692 26.9912 24.1252 26.9912 24.8832 26.9912 25.3812 27.7372 25.3812 28.6472L25.3812 28.6612C25.3812 29.5652 24.9032 30.3032 24.1392 30.3032L24.1392 30.3032zM26.6632 30.9572L30.2112 30.9572 30.2112 30.2452 27.8772 30.2452 28.8872 29.4532C29.7552 28.7852 30.1632 28.3892 30.1632 27.6652L30.1632 27.6512C30.1632 26.8252 29.5032 26.2712 28.5432 26.2712 27.6672 26.2712 27.2032 26.6212 26.7332 27.2352L27.3512 27.6912C27.7232 27.2272 28.0312 26.9972 28.4792 26.9972 28.9292 26.9972 29.2712 27.2612 29.2712 27.7172 29.2712 28.1312 29.0272 28.4232 28.3532 28.9632L26.6632 30.3172 26.6632 30.9572zM32.8692 31.0372C34.1592 31.0372 35.0132 29.9672 35.0132 28.6472L35.0132 28.6332C35.0132 27.3152 34.1652 26.2572 32.8832 26.2572 31.5932 26.2572 30.7372 27.3272 30.7372 28.6472L30.7372 28.6612C30.7372 29.9812 31.5792 31.0372 32.8692 31.0372L32.8692 31.0372zM32.8832 30.3032C32.1192 30.3032 31.6292 29.5572 31.6292 28.6472L31.6292 28.6332C31.6292 27.7172 32.1112 26.9912 32.8692 26.9912 33.6252 26.9912 34.1252 27.7372 34.1252 28.6472L34.1252 28.6612C34.1252 29.5652 33.6472 30.3032 32.8832 30.3032L32.8832 30.3032zM17.9212 25.131L21.4672 25.131 21.4672 24.419 19.1332 24.419 20.1432 23.627C21.0132 22.959 21.4192 22.563 21.4192 21.839L21.4192 21.825C21.4192 20.999 20.7592 20.445 19.7992 20.445 18.9232 20.445 18.4612 20.795 17.9912 21.409L18.6092 21.865C18.9792 21.401 19.2892 21.171 19.7372 21.171 20.1852 21.171 20.5292 21.435 20.5292 21.891 20.5292 22.305 20.2832 22.597 19.6112 23.137L17.9212 24.491 17.9212 25.131zM24.5472 25.211C25.8372 25.211 26.6912 24.141 26.6912 22.821L26.6912 22.807C26.6912 21.487 25.8432 20.431 24.5612 20.431 23.2712 20.431 22.4152 21.501 22.4152 22.821L22.4152 22.835C22.4152 24.155 23.2552 25.211 24.5472 25.211L24.5472 25.211zM24.5612 24.477C23.7972 24.477 23.3052 23.731 23.3052 22.821L23.3052 22.807C23.3052 21.891 23.7892 21.165 24.5472 21.165 25.3032 21.165 25.8012 21.911 25.8012 22.821L25.8012 22.835C25.8012 23.739 25.3252 24.477 24.5612 24.477L24.5612 24.477zM28.4452 25.131L29.2992 25.131 29.2992 20.477 28.7052 20.477 27.3792 20.875 27.5612 21.535 28.4452 21.303 28.4452 25.131zM33.0032 25.131L33.8292 25.131 33.8292 24.095 34.5312 24.095 34.5312 23.427 33.8292 23.427 33.8292 20.477 33.0932 20.477 30.3672 23.513 30.5272 24.095 33.0032 24.095 33.0032 25.131zM31.3892 23.427L33.0032 21.599 33.0032 23.427 31.3892 23.427z"/>
    <polygon fill="#E1001A" points=".309 73.046 3.417 73.046 3.417 73.816 1.207 73.816 1.207 74.634 3.153 74.634 3.153 75.404 1.207 75.404 1.207 76.892 .309 76.892"/>
    <path fill="#E1001A" d="M7.345,74.9796 L7.345,74.9696 C7.345,74.3096 6.833,73.7616 6.109,73.7616 C5.387,73.7616 4.885,74.2996 4.885,74.9576 L4.885,74.9696 C4.885,75.6276 5.399,76.1776 6.121,76.1776 C6.845,76.1776 7.345,75.6396 7.345,74.9796 M3.947,74.9796 L3.947,74.9696 C3.947,73.8756 4.861,72.9796 6.121,72.9796 C7.381,72.9796 8.283,73.8656 8.283,74.9576 L8.283,74.9696 C8.283,76.0636 7.369,76.9576 6.109,76.9576 C4.851,76.9576 3.947,76.0736 3.947,74.9796"/>
    <polygon fill="#E1001A" points="9.076 73.046 9.904 73.046 11.816 75.414 11.816 73.046 12.702 73.046 12.702 76.892 11.938 76.892 9.962 74.448 9.962 76.892 9.076 76.892"/>
    <path fill="#E1001A" d="M15.267 76.128C16.001 76.128 16.497 75.662 16.497 74.98L16.497 74.968C16.497 74.288 16.001 73.81 15.267 73.81L14.573 73.81 14.573 76.128 15.267 76.128zM13.675 73.046L15.267 73.046C16.549 73.046 17.435 73.876 17.435 74.958L17.435 74.968C17.435 76.05 16.549 76.892 15.267 76.892L13.675 76.892 13.675 73.046zM21.4448 74.9796L21.4448 74.9696C21.4448 74.3096 20.9328 73.7616 20.2088 73.7616 19.4868 73.7616 18.9848 74.2996 18.9848 74.9576L18.9848 74.9696C18.9848 75.6276 19.4988 76.1776 20.2208 76.1776 20.9448 76.1776 21.4448 75.6396 21.4448 74.9796M18.0468 74.9796L18.0468 74.9696C18.0468 73.8756 18.9608 72.9796 20.2208 72.9796 21.4808 72.9796 22.3828 73.8656 22.3828 74.9576L22.3828 74.9696C22.3828 76.0636 21.4688 76.9576 20.2088 76.9576 18.9508 76.9576 18.0468 76.0736 18.0468 74.9796"/>
    <polygon fill="#E1001A" points="24.919 73.046 27.997 73.046 27.997 73.798 25.811 73.798 25.811 74.58 27.735 74.58 27.735 75.332 25.811 75.332 25.811 76.138 28.027 76.138 28.027 76.892 24.919 76.892"/>
    <path fill="#E1001A" d="M28.7552 75.2432L28.7552 73.0452 29.6532 73.0452 29.6532 75.2212C29.6532 75.8472 29.9852 76.1712 30.5332 76.1712 31.0812 76.1712 31.4132 75.8592 31.4132 75.2492L31.4132 73.0452 32.3112 73.0452 32.3112 75.2152C32.3112 76.3812 31.6172 76.9512 30.5212 76.9512 29.4252 76.9512 28.7552 76.3752 28.7552 75.2432M35.0268 74.9142C35.4628 74.9142 35.7148 74.6942 35.7148 74.3702L35.7148 74.3602C35.7148 73.9982 35.4448 73.8102 35.0088 73.8102L34.1168 73.8102 34.1168 74.9142 35.0268 74.9142zM33.2188 73.0462L35.0848 73.0462C35.6048 73.0462 36.0048 73.1842 36.2748 73.4362 36.5008 73.6502 36.6228 73.9542 36.6228 74.3162L36.6228 74.3262C36.6228 74.9482 36.2688 75.3362 35.7488 75.5182L36.7448 76.8922 35.6968 76.8922 34.8228 75.6622 34.1168 75.6622 34.1168 76.8922 33.2188 76.8922 33.2188 73.0462zM40.6458 74.9796L40.6458 74.9696C40.6458 74.3096 40.1338 73.7616 39.4098 73.7616 38.6878 73.7616 38.1858 74.2996 38.1858 74.9576L38.1858 74.9696C38.1858 75.6276 38.6998 76.1776 39.4218 76.1776 40.1458 76.1776 40.6458 75.6396 40.6458 74.9796M37.2478 74.9796L37.2478 74.9696C37.2478 73.8756 38.1618 72.9796 39.4218 72.9796 40.6818 72.9796 41.5838 73.8656 41.5838 74.9576L41.5838 74.9696C41.5838 76.0636 40.6698 76.9576 39.4098 76.9576 38.1518 76.9576 37.2478 76.0736 37.2478 74.9796M43.9866 74.9854C44.4346 74.9854 44.6966 74.7334 44.6966 74.4034L44.6966 74.3934C44.6966 74.0134 44.4166 73.8094 43.9686 73.8094L43.2766 73.8094 43.2766 74.9854 43.9866 74.9854zM42.3766 73.0454L44.0446 73.0454C45.0186 73.0454 45.6066 73.5894 45.6066 74.3754L45.6066 74.3874C45.6066 75.2774 44.8726 75.7374 43.9566 75.7374L43.2766 75.7374 43.2766 76.8914 42.3766 76.8914 42.3766 73.0454z"/>
    <polygon fill="#E1001A" points="46.265 73.046 49.343 73.046 49.343 73.798 47.157 73.798 47.157 74.58 49.081 74.58 49.081 75.332 47.157 75.332 47.157 76.138 49.373 76.138 49.373 76.892 46.265 76.892"/>
    <path fill="#E1001A" d="M53.3704 74.9796L53.3704 74.9696C53.3704 74.3096 52.8584 73.7616 52.1344 73.7616 51.4124 73.7616 50.9104 74.2996 50.9104 74.9576L50.9104 74.9696C50.9104 75.6276 51.4244 76.1776 52.1464 76.1776 52.8704 76.1776 53.3704 75.6396 53.3704 74.9796M49.9724 74.9796L49.9724 74.9696C49.9724 73.8756 50.8864 72.9796 52.1464 72.9796 53.4064 72.9796 54.3084 73.8656 54.3084 74.9576L54.3084 74.9696C54.3084 76.0636 53.3944 76.9576 52.1344 76.9576 50.8764 76.9576 49.9724 76.0736 49.9724 74.9796M58.4124 76.128C59.1464 76.128 59.6424 75.662 59.6424 74.98L59.6424 74.968C59.6424 74.288 59.1464 73.81 58.4124 73.81L57.7184 73.81 57.7184 76.128 58.4124 76.128zM56.8204 73.046L58.4124 73.046C59.6944 73.046 60.5804 73.876 60.5804 74.958L60.5804 74.968C60.5804 76.05 59.6944 76.892 58.4124 76.892L56.8204 76.892 56.8204 73.046z"/>
    <polygon fill="#E1001A" points="61.402 76.892 62.3 76.892 62.3 73.046 61.402 73.046"/>
    <path fill="#E1001A" d="M64.7552,76.3312 L65.2852,75.7332 C65.6532,76.0192 66.0372,76.1992 66.5032,76.1992 C66.8712,76.1992 67.0912,76.0632 67.0912,75.8372 L67.0912,75.8272 C67.0912,75.6112 66.9532,75.5012 66.2712,75.3372 C65.4492,75.1392 64.9192,74.9252 64.9192,74.1612 L64.9192,74.1512 C64.9192,73.4532 65.5132,72.9912 66.3452,72.9912 C66.9412,72.9912 67.4472,73.1672 67.8612,73.4812 L67.3952,74.1172 C67.0352,73.8812 66.6792,73.7392 66.3352,73.7392 C65.9912,73.7392 65.8092,73.8872 65.8092,74.0732 L65.8092,74.0852 C65.8092,74.3372 65.9852,74.4192 66.6912,74.5892 C67.5172,74.7932 67.9852,75.0732 67.9852,75.7432 L67.9852,75.7552 C67.9852,76.5192 67.3672,76.9472 66.4872,76.9472 C65.8692,76.9472 65.2452,76.7432 64.7552,76.3312"/>
    <polygon fill="#E1001A" points="68.223 73.046 69.215 73.046 70.281 75.754 71.347 73.046 72.315 73.046 70.665 76.92 69.873 76.92"/>
    <polygon fill="#E1001A" points="72.968 76.892 73.866 76.892 73.866 73.046 72.968 73.046"/>
    <polygon fill="#E1001A" points="74.868 73.046 75.766 73.046 75.766 76.122 77.8 76.122 77.8 76.892 74.868 76.892"/>
    <path fill="#E1001A" d="M78.2786 75.2432L78.2786 73.0452 79.1766 73.0452 79.1766 75.2212C79.1766 75.8472 79.5086 76.1712 80.0566 76.1712 80.6046 76.1712 80.9366 75.8592 80.9366 75.2492L80.9366 73.0452 81.8346 73.0452 81.8346 75.2152C81.8346 76.3812 81.1406 76.9512 80.0446 76.9512 78.9486 76.9512 78.2786 76.3752 78.2786 75.2432M84.3402 74.9854C84.7882 74.9854 85.0502 74.7334 85.0502 74.4034L85.0502 74.3934C85.0502 74.0134 84.7702 73.8094 84.3222 73.8094L83.6302 73.8094 83.6302 74.9854 84.3402 74.9854zM82.7302 73.0454L84.3982 73.0454C85.3722 73.0454 85.9602 73.5894 85.9602 74.3754L85.9602 74.3874C85.9602 75.2774 85.2262 75.7374 84.3102 75.7374L83.6302 75.7374 83.6302 76.8914 82.7302 76.8914 82.7302 73.0454zM88.2054 74.9854C88.6534 74.9854 88.9154 74.7334 88.9154 74.4034L88.9154 74.3934C88.9154 74.0134 88.6354 73.8094 88.1874 73.8094L87.4954 73.8094 87.4954 74.9854 88.2054 74.9854zM86.5954 73.0454L88.2634 73.0454C89.2374 73.0454 89.8254 73.5894 89.8254 74.3754L89.8254 74.3874C89.8254 75.2774 89.0914 75.7374 88.1754 75.7374L87.4954 75.7374 87.4954 76.8914 86.5954 76.8914 86.5954 73.0454zM93.6782 74.9796L93.6782 74.9696C93.6782 74.3096 93.1662 73.7616 92.4422 73.7616 91.7202 73.7616 91.2182 74.2996 91.2182 74.9576L91.2182 74.9696C91.2182 75.6276 91.7322 76.1776 92.4542 76.1776 93.1782 76.1776 93.6782 75.6396 93.6782 74.9796M90.2802 74.9796L90.2802 74.9696C90.2802 73.8756 91.1942 72.9796 92.4542 72.9796 93.7142 72.9796 94.6162 73.8656 94.6162 74.9576L94.6162 74.9696C94.6162 76.0636 93.7022 76.9576 92.4422 76.9576 91.1822 76.9576 90.2802 76.0736 90.2802 74.9796M98.9124 74.9142C99.3484 74.9142 99.6004 74.6942 99.6004 74.3702L99.6004 74.3602C99.6004 73.9982 99.3304 73.8102 98.8944 73.8102L98.0024 73.8102 98.0024 74.9142 98.9124 74.9142zM97.1044 73.0462L98.9704 73.0462C99.4904 73.0462 99.8904 73.1842 100.1604 73.4362 100.3864 73.6502 100.5084 73.9542 100.5084 74.3162L100.5084 74.3262C100.5084 74.9482 100.1544 75.3362 99.6344 75.5182L100.6304 76.8922 99.5824 76.8922 98.7084 75.6622 98.0024 75.6622 98.0024 76.8922 97.1044 76.8922 97.1044 73.0462z"/>
    <polygon fill="#E1001A" points="101.29 73.046 104.368 73.046 104.368 73.798 102.182 73.798 102.182 74.58 104.106 74.58 104.106 75.332 102.182 75.332 102.182 76.138 104.398 76.138 104.398 76.892 101.29 76.892"/>
    <path fill="#E1001A" d="M104.9858,74.9796 L104.9858,74.9696 C104.9858,73.8756 105.8898,72.9796 107.1258,72.9796 C107.8598,72.9796 108.3038,73.1676 108.7278,73.5076 L108.1618,74.1496 C107.8478,73.9036 107.5678,73.7616 107.0958,73.7616 C106.4438,73.7616 105.9238,74.3056 105.9238,74.9576 L105.9238,74.9696 C105.9238,75.6716 106.4378,76.1876 107.1598,76.1876 C107.4858,76.1876 107.7778,76.1116 108.0058,75.9576 L108.0058,75.4076 L107.1018,75.4076 L107.1018,74.6776 L108.8738,74.6776 L108.8738,76.3476 C108.4538,76.6836 107.8778,76.9576 107.1318,76.9576 C105.8598,76.9576 104.9858,76.1176 104.9858,74.9796"/>
    <polygon fill="#E1001A" points="109.748 76.892 110.646 76.892 110.646 73.046 109.748 73.046"/>
    <path fill="#E1001A" d="M114.8548,74.9796 L114.8548,74.9696 C114.8548,74.3096 114.3428,73.7616 113.6188,73.7616 C112.8968,73.7616 112.3948,74.2996 112.3948,74.9576 L112.3948,74.9696 C112.3948,75.6276 112.9088,76.1776 113.6308,76.1776 C114.3548,76.1776 114.8548,75.6396 114.8548,74.9796 M111.4568,74.9796 L111.4568,74.9696 C111.4568,73.8756 112.3708,72.9796 113.6308,72.9796 C114.8908,72.9796 115.7928,73.8656 115.7928,74.9576 L115.7928,74.9696 C115.7928,76.0636 114.8788,76.9576 113.6188,76.9576 C112.3608,76.9576 111.4568,76.0736 111.4568,74.9796"/>
    <polygon fill="#E1001A" points="116.563 73.046 117.391 73.046 119.303 75.414 119.303 73.046 120.189 73.046 120.189 76.892 119.425 76.892 117.449 74.448 117.449 76.892 116.563 76.892"/>
    <path fill="#E1001A" d="M123.4818,75.2824 L122.9398,74.0344 L122.3978,75.2824 L123.4818,75.2824 Z M122.5378,73.0184 L123.3638,73.0184 L125.1138,76.8924 L124.1758,76.8924 L123.8018,76.0304 L122.0758,76.0304 L121.7038,76.8924 L120.7878,76.8924 L122.5378,73.0184 Z"/>
    <polygon fill="#E1001A" points="125.714 73.046 126.612 73.046 126.612 76.122 128.646 76.122 128.646 76.892 125.714 76.892"/>
    <polygon fill="#E1001A" points="129.504 73.046 132.582 73.046 132.582 73.798 130.396 73.798 130.396 74.58 132.32 74.58 132.32 75.332 130.396 75.332 130.396 76.138 132.612 76.138 132.612 76.892 129.504 76.892"/>
    <path fill="#172983" d="M57.3170294,66.8819925 C57.8828382,66.8819925 58.2064412,66.6509175 58.2064412,66.3092425 L58.2064412,66.2973925 C58.2064412,65.9162175 57.8590147,65.7187175 57.2932059,65.7187175 L56.13975,65.7187175 L56.13975,66.8819925 L57.3170294,66.8819925 Z M54.9783529,64.9148925 L57.3924706,64.9148925 C58.0635,64.9148925 58.5836471,65.0590675 58.9310735,65.3256925 C59.2248971,65.5508425 59.3837206,65.8688175 59.3837206,66.2519675 L59.3837206,66.2638175 C59.3837206,66.9175425 58.9231324,67.3283425 58.2521029,67.5179425 L59.5425441,68.9656175 L58.1846029,68.9656175 L57.0529853,67.6680425 L56.13975,67.6680425 L56.13975,68.9656175 L54.9783529,68.9656175 L54.9783529,64.9148925 Z"/>
    <polygon fill="#172983" points="60.427 64.915 64.409 64.915 64.409 65.707 61.58 65.707 61.58 66.528 64.07 66.528 64.07 67.322 61.58 67.322 61.58 68.171 64.447 68.171 64.447 68.965 60.427 68.965"/>
    <path fill="#172983" d="M65.22525,66.9515125 L65.22525,66.9396625 C65.22525,65.7882375 66.3945882,64.8461625 67.9947353,64.8461625 C68.9456912,64.8461625 69.5174559,65.0416875 70.0673824,65.4011375 L69.3367941,66.0785625 C68.9298088,65.8178625 68.5684853,65.6677625 67.9550294,65.6677625 C67.1112794,65.6677625 66.44025,66.2405125 66.44025,66.9278125 L66.44025,66.9396625 C66.44025,67.6802875 67.1033382,68.2253875 68.0384118,68.2253875 C68.4612794,68.2253875 68.8384853,68.1444125 69.1323088,67.9804875 L69.1323088,67.4037875 L67.9629706,67.4037875 L67.9629706,66.6335375 L70.2559853,66.6335375 L70.2559853,68.3912875 C69.714,68.7448125 68.9675294,69.0351375 68.0006912,69.0351375 C66.3568676,69.0351375 65.22525,68.1483625 65.22525,66.9515125"/>
    <polygon fill="#172983" points="71.405 68.965 72.566 68.965 72.566 64.914 71.405 64.914"/>
    <path fill="#172983" d="M78.0298015,66.9515125 L78.0298015,66.9396625 C78.0298015,66.2464375 77.3667132,65.6677625 76.4296544,65.6677625 C75.4945809,65.6677625 74.8453897,66.2345875 74.8453897,66.9278125 L74.8453897,66.9396625 C74.8453897,67.6348625 75.5104632,68.2135375 76.4455368,68.2135375 C77.3806103,68.2135375 78.0298015,67.6467125 78.0298015,66.9515125 M73.632375,66.9515125 L73.632375,66.9396625 C73.632375,65.7882375 74.8156103,64.8461625 76.4455368,64.8461625 C78.0754632,64.8461625 79.2448015,65.7763875 79.2448015,66.9278125 L79.2448015,66.9396625 C79.2448015,68.0910875 78.0595809,69.0351375 76.4296544,69.0351375 C74.8017132,69.0351375 73.632375,68.1029375 73.632375,66.9515125"/>
    <polygon fill="#172983" points="80.257 64.915 81.33 64.915 83.803 67.409 83.803 64.915 84.949 64.915 84.949 68.965 83.96 68.965 81.403 66.39 81.403 68.965 80.257 68.965"/>
    <polygon fill="#172983" points="86.197 64.915 90.179 64.915 90.179 65.707 87.35 65.707 87.35 66.528 89.84 66.528 89.84 67.322 87.35 67.322 87.35 68.171 90.217 68.171 90.217 68.965 86.197 68.965"/>
    <polygon fill="#172983" points="94.7 65.736 93.094 65.736 93.094 64.915 97.47 64.915 97.47 65.736 95.862 65.736 95.862 68.965 94.7 68.965"/>
    <path fill="#172983" d="M102.28275 66.9515125L102.28275 66.9396625C102.28275 66.2464375 101.619662 65.6677625 100.682603 65.6677625 99.7475294 65.6677625 99.0983382 66.2345875 99.0983382 66.9278125L99.0983382 66.9396625C99.0983382 67.6348625 99.7634118 68.2135375 100.698485 68.2135375 101.633559 68.2135375 102.28275 67.6467125 102.28275 66.9515125M97.8853235 66.9515125L97.8853235 66.9396625C97.8853235 65.7882375 99.0685588 64.8461625 100.698485 64.8461625 102.328412 64.8461625 103.49775 65.7763875 103.49775 66.9278125L103.49775 66.9396625C103.49775 68.0910875 102.312529 69.0351375 100.682603 69.0351375 99.0546618 69.0351375 97.8853235 68.1029375 97.8853235 66.9515125M104.117757 68.374895L104.804669 67.74487C105.279154 68.04507 105.777463 68.236645 106.380993 68.236645 106.855478 68.236645 107.14136 68.090495 107.14136 67.853495L107.14136 67.841645C107.14136 67.616495 106.962684 67.501945 106.079228 67.328145 105.01511 67.118795 104.328199 66.893645 104.328199 66.08982L104.328199 66.07797C104.328199 65.34327 105.098493 64.85742 106.176507 64.85742 106.946801 64.85742 107.601949 65.04307 108.137978 65.37092L107.534449 66.04242C107.067904 65.79357 106.607316 65.64347 106.16261 65.64347 105.717904 65.64347 105.48364 65.799495 105.48364 65.996995L105.48364 66.008845C105.48364 66.27547 105.709963 66.360395 106.621213 66.54012 107.693272 66.755395 108.296801 67.04967 108.296801 67.75672L108.296801 67.766595C108.296801 68.572395 107.496728 69.022695 106.357169 69.022695 105.559081 69.022695 104.751066 68.809395 104.117757 68.374895M109.05975 66.9515125L109.05975 66.9396625C109.05975 65.7882375 110.191368 64.8461625 111.813353 64.8461625 112.809971 64.8461625 113.403574 65.1009375 113.895926 65.4702625L113.155412 66.1239875C112.748426 65.8415625 112.3335 65.6677625 111.805412 65.6677625 110.916 65.6677625 110.27475 66.2345875 110.27475 66.9278125L110.27475 66.9396625C110.27475 67.6348625 110.900118 68.2135375 111.805412 68.2135375 112.408941 68.2135375 112.780191 68.0278875 113.195118 67.7375625L113.933647 68.3103125C113.389676 68.7566625 112.786147 69.0351375 111.767691 69.0351375 110.215191 69.0351375 109.05975 68.1147875 109.05975 66.9515125M117.880015 67.269685L117.177221 65.95631 116.476412 67.269685 117.880015 67.269685zM116.657074 64.88586L117.729132 64.88586 119.990382 68.964235 118.777368 68.964235 118.294941 68.055735 116.061485 68.055735 115.579059 68.964235 114.395824 68.964235 116.657074 64.88586z"/>
    <polygon fill="#172983" points="120.78 64.915 121.852 64.915 124.325 67.409 124.325 64.915 125.471 64.915 125.471 68.965 124.482 68.965 121.925 66.39 121.925 68.965 120.78 68.965"/>
    <path fill="#172983" d="M129.820963,67.269685 L129.118169,65.95631 L128.41736,67.269685 L129.820963,67.269685 Z M128.598022,64.88586 L129.670081,64.88586 L131.931331,68.964235 L130.718316,68.964235 L130.23589,68.055735 L128.002434,68.055735 L127.520007,68.964235 L126.336772,68.964235 L128.598022,64.88586 Z"/>
  </g>
</svg>
