<svg xmlns="http://www.w3.org/2000/svg" xmlns:xlink="http://www.w3.org/1999/xlink" width="44" height="61"><defs><path id="A" d="M0 0h44v27.036H0z"/></defs><g transform="translate(0 .25)" fill="none"><path d="M6.09 41.123c.66-.66 1.5-1.09 2.39-1.25v1.256c0 2.67.6 5.3 1.747 7.687h-.95c-1.204 0-2.335-.47-3.186-1.32s-1.32-1.983-1.32-3.186.47-2.335 1.32-3.186m3.186 9.283h2.27c.284 0 .547-.152.69-.398s.142-.55-.001-.795a16.16 16.16 0 0 1-2.163-8.084v-2.12c0-.44-.356-.795-.795-.795-1.628 0-3.16.634-4.31 1.786S3.18 42.68 3.18 44.31s.634 3.16 1.786 4.31 2.682 1.786 4.31 1.786" fill="#000"/><g transform="translate(0 31.852)"><mask id="B" fill="#fff"><use xlink:href="#A"/></mask><path d="M43.205 0h-8.137a9.12 9.12 0 0 1 .299 1.59h7.042v7.687c0 8.915-7.253 16.17-16.17 16.17A16.02 16.02 0 0 1 14.5 20.393c-.15-.16-.36-.248-.577-.248H9.277c-2.053 0-3.983-.8-5.435-2.25S1.6 14.51 1.6 12.458s.8-3.984 2.25-5.435 3.382-2.25 5.435-2.25c.44 0 .795-.356.795-.795V1.6h7.042A9.12 9.12 0 0 1 17.415 0H9.277c-.44 0-.795.356-.795.795v2.42c-2.178.184-4.2 1.12-5.765 2.684C.965 7.65 0 9.98 0 12.458s.965 4.808 2.717 6.56 4.082 2.717 6.56 2.717h4.308c3.364 3.422 7.845 5.3 12.656 5.3 9.792 0 17.76-7.967 17.76-17.76V.795c0-.44-.356-.795-.795-.795" mask="url(#B)" fill="#000"/></g><path d="M25.036 41.006c.37-.236.48-.727.244-1.098a11 11 0 0 1-1.637-5.55 2.6 2.6 0 0 1 1.287-2.265c.38-.222.506-.7.285-1.088a.8.8 0 0 0-.696-.394.79.79 0 0 0-.392.109c-1.296.758-2.1 2.16-2.074 3.655a12.5 12.5 0 0 0 1.885 6.386c.236.37.727.48 1.098.244M34.3 51.307a12.84 12.84 0 0 1-8.058 2.81c-7.162 0-12.988-5.826-12.988-12.988v-4.475c1.04.088 1.65.35 2.336.646.535.23 1.115.48 1.9.64a18.04 18.04 0 0 1-.303-1.716c-.345-.1-.654-.243-.98-.383-.878-.378-1.873-.807-3.76-.807-.44 0-.795.356-.795.795v5.3c0 8.038 6.54 14.578 14.578 14.578 3.318 0 6.446-1.1 9.046-3.154.344-.273.402-.773.13-1.117s-.773-.402-1.117-.13m6.297-16.04a.79.79 0 0 0-.562-.233c-1.887 0-2.882.43-3.76.807l-.96.377-.28 1.713c.775-.16 1.344-.403 1.87-.63.686-.295 1.295-.558 2.336-.646v4.475a12.84 12.84 0 0 1-2.81 8.058c-.273.344-.215.844.13 1.117s.844.215 1.117-.13a14.41 14.41 0 0 0 3.154-9.046v-5.3c0-.2-.084-.413-.233-.562m-10.162 6.017c-1.162 2.068-2.647 3.263-4.074 3.278s-2.937-1.147-4.144-3.188c-1.2-2.03-1.932-4.638-1.958-6.977a6 6 0 0 1 2.966-5.23c1.62-.948 2.56-2.772 2.458-4.76l-.306-5.024-.355-5.262-.854-10.795a1.64 1.64 0 0 1 .444-1.213c.3-.33.73-.515 1.183-.52a1.63 1.63 0 0 1 1.194.494 1.63 1.63 0 0 1 .47 1.203l-.47 10.475-.218 5.618-.176 5.013c-.06 2 .922 3.795 2.56 4.707a6 6 0 0 1 3.08 5.164c.026 2.34-.65 4.963-1.805 7.018m3.395-7.035c-.03-2.7-1.523-5.216-3.897-6.536-1.1-.612-1.786-1.896-1.745-3.27l.863-21.107a3.21 3.21 0 0 0-.92-2.365A3.21 3.21 0 0 0 25.77 0a3.21 3.21 0 0 0-2.325 1.021 3.21 3.21 0 0 0-.874 2.384l1.514 21.08c.07 1.372-.586 2.67-1.673 3.307-2.344 1.372-3.782 3.9-3.753 6.62.03 2.606.843 5.5 2.18 7.77 1.527 2.582 3.5 4 5.53 3.97 4.27-.047 7.5-6.437 7.45-11.904" fill="#000"/></g></svg>