<svg xmlns="http://www.w3.org/2000/svg" width="96" height="75" viewBox="0 0 96 75">
  <g fill="none" fill-rule="evenodd">
    <polygon fill="#004493" points=".223 65.701 95.486 65.701 95.486 .438 .223 .438"/>
    <polygon fill="#FFEB00" points="47.917 6.424 48.677 8.786 51.159 8.78 49.149 10.232 49.919 12.59 47.917 11.127 45.913 12.59 46.686 10.232 44.675 8.78 47.157 8.786"/>
    <polygon fill="#FFEB00" points="37.164 9.395 37.924 11.757 40.406 11.748 38.395 13.205 39.168 15.561 37.166 14.098 35.162 15.561 35.932 13.205 33.922 11.75 36.404 11.757"/>
    <polygon fill="#FFEB00" points="26.484 19.468 28.964 19.512 29.76 17.162 30.484 19.535 32.967 19.564 30.935 20.99 31.67 23.358 29.689 21.868 27.663 23.297 28.472 20.952"/>
    <polygon fill="#FFEB00" points="23.099 30.22 25.579 30.226 26.344 27.868 27.099 30.228 29.584 30.224 27.573 31.675 28.341 34.035 26.341 32.572 24.335 34.033 25.108 31.675"/>
    <polygon fill="#FFEB00" points="27.76 44.638 28.531 42.28 26.524 40.828 29.004 40.832 29.766 38.474 30.524 40.832 33.006 40.828 30.998 42.28 31.764 44.638 29.764 43.175"/>
    <polygon fill="#FFEB00" points="35.16 52.352 35.931 49.996 33.923 48.539 36.403 48.546 37.165 46.186 37.923 48.546 40.405 48.539 38.396 49.996 39.165 52.352 37.165 50.889"/>
    <polygon fill="#FFEB00" points="50.01 55.177 48.006 53.714 46 55.177 46.772 52.821 44.764 51.366 47.244 51.373 48.006 49.011 48.768 51.373 51.246 51.366 49.238 52.821"/>
    <polygon fill="#FFEB00" points="60.736 52.251 58.723 50.805 56.732 52.279 57.488 49.916 55.467 48.474 57.947 48.466 58.692 46.1 59.467 48.453 61.949 48.434 59.947 49.902"/>
    <polygon fill="#FFEB00" points="68.141 44.568 66.137 43.107 64.133 44.568 64.906 42.21 62.895 40.76 65.375 40.762 66.135 38.402 66.899 40.762 69.377 40.756 67.367 42.21"/>
    <polygon fill="#FFEB00" points="69.377 19.397 67.369 20.85 68.141 23.208 66.141 21.747 64.137 23.212 64.905 20.852 62.895 19.402 65.375 19.406 66.135 17.044 66.899 19.406"/>
    <polygon fill="#FFEB00" points="66.386 30.22 68.868 30.226 69.626 27.868 70.386 30.228 72.87 30.224 70.859 31.675 71.628 34.035 69.626 32.572 67.624 34.033 68.394 31.675"/>
    <polygon fill="#FFEB00" points="58.69 9.319 59.448 11.681 61.93 11.674 59.92 13.129 60.695 15.485 58.69 14.022 56.686 15.485 57.459 13.129 55.45 11.674 57.928 11.681"/>
    <path fill="#191927" d="M2.72926316,67.6326316 L4.18821053,67.6326316 L4.18821053,71.5505263 C4.18821053,72.1715789 4.20715789,72.5757895 4.24294737,72.7589474 C4.30610526,73.0557895 4.45557895,73.2936842 4.69136842,73.4726316 C4.92505263,73.6515789 5.24715789,73.7421053 5.65557895,73.7421053 C6.06821053,73.7421053 6.38189474,73.6557895 6.59242105,73.4873684 C6.80294737,73.3189474 6.92926316,73.1105263 6.97347368,72.8621053 C7.01557895,72.6157895 7.03663158,72.2073684 7.03663158,71.6347368 L7.03663158,67.6326316 L8.49768421,67.6326316 L8.49768421,71.4326316 C8.49768421,72.3 8.45768421,72.9147368 8.37978947,73.2726316 C8.29978947,73.6305263 8.15452632,73.9336842 7.94189474,74.18 C7.72926316,74.4284211 7.44505263,74.6242105 7.09136842,74.7694737 C6.73557895,74.9168421 6.27242105,74.9905263 5.69978947,74.9905263 C5.00926316,74.9905263 4.48505263,74.9105263 4.12715789,74.7505263 C3.77136842,74.5905263 3.48926316,74.3842105 3.28084211,74.1273684 C3.07452632,73.8726316 2.93768421,73.6052632 2.87242105,73.3273684 C2.77557895,72.9126316 2.72926316,72.3 2.72926316,71.4915789 L2.72926316,67.6326316 Z"/>
    <polygon fill="#191927" points="10.051 74.866 10.051 67.633 11.472 67.633 14.432 72.462 14.432 67.633 15.79 67.633 15.79 74.866 14.323 74.866 11.409 70.148 11.409 74.866"/>
    <polygon fill="#191927" points="17.288 74.865 18.749 74.865 18.749 67.632 17.288 67.632"/>
    <path fill="#191927" d="M21.3496842,71.2448421 C21.3496842,72.0637895 21.5391579,72.6848421 21.9181053,73.108 C22.2949474,73.5290526 22.7749474,73.7416842 23.3581053,73.7416842 C23.9391579,73.7416842 24.4191579,73.5311579 24.7917895,73.1122105 C25.1644211,72.6932632 25.3517895,72.0637895 25.3517895,71.2258947 C25.3517895,70.3964211 25.1686316,69.7774737 24.8065263,69.3690526 C24.4423158,68.9627368 23.9602105,68.7585263 23.3581053,68.7585263 C22.756,68.7585263 22.2696842,68.9648421 21.9033684,69.3774737 C21.5328421,69.7901053 21.3496842,70.4111579 21.3496842,71.2448421 M19.8444211,71.2932632 C19.8444211,70.5564211 19.9538947,69.9374737 20.1749474,69.4385263 C20.3412632,69.0701053 20.5644211,68.7395789 20.8486316,68.4469474 C21.1328421,68.1543158 21.4444211,67.9374737 21.7854737,67.7964211 C22.2338947,67.6048421 22.7538947,67.5101053 23.3433684,67.5101053 C24.4086316,67.5101053 25.2612632,67.8406316 25.9012632,68.5016842 C26.5412632,69.1627368 26.8612632,70.0827368 26.8612632,71.2595789 C26.8612632,72.428 26.5433684,73.3416842 25.9096842,74.0006316 C25.2738947,74.6595789 24.4254737,74.9901053 23.3644211,74.9901053 C22.2865263,74.9901053 21.4317895,74.6616842 20.7981053,74.0048421 C20.1623158,73.3501053 19.8444211,72.4448421 19.8444211,71.2932632"/>
    <polygon fill="#191927" points="28.016 74.866 28.016 67.633 29.437 67.633 32.397 72.462 32.397 67.633 33.755 67.633 33.755 74.866 32.288 74.866 29.374 70.148 29.374 74.866"/>
    <polygon fill="#191927" points="35.298 74.866 35.298 67.633 40.662 67.633 40.662 68.858 36.759 68.858 36.759 70.46 40.391 70.46 40.391 71.679 36.759 71.679 36.759 73.647 40.799 73.647 40.799 74.866"/>
    <polygon fill="#191927" points="44.846 74.866 44.846 67.633 50.21 67.633 50.21 68.858 46.307 68.858 46.307 70.46 49.938 70.46 49.938 71.679 46.307 71.679 46.307 73.647 50.347 73.647 50.347 74.866"/>
    <path fill="#191927" d="M51.5768421 67.6326316L53.0357895 67.6326316 53.0357895 71.5505263C53.0357895 72.1715789 53.0568421 72.5757895 53.0926316 72.7589474 53.1557895 73.0557895 53.3031579 73.2936842 53.5368421 73.4726316 53.7705263 73.6515789 54.0968421 73.7421053 54.5031579 73.7421053 54.9178947 73.7421053 55.2315789 73.6557895 55.44 73.4873684 55.6505263 73.3189474 55.7768421 73.1105263 55.8189474 72.8621053 55.8631579 72.6157895 55.8842105 72.2073684 55.8842105 71.6347368L55.8842105 67.6326316 57.3431579 67.6326316 57.3431579 71.4326316C57.3431579 72.3 57.3031579 72.9147368 57.2252632 73.2726316 57.1473684 73.6305263 57.0021053 73.9336842 56.7894737 74.18 56.5747368 74.4284211 56.2905263 74.6242105 55.9368421 74.7694737 55.5831579 74.9168421 55.12 74.9905263 54.5494737 74.9905263 53.8568421 74.9905263 53.3305263 74.9105263 52.9747368 74.7505263 52.6189474 74.5905263 52.3368421 74.3842105 52.1284211 74.1273684 51.9221053 73.8726316 51.7852632 73.6052632 51.72 73.3273684 51.6231579 72.9126316 51.5768421 72.3 51.5768421 71.4915789L51.5768421 67.6326316zM60.3473684 70.6917895L61.4294737 70.6917895C62.1305263 70.6917895 62.5684211 70.6623158 62.7410526 70.6033684 62.9157895 70.5444211 63.0526316 70.4412632 63.1515789 70.2981053 63.2505263 70.1528421 63.2989474 69.9717895 63.2989474 69.7549474 63.2989474 69.5107368 63.2336842 69.3149474 63.1052632 69.1654737 62.9747368 69.016 62.7894737 68.9212632 62.5536842 68.8812632 62.4357895 68.8644211 62.08 68.856 61.4884211 68.856L60.3473684 68.856 60.3473684 70.6917895zM58.8884211 74.8665263L58.8884211 67.6328421 61.9621053 67.6328421C62.7347368 67.6328421 63.2947368 67.6981053 63.6463158 67.8286316 63.9957895 67.9570526 64.2778947 68.1886316 64.4884211 68.5212632 64.6968421 68.8517895 64.8042105 69.2328421 64.8042105 69.6602105 64.8042105 70.2033684 64.6442105 70.6517895 64.3263158 71.0054737 64.0063158 71.3591579 63.5305263 71.5823158 62.8947368 71.6728421 63.2084211 71.8581053 63.4694737 72.0602105 63.6757895 72.2812632 63.8821053 72.5002105 64.16 72.8917895 64.5094737 73.4538947L65.3915789 74.8665263 63.6442105 74.8665263 62.5873684 73.2917895C62.2147368 72.7296842 61.9578947 72.376 61.8189474 72.2286316 61.68 72.0833684 61.5326316 71.9823158 61.3789474 71.9275789 61.2252632 71.8749474 60.9810526 71.8454737 60.6442105 71.8454737L60.3473684 71.8454737 60.3473684 74.8665263 58.8884211 74.8665263zM67.3909474 71.2448421C67.3909474 72.0637895 67.5804211 72.6848421 67.9593684 73.108 68.3362105 73.5290526 68.8162105 73.7416842 69.3972632 73.7416842 69.9804211 73.7416842 70.4583158 73.5311579 70.8330526 73.1122105 71.2056842 72.6932632 71.3909474 72.0637895 71.3909474 71.2258947 71.3909474 70.3964211 71.2098947 69.7774737 70.8477895 69.3690526 70.4835789 68.9627368 69.9993684 68.7585263 69.3972632 68.7585263 68.7972632 68.7585263 68.3109474 68.9648421 67.9425263 69.3774737 67.5741053 69.7901053 67.3909474 70.4111579 67.3909474 71.2448421M65.8856842 71.2932632C65.8856842 70.5564211 65.9951579 69.9374737 66.2141053 69.4385263 66.3804211 69.0701053 66.6056842 68.7395789 66.8898947 68.4469474 67.172 68.1543158 67.4856842 67.9374737 67.8246316 67.7964211 68.2751579 67.6048421 68.7951579 67.5101053 69.3825263 67.5101053 70.4498947 67.5101053 71.3004211 67.8406316 71.9425263 68.5016842 72.5825263 69.1627368 72.9004211 70.0827368 72.9004211 71.2595789 72.9004211 72.428 72.5846316 73.3416842 71.9488421 74.0006316 71.3130526 74.6595789 70.4667368 74.9901053 69.4035789 74.9901053 68.3277895 74.9901053 67.4730526 74.6616842 66.8372632 74.0048421 66.2035789 73.3501053 65.8856842 72.4448421 65.8856842 71.2932632M75.5016842 68.8568421L75.5016842 70.9094737 76.3016842 70.9094737C76.8764211 70.9094737 77.2616842 70.8715789 77.4553684 70.7957895 77.6511579 70.72 77.8027368 70.6021053 77.9122105 70.44 78.0216842 70.28 78.0785263 70.0905263 78.0785263 69.8778947 78.0785263 69.6147368 78.0006316 69.3978947 77.8448421 69.2273684 77.6911579 69.0547368 77.4953684 68.9473684 77.2574737 68.9052632 77.0848421 68.8736842 76.7332632 68.8568421 76.2069474 68.8568421L75.5016842 68.8568421zM74.0427368 74.8652632L74.0427368 67.6315789 76.3858947 67.6315789C77.2743158 67.6315789 77.8511579 67.6694737 78.1206316 67.7410526 78.5353684 67.8484211 78.8827368 68.0863158 79.1627368 68.4505263 79.4427368 68.8126316 79.5816842 69.2821053 79.5816842 69.8589474 79.5816842 70.3031579 79.5016842 70.6757895 79.3395789 70.9789474 79.1795789 71.28 78.9732632 71.5178947 78.7248421 71.6905263 78.4785263 71.8631579 78.2258947 71.9768421 77.9690526 72.0336842 77.6195789 72.1031579 77.1164211 72.1389474 76.4532632 72.1389474L75.5016842 72.1389474 75.5016842 74.8652632 74.0427368 74.8652632z"/>
    <polygon fill="#191927" points="80.781 74.866 80.781 67.633 86.143 67.633 86.143 68.858 82.24 68.858 82.24 70.46 85.872 70.46 85.872 71.679 82.24 71.679 82.24 73.647 86.282 73.647 86.282 74.866"/>
    <path fill="#191927" d="M91.3528421,72.0044211 L90.3570526,69.3202105 L89.3802105,72.0044211 L91.3528421,72.0044211 Z M94.0412632,74.8654737 L92.4538947,74.8654737 L91.8223158,73.2233684 L88.9317895,73.2233684 L88.3338947,74.8654737 L86.7844211,74.8654737 L89.6012632,67.6317895 L91.1465263,67.6317895 L94.0412632,74.8654737 Z"/>
  </g>
</svg>
