<svg xmlns="http://www.w3.org/2000/svg" width="48" height="16"><g fill="#000" fill-rule="evenodd"><path d="M19.153.8l-2.43 14.266H20.6L23.043.8zm-5.7.015l-3.808 9.73-.406-1.47C8.5 7.305 6.366 4.763 3.863 3.16l3.482 11.897 4.114-.007L17.58.812l-4.12.003zm-5.69 1.02C7.546.967 6.9.708 6.078.677H.05L0 .96C4.7 2.1 7.795 4.84 9.083 8.138l-1.3-6.302zm23.15 1.698c1.272-.02 2.194.258 2.9.546l.35.165.526-3.092c-.77-.3-1.977-.6-3.483-.6-3.842 0-6.55 1.935-6.57 4.708-.025 2.05 1.93 3.193 3.405 3.876 1.515.7 2.023 1.145 2.016 1.77-.012.955-1.208 1.393-2.325 1.393-1.557 0-2.384-.215-3.66-.747l-.5-.228-.547 3.193c.9.4 2.6.742 4.332.76 4.087 0 6.743-1.912 6.77-4.875.017-1.62-1.02-2.858-3.267-3.873-1.36-.662-2.192-1.102-2.184-1.77 0-.593.706-1.227 2.228-1.227z"/><path d="M44.688.815h-3.004c-.933 0-1.627.254-2.037 1.184l-5.773 13.074h4.083l.817-2.143 4.98.006.474 2.137h3.607L44.688.815zM39.893 10l1.55-3.987c-.02.04.317-.825.518-1.362l.262 1.23.9 4.12h-3.23z" fill-rule="nonzero"/></g></svg>