<?xml version="1.0" encoding="UTF-8"?>
<svg width="180px" height="52px" viewBox="0 0 180 52" version="1.1" xmlns="http://www.w3.org/2000/svg" xmlns:xlink="http://www.w3.org/1999/xlink">
    <!-- Generator: Sketch 52.3 (67297) - http://www.bohemiancoding.com/sketch -->
    <g id="mokarico-logo" stroke="none" stroke-width="1" fill="none" fill-rule="evenodd">
        <g id="mokarico-logo-wrap" transform="translate(-39.000000, -14.000000)" fill="#EE5827">
            <g id="mokarico-logo-content" transform="translate(39.000000, 14.000000)">
                <polygon id="Fill-1" points="17.550077 18.9608524 11.7746705 29.2078072 5.9982368 18.9608524 -5.13552068e-05 18.9608524 -5.13552068e-05 39.8687415 4.29760913 39.8687415 4.29760913 25.5024981 10.5354693 36.2900615 12.9550699 36.2900615 19.2219458 25.4976277 19.2219458 39.8687415 23.5203766 39.8687415 23.5203766 18.9608524"></polygon>
                <path d="M44.216525,33.572305 C43.0669387,34.7609261 41.6952411,35.3371652 40.0215749,35.3371652 C38.3468816,35.3371652 36.9744137,34.7609261 35.8255977,33.572305 C34.6721598,32.3813769 34.1121312,30.9720521 34.1121312,29.2699938 C34.1121312,27.5663975 34.6721598,26.1609178 35.8271384,24.9692207 C36.9759544,23.7800869 38.3481655,23.2043605 40.0215749,23.2043605 C41.6952411,23.2043605 43.0669387,23.7800869 44.216525,24.9692207 C45.3691926,26.1609178 45.930505,27.5687046 45.930505,29.2699938 C45.930505,30.9720521 45.3691926,32.3813769 44.216525,33.572305 M47.848622,21.5653604 C45.7440856,19.5134061 43.1111041,18.4739714 40.0215749,18.4739714 C36.9307618,18.4739714 34.2977803,19.5134061 32.1935007,21.5653604 C30.0876805,23.6196217 29.0189786,26.2111593 29.0189786,29.2699938 C29.0189786,32.3301101 30.0876805,34.9236983 32.1960685,36.9784723 C34.299321,39.0286322 36.9333295,40.0683232 40.0215749,40.0683232 C43.1095635,40.0683232 45.7420314,39.0286322 47.848622,36.9784723 C49.9544422,34.9236983 51.022117,32.3301101 51.022117,29.2699938 C51.022117,26.2111593 49.9544422,23.6196217 47.848622,21.5653604" id="Fill-2"></path>
                <polygon id="Fill-4" points="63.0465535 29.3920858 73.9166534 18.2441167 66.6588787 18.2441167 59.981418 25.1492441 59.981418 18.2441167 54.9296063 18.2441167 54.9296063 40.3190949 59.981418 40.3190949 59.981418 33.3386052 67.8110328 40.0414851 74.6890357 40.1035179"></polygon>
                <path d="M91.0001683,31.2870611 L85.130525,31.2870611 L88.0657318,24.6421127 L91.0001683,31.2870611 Z M90.1692411,18.9609806 L85.9604251,18.9609806 L76.7331783,39.8688697 L81.345903,39.8688697 L83.3513238,35.3194525 L92.7788559,35.3194525 L94.7832496,39.8688697 L99.3987989,39.8688697 L90.1692411,18.9609806 Z" id="Fill-6"></path>
                <path d="M114.304827,25.911556 C114.304827,26.9430443 114.046767,27.6866695 113.537837,28.1244881 C113.172188,28.4392664 112.319949,28.8132578 110.329678,28.8132578 L106.999292,28.8132578 L106.999292,23.2943851 L110.406967,23.2943851 C112.312502,23.2943851 113.168593,23.6063436 113.550419,23.8701114 C114.05216,24.2135991 114.304827,24.9000617 114.304827,25.911556 M119.147623,25.909249 C119.147623,23.5032973 118.424029,21.7166488 116.99507,20.6031336 C115.582802,19.497821 113.344228,18.9608011 110.151218,18.9608011 L102.242773,18.9608011 L102.242773,39.8686903 L106.542745,39.8686903 L106.542745,33.1450474 L110.286026,33.1450474 L115.070534,39.8686903 L120.501603,39.8686903 L115.096725,32.3788648 C117.785683,31.3563482 119.147623,29.1823788 119.147623,25.909249" id="Fill-8"></path>
                <polygon id="Fill-10" points="125.248673 39.8686646 130.464308 39.8686646 130.464308 18.9607755 125.248673 18.9607755"></polygon>
                <path d="M141.565738,24.7059912 C142.819575,23.5160884 144.331729,22.935748 146.190531,22.935748 C147.238947,22.935748 148.154611,23.1015962 148.913897,23.4243208 C149.682685,23.7526848 150.524397,24.3514812 151.416437,25.204561 L151.923569,25.6915957 L154.972271,22.3666864 L154.549874,21.9016964 C152.341857,19.475238 149.551986,18.2443217 146.262685,18.2443217 C142.987506,18.2443217 140.23307,19.3116968 138.074097,21.4151743 C135.912813,23.5222404 134.815352,26.1886275 134.815352,29.3415367 C134.815352,32.4944458 135.893298,35.1426332 138.01812,37.2115056 C140.138063,39.2765329 142.834725,40.3259646 146.032613,40.3259646 C149.247706,40.3259646 152.016522,39.0660826 154.264853,36.5814364 L154.698548,36.1018353 L151.59695,32.9248308 L151.104967,33.3880264 C150.246822,34.1918901 149.4218,34.7809458 148.650188,35.1395572 C147.905281,35.4879152 146.992185,35.6624787 145.934268,35.6624787 C144.235438,35.6624787 142.805452,35.058043 141.563683,33.8186677 C140.320887,32.5777544 139.71772,31.07051 139.71772,29.2138823 C139.71772,27.3621249 140.322942,25.8884603 141.565738,24.7059912" id="Fill-12"></path>
                <path d="M173.046633,33.572305 C171.898074,34.7609261 170.524836,35.3371652 168.851683,35.3371652 C167.178017,35.3371652 165.806833,34.7609261 164.656476,33.572305 C163.502268,32.3818896 162.941469,30.9743591 162.941469,29.2699938 C162.941469,27.5663975 163.502268,26.1596361 164.656476,24.9692207 C165.806833,23.7800869 167.179301,23.2043605 168.851683,23.2043605 C170.524066,23.2043605 171.895763,23.7800869 173.046633,24.9692207 C174.200328,26.1609178 174.761641,27.5687046 174.761641,29.2699938 C174.761641,30.9720521 174.200328,32.3813769 173.046633,33.572305 M176.678217,21.5653604 C174.574708,19.5134061 171.941213,18.4739714 168.851683,18.4739714 C165.762668,18.4739714 163.129686,19.5134061 161.02592,21.5653604 C158.918559,23.6173147 157.850114,26.2111593 157.850114,29.2699938 C157.850114,32.3313917 158.918559,34.9236983 161.02592,36.9784723 C163.1302,39.0286322 165.764208,40.0683232 168.851683,40.0683232 C171.939415,40.0683232 174.57368,39.0286322 176.678217,36.9784723 C178.785578,34.9236983 179.854793,32.3301101 179.854793,29.2699938 C179.854793,26.2111593 178.785578,23.6196217 176.678217,21.5653604" id="Fill-13"></path>
                <path d="M69.6217917,10.8977358 C71.979766,10.8977358 72.9203367,9.66374351 73.2166562,9.19183247 C72.7441883,8.13650507 72.0971127,7.66356869 72.0971127,7.66356869 C71.6251583,8.36925641 70.9785963,9.01547462 69.5642739,9.01547462 C68.1520057,9.01547462 67.0904936,8.19366757 67.0904936,6.54851545 C67.0904936,5.0784395 68.1520057,4.07796759 69.5642739,4.07796759 C70.919281,4.07796759 71.5080685,4.78314265 71.9186534,5.37142936 C71.9186534,5.37142936 72.5688103,4.84158682 73.0397375,3.78472141 C72.7441883,3.3130667 71.9186534,2.19801346 69.5642739,2.19801346 C66.9731469,2.19801346 65.1472126,3.84367825 65.1472126,6.54851545 C65.1472126,9.25258365 66.8537461,10.8977358 69.6217917,10.8977358" id="Fill-14"></path>
                <path d="M80.4009929,4.31253891 C80.4009929,4.31253891 80.7204223,5.0894875 81.3320628,6.78077976 L79.4596519,6.78077976 C80.0715492,5.0894875 80.4009929,4.31253891 80.4009929,4.31253891 M78.8349158,8.54640889 L81.968097,8.54640889 C82.2027903,9.22825754 82.4749729,9.9816234 82.756913,10.8393172 L84.7592525,10.8393172 C82.8745164,5.31249815 81.5205364,2.25391992 81.5205364,2.25391992 L79.2819629,2.25391992 C79.2819629,2.25391992 77.9282397,5.31249815 76.0427332,10.8393172 L78.0450728,10.8393172 C78.3277832,9.9816234 78.5991954,9.22825754 78.8349158,8.54640889" id="Fill-15"></path>
                <polygon id="Fill-16" points="89.8248531 7.68656186 93.1241683 7.68656186 93.1241683 5.80686406 89.8248531 5.80686406 89.8248531 4.19580437 93.7709872 4.19580437 93.7709872 2.25407372 87.8823424 2.25407372 87.8823424 10.839471 89.8248531 10.839471"></polygon>
                <polygon id="Fill-17" points="99.1324708 7.68656186 102.427934 7.68656186 102.427934 5.80686406 99.1324708 5.80686406 99.1324708 4.19580437 103.077321 4.19580437 103.077321 2.25407372 97.1881626 2.25407372 97.1881626 10.839471 99.1324708 10.839471"></polygon>
                <polygon id="Fill-18" points="110.438653 1.84368286 109.320394 0.256205912 107.081563 0.256205912 108.614516 1.84368286"></polygon>
                <polygon id="Fill-19" points="112.442456 8.89938092 108.436237 8.89938092 108.436237 7.68666439 111.676237 7.68666439 111.676237 5.80696659 108.436237 5.80696659 108.436237 4.19565057 112.265795 4.19565057 112.265795 2.25391992 106.493469 2.25391992 106.493469 10.8393172 112.442456 10.8393172"></polygon>
                <polygon id="Fill-20" points="50.7338345 51.4143104 51.6623367 51.4143104 51.6623367 49.2341891 53.5578573 49.2341891 53.5578573 48.4503195 51.6623367 48.4503195 51.6623367 46.9751168 53.8937204 46.9751168 53.8937204 46.1915036 50.7338345 46.1915036"></polygon>
                <polygon id="Fill-21" points="62.8220542 51.4142079 63.7508131 51.4142079 63.7508131 46.191401 62.8220542 46.191401"></polygon>
                <path d="M74.7589558,48.637187 L74.0243195,48.637187 L74.0243195,46.9341034 L74.7589558,46.9341034 C75.1230642,46.9341034 75.3967874,46.9938292 75.5826933,47.1104612 C75.7703966,47.2265806 75.8643766,47.4375435 75.8643766,47.7402741 C75.8643766,48.0406976 75.7703966,48.2644773 75.5826933,48.4121257 C75.3967874,48.5597741 75.1230642,48.637187 74.7589558,48.637187 M76.499127,48.7081915 C76.6901683,48.4613418 76.783378,48.1406679 76.783378,47.7402741 C76.783378,47.4485659 76.7333067,47.2053048 76.6349615,47.0066459 C76.5358459,46.8090124 76.4012953,46.6521359 76.2274579,46.5316589 C76.0536205,46.4114382 75.8505107,46.3245409 75.6147903,46.2704545 C75.380097,46.217137 75.1274294,46.1915036 74.8565307,46.1915036 L73.0947903,46.1915036 L73.0947903,51.4143104 L74.0243195,51.4143104 L74.0243195,49.3720968 L74.8146762,49.3720968 L75.9429501,51.4143104 L76.9834066,51.4143104 L75.7357318,49.2341891 C76.0559315,49.1270414 76.3106534,48.9524779 76.499127,48.7081915" id="Fill-22"></path>
                <polygon id="Fill-23" points="86.8325649 49.0900268 88.7121655 49.0900268 88.7121655 48.3069262 86.8325649 48.3069262 86.8325649 46.9750143 89.0490556 46.9750143 89.0490556 46.191401 85.9035492 46.191401 85.9035492 51.4142079 89.1283994 51.4142079 89.1283994 50.6331579 86.8325649 50.6331579"></polygon>
                <path d="M101.24887,48.4601883 C101.24887,48.7526655 101.26325,49.0541144 101.288414,49.366073 C101.315889,49.6777752 101.343621,49.969227 101.369041,50.2401722 L101.337971,50.2401722 L100.793093,49.1312709 L99.1692411,46.1913754 L98.2176291,46.1913754 L98.2176291,51.4141822 L99.0968302,51.4141822 L99.0968302,49.1312709 C99.0968302,48.8372558 99.0837347,48.5393956 99.0572867,48.2353833 C99.0308388,47.9323965 99.003107,47.6429953 98.9766591,47.3641038 L99.0084993,47.3641038 L99.5526077,48.4765937 L101.175175,51.4141822 L102.130126,51.4141822 L102.130126,46.1913754 L101.24887,46.1913754 L101.24887,48.4601883 Z" id="Fill-24"></path>
                <polygon id="Fill-25" points="114.809854 46.751978 114.809854 46.1913754 111.369312 46.1913754 111.369312 46.9749887 113.666174 46.9749887 111.129227 50.856143 111.129227 51.4141822 114.833735 51.4141822 114.833735 50.6331323 112.280867 50.6331323"></polygon>
                <polygon id="Fill-26" points="124.74588 49.0900268 126.627792 49.0900268 126.627792 48.3069262 124.74588 48.3069262 124.74588 46.9750143 126.964425 46.9750143 126.964425 46.191401 123.818148 46.191401 123.818148 51.4142079 127.042999 51.4142079 127.042999 50.6331579 124.74588 50.6331579"></polygon>
            </g>
        </g>
    </g>
</svg>