<svg xmlns="http://www.w3.org/2000/svg" width="40" height="40"><g fill="#000" fill-rule="nonzero"><path d="M39.952 11.04c-.152-.383-.6-.612-1-.46-.305.153-3.198 1.3-7.157 3.06 2-5.9-2.655-9.64-2.73-9.64C22.898-1.5 15.97.25 15.666.327s-.533.306-.533.612c-.6 3.3 3.73 10.56 4.263 11.4 1.675 2.45 3.654 3.902 5.862 4.362h.228c-6.852 3.52-14.313 8.187-17.358 12.778-.228.383-.152.842.228 1.07.152.077.305.153.457.153.228 0 .457-.153.6-.306 2.512-3.826 8.527-7.728 14.465-11.02-.6 1.377-.6 2.525-.6 2.602-.6 7.5 5.7 10.866 5.938 10.942.076.077.228.077.38.077.076 0 .152 0 .228-.077a.78.78 0 0 0 .457-.383c3.045-6.58 3.73-11.4 1.98-14.3-.6-1.07-1.523-1.683-2.284-2.066 5.253-2.525 9.44-4.208 9.517-4.208.38-.077.6-.536.457-.918zm-9.06 8.034c1 1.607 1.447 5.05-1.675 12.1-1.523-.995-4.873-3.98-4.492-9.182a5.36 5.36 0 0 1 2.132-3.979c-.457 2.296-1 6.58.076 9.335.152.306.38.46.685.46.076 0 .152 0 .305-.077.38-.153.6-.612.457-.995-1.066-2.755-.228-7.575.152-9.412.685.23 1.675.7 2.36 1.76zm-.457-6.12C27.4 6.295 20.386 3.005 20.08 2.852c-.38-.153-.837 0-1 .383s0 .842.38.995c.076 0 7.537 3.596 10.05 10.406-.76.383-2.208.918-3.96.612-1.827-.383-3.502-1.607-4.873-3.673-1.218-2-4.035-7.27-4.1-9.794 1.6-.306 6.852-.7 11.572 3.443.152.153 3.73 3.06 2.284 7.728zM17 26a4.99 4.99 0 1 0 0 10 4.99 4.99 0 1 0 0-10zm0 8.462c-1.923 0-3.462-1.538-3.462-3.462s1.538-3.462 3.462-3.462 3.462 1.538 3.462 3.462-1.538 3.462-3.462 3.462zm-.135-1.884c-.64-.888-1.682-1.422-1.762-1.5-.4-.178-.88 0-1.04.444s0 .977.4 1.155c.16.1.8.444 1.04.977.16.267.4.355.64.355.16 0 .32-.1.48-.178.4-.266.48-.8.24-1.244zM5 30a4.99 4.99 0 1 0 0 10 4.99 4.99 0 0 0 5-5c0-2.77-2.308-5-5-5zm0 8.462c-1.923 0-3.462-1.538-3.462-3.462S3.077 31.538 5 31.538A3.45 3.45 0 0 1 8.462 35 3.5 3.5 0 0 1 5 38.462z"/><path d="M5.865 36.578c-.64-.888-1.602-1.422-1.762-1.5-.4-.178-.88 0-1.04.444s0 .977.4 1.155c.16.1.8.444 1.04.977.16.267.4.355.64.355.16 0 .32-.1.48-.178.4-.266.48-.8.24-1.244zM12 14a4.99 4.99 0 0 0-5 5 4.99 4.99 0 0 0 5 5 4.99 4.99 0 0 0 5-5 4.99 4.99 0 0 0-5-5zm0 8.462c-1.923 0-3.462-1.538-3.462-3.462s1.538-3.462 3.462-3.462 3.462 1.538 3.462 3.462-1.538 3.462-3.462 3.462zm-.135-1.842c-.64-.95-1.602-1.467-1.762-1.553-.4-.173-.88 0-1.04.43-.16.518 0 1.035.4 1.208.16.086.8.43 1.04.95.16.26.4.345.64.345.16 0 .32-.086.48-.173.4-.26.48-.777.24-1.208z"/></g></svg>